<?xml version="1.0" encoding="utf-8"?>
<!-- Generator: Adobe Illustrator 17.1.0, SVG Export Plug-In . SVG Version: 6.00 Build 0)  -->
<!DOCTYPE svg PUBLIC "-//W3C//DTD SVG 1.1//EN" "http://www.w3.org/Graphics/SVG/1.1/DTD/svg11.dtd">
<svg version="1.1" id="Layer_1" xmlns="http://www.w3.org/2000/svg" xmlns:xlink="http://www.w3.org/1999/xlink" x="0px" y="0px"
	 viewBox="0 0 1074 443.7" enable-background="new 0 0 1074 443.7" xml:space="preserve">
<g>
	<text transform="matrix(1 0 0 1 248.6904 419)" fill="#808080" font-family="'Muli'" font-size="12">Non-Residential</text>
	<rect x="201" y="406" fill="#0071BC" width="40" height="16"/>
	<text transform="matrix(1 0 0 1 460.6904 419)" fill="#808080" font-family="'Muli'" font-size="12">Residential</text>
	<text transform="matrix(1 0 0 1 645.6904 419)" fill="#808080" font-family="'Muli'" font-size="12">Average Residential System Price / Watt</text>
	<rect x="413" y="406" fill="#20C2F1" width="40" height="16"/>
	<rect x="611" y="410" fill="#FF931E" width="8" height="8"/>
	<line fill="none" stroke="#FF931E" stroke-width="2" stroke-miterlimit="10" x1="595" y1="414" x2="615" y2="414"/>
	<line fill="none" stroke="#FF931E" stroke-width="2" stroke-miterlimit="10" x1="615" y1="414" x2="636" y2="414"/>
</g>
<text transform="matrix(1 0 0 1 1000.3018 345)" fill="#808080" font-family="'Muli'" font-size="12">200</text>
<text transform="matrix(1 0 0 1 110.3564 391)" fill="#808080" font-family="'Muli'" font-size="12">2000</text>
<text transform="matrix(1 0 0 1 174.3564 391)" fill="#808080" font-family="'Muli'" font-size="12">2001</text>
<text transform="matrix(1 0 0 1 238.3564 391)" fill="#808080" font-family="'Muli'" font-size="12">2002</text>
<text transform="matrix(1 0 0 1 302.3564 391)" fill="#808080" font-family="'Muli'" font-size="12">2003</text>
<text transform="matrix(1 0 0 1 366.3594 391)" fill="#808080" font-family="'Muli'" font-size="12">2004</text>
<text transform="matrix(1 0 0 1 430.3564 391)" fill="#808080" font-family="'Muli'" font-size="12">2005</text>
<text transform="matrix(1 0 0 1 494.3564 391)" fill="#808080" font-family="'Muli'" font-size="12">2006</text>
<text transform="matrix(1 0 0 1 558.3594 391)" fill="#808080" font-family="'Muli'" font-size="12">2007</text>
<text transform="matrix(1 0 0 1 622.3564 391)" fill="#808080" font-family="'Muli'" font-size="12">2008</text>
<text transform="matrix(1 0 0 1 686.3564 391)" fill="#808080" font-family="'Muli'" font-size="12">2009</text>
<text transform="matrix(1 0 0 1 750.3564 391)" fill="#808080" font-family="'Muli'" font-size="12">2010</text>
<text transform="matrix(1 0 0 1 814.3564 391)" fill="#808080" font-family="'Muli'" font-size="12">2011</text>
<text transform="matrix(1 0 0 1 878.3564 391)" fill="#808080" font-family="'Muli'" font-size="12">2012</text>
<text transform="matrix(1 0 0 1 942.3564 391)" fill="#808080" font-family="'Muli'" font-size="12">2013</text>
<text transform="matrix(1 0 0 1 1000.3018 313)" fill="#808080" font-family="'Muli'" font-size="12">400</text>
<text transform="matrix(1 0 0 1 1000.3018 281)" fill="#808080" font-family="'Muli'" font-size="12">600</text>
<text transform="matrix(1 0 0 1 1000.3018 249)" fill="#808080" font-family="'Muli'" font-size="12">800</text>
<text transform="matrix(1 0 0 1 1000.3018 217)" fill="#808080" font-family="'Muli'" font-size="12">1,000</text>
<text transform="matrix(1 0 0 1 1000.3018 185)" fill="#808080" font-family="'Muli'" font-size="12">1,200</text>
<text transform="matrix(1 0 0 1 1000.3018 153)" fill="#808080" font-family="'Muli'" font-size="12">1,400</text>
<text transform="matrix(1 0 0 1 1000.3018 121)" fill="#808080" font-family="'Muli'" font-size="12">1,600</text>
<text transform="matrix(1 0 0 1 1000.3018 89)" fill="#808080" font-family="'Muli'" font-size="12">1,800</text>
<text transform="matrix(1 0 0 1 1000.3018 57)" fill="#808080" font-family="'Muli'" font-size="12">2,000</text>
<text transform="matrix(1 0 0 1 45.2471 313)" fill="#808080" font-family="'Muli'" font-size="12">$2.00</text>
<text transform="matrix(1 0 0 1 45.2529 249)" fill="#808080" font-family="'Muli'" font-size="12">$4.00</text>
<text transform="matrix(1 0 0 1 45.2471 185)" fill="#808080" font-family="'Muli'" font-size="12">$6.00</text>
<text transform="matrix(1 0 0 1 45.2471 121)" fill="#808080" font-family="'Muli'" font-size="12">$8.00</text>
<text transform="matrix(1 0 0 1 38.2744 57)" fill="#808080" font-family="'Muli'" font-size="12">$10.00</text>
<text transform="matrix(4.489659e-11 -1 1 4.489659e-11 24.3018 313.5449)" fill="#808080" font-family="'Muli'" font-size="12">Average Residential System Price / Watt</text>
<text transform="matrix(4.489659e-11 1 -1 4.489659e-11 1049.6992 41.0798)" fill="#808080" font-family="'Muli'" font-size="12">Megawatts Generated by Distributed Solar Installations</text>
<line fill="none" stroke="#CCCCCC" stroke-miterlimit="10" x1="92" y1="53.5" x2="988" y2="53.5"/>
<g>
	<g>
		<line fill="none" stroke="#CCCCCC" stroke-miterlimit="10" x1="92" y1="85.5" x2="93" y2="85.5"/>
		<line fill="none" stroke="#CCCCCC" stroke-miterlimit="10" stroke-dasharray="2,2" x1="95" y1="85.5" x2="986" y2="85.5"/>
		<line fill="none" stroke="#CCCCCC" stroke-miterlimit="10" x1="987" y1="85.5" x2="988" y2="85.5"/>
	</g>
</g>
<g>
	<g>
		<line fill="none" stroke="#CCCCCC" stroke-miterlimit="10" x1="92" y1="21.5" x2="93" y2="21.5"/>
		<line fill="none" stroke="#CCCCCC" stroke-miterlimit="10" stroke-dasharray="2,2" x1="95" y1="21.5" x2="986" y2="21.5"/>
		<line fill="none" stroke="#CCCCCC" stroke-miterlimit="10" x1="987" y1="21.5" x2="988" y2="21.5"/>
	</g>
</g>
<line fill="none" stroke="#CCCCCC" stroke-miterlimit="10" x1="92" y1="117.5" x2="988" y2="117.5"/>
<g>
	<g>
		<line fill="none" stroke="#CCCCCC" stroke-miterlimit="10" x1="92" y1="149.5" x2="93" y2="149.5"/>
		<line fill="none" stroke="#CCCCCC" stroke-miterlimit="10" stroke-dasharray="2,2" x1="95" y1="149.5" x2="986" y2="149.5"/>
		<line fill="none" stroke="#CCCCCC" stroke-miterlimit="10" x1="987" y1="149.5" x2="988" y2="149.5"/>
	</g>
</g>
<line fill="none" stroke="#CCCCCC" stroke-miterlimit="10" x1="92" y1="181.5" x2="988" y2="181.5"/>
<g>
	<g>
		<line fill="none" stroke="#CCCCCC" stroke-miterlimit="10" x1="92" y1="213.5" x2="93" y2="213.5"/>
		<line fill="none" stroke="#CCCCCC" stroke-miterlimit="10" stroke-dasharray="2,2" x1="95" y1="213.5" x2="986" y2="213.5"/>
		<line fill="none" stroke="#CCCCCC" stroke-miterlimit="10" x1="987" y1="213.5" x2="988" y2="213.5"/>
	</g>
</g>
<line fill="none" stroke="#CCCCCC" stroke-miterlimit="10" x1="92" y1="245.5" x2="988" y2="245.5"/>
<g>
	<g>
		<line fill="none" stroke="#CCCCCC" stroke-miterlimit="10" x1="92" y1="277.5" x2="93" y2="277.5"/>
		<line fill="none" stroke="#CCCCCC" stroke-miterlimit="10" stroke-dasharray="2,2" x1="95" y1="277.5" x2="986" y2="277.5"/>
		<line fill="none" stroke="#CCCCCC" stroke-miterlimit="10" x1="987" y1="277.5" x2="988" y2="277.5"/>
	</g>
</g>
<line fill="none" stroke="#CCCCCC" stroke-miterlimit="10" x1="92" y1="309.5" x2="988" y2="309.5"/>
<g>
	<g>
		<line fill="none" stroke="#CCCCCC" stroke-miterlimit="10" x1="92" y1="341.5" x2="93" y2="341.5"/>
		<line fill="none" stroke="#CCCCCC" stroke-miterlimit="10" stroke-dasharray="2,2" x1="95" y1="341.5" x2="986" y2="341.5"/>
		<line fill="none" stroke="#CCCCCC" stroke-miterlimit="10" x1="987" y1="341.5" x2="988" y2="341.5"/>
	</g>
</g>
<line fill="none" stroke="#CCCCCC" stroke-miterlimit="10" x1="92" y1="373.5" x2="988" y2="373.5"/>
<rect x="104" y="373" fill="#20C2F1" width="40" height="1"/>
<rect x="104" y="372" fill="#0071BC" width="40" height="1"/>
<rect x="168" y="372" fill="#20C2F1" width="40" height="2"/>
<rect x="168" y="371" fill="#0071BC" width="40" height="2"/>
<rect x="232" y="368" fill="#0071BC" width="40" height="3"/>
<rect x="232" y="371" fill="#20C2F1" width="40" height="3"/>
<rect x="296" y="370" fill="#20C2F1" width="40" height="4"/>
<rect x="360" y="369" fill="#20C2F1" width="40" height="5"/>
<rect x="424" y="367" fill="#20C2F1" width="40" height="7"/>
<rect x="488" y="366" fill="#20C2F1" width="40" height="8"/>
<rect x="552" y="362" fill="#20C2F1" width="40" height="12"/>
<rect x="616" y="360" fill="#20C2F1" width="40" height="14"/>
<rect x="680" y="349" fill="#20C2F1" width="40" height="25"/>
<rect x="680" y="314" fill="#0071BC" width="40" height="35"/>
<rect x="744" y="248" fill="#0071BC" width="40" height="88"/>
<rect x="808" y="189" fill="#0071BC" width="40" height="137"/>
<rect x="872" y="124" fill="#0071BC" width="40" height="171"/>
<rect x="936" y="68" fill="#0071BC" width="40" height="179"/>
<rect x="616" y="329" fill="#0071BC" width="40" height="31"/>
<rect x="552" y="346" fill="#0071BC" width="40" height="17"/>
<rect x="488" y="355" fill="#0071BC" width="40" height="11"/>
<rect x="424" y="360" fill="#0071BC" width="40" height="7"/>
<rect x="360" y="362" fill="#0071BC" width="40" height="7"/>
<rect x="296" y="365" fill="#0071BC" width="40" height="6"/>
<rect x="744" y="336" fill="#20C2F1" width="40" height="38"/>
<rect x="808" y="326" fill="#20C2F1" width="40" height="48"/>
<rect x="872" y="295" fill="#20C2F1" width="40" height="79"/>
<rect x="936" y="247" fill="#20C2F1" width="40" height="126"/>
<rect x="120" y="46" fill="#FF931E" width="8" height="8"/>
<rect x="184" y="42" fill="#FF931E" width="8" height="8"/>
<rect x="248" y="42" fill="#FF931E" width="8" height="8"/>
<rect x="312" y="74" fill="#FF931E" width="8" height="8"/>
<rect x="376" y="83" fill="#FF931E" width="8" height="8"/>
<rect x="440" y="94" fill="#FF931E" width="8" height="8"/>
<rect x="504" y="94" fill="#FF931E" width="8" height="8"/>
<rect x="568" y="94" fill="#FF931E" width="8" height="8"/>
<rect x="632" y="102" fill="#FF931E" width="8" height="8"/>
<rect x="696" y="106" fill="#FF931E" width="8" height="8"/>
<rect x="760" y="146" fill="#FF931E" width="8" height="8"/>
<rect x="824" y="166" fill="#FF931E" width="8" height="8"/>
<rect x="888" y="198" fill="#FF931E" width="8" height="8"/>
<rect x="952" y="222" fill="#FF931E" width="8" height="8"/>
<line fill="none" stroke="#FF931E" stroke-width="2" stroke-miterlimit="10" x1="124.3" y1="50" x2="188.3" y2="46"/>
<line fill="none" stroke="#FF931E" stroke-width="2" stroke-miterlimit="10" x1="188" y1="46" x2="252" y2="46"/>
<line fill="none" stroke="#FF931E" stroke-width="2" stroke-miterlimit="10" x1="252.3" y1="46" x2="316.3" y2="78"/>
<line fill="none" stroke="#FF931E" stroke-width="2" stroke-miterlimit="10" x1="316.3" y1="78" x2="380.3" y2="86"/>
<line fill="none" stroke="#FF931E" stroke-width="2" stroke-miterlimit="10" x1="380.3" y1="86" x2="444.3" y2="98"/>
<line fill="none" stroke="#FF931E" stroke-width="2" stroke-miterlimit="10" x1="444" y1="98" x2="508" y2="98"/>
<line fill="none" stroke="#FF931E" stroke-width="2" stroke-miterlimit="10" x1="508" y1="98" x2="572" y2="98"/>
<line fill="none" stroke="#FF931E" stroke-width="2" stroke-miterlimit="10" x1="572.3" y1="98" x2="636.3" y2="106"/>
<line fill="none" stroke="#FF931E" stroke-width="2" stroke-miterlimit="10" x1="636.3" y1="106" x2="700.3" y2="110"/>
<line fill="none" stroke="#FF931E" stroke-width="2" stroke-miterlimit="10" x1="700.3" y1="110" x2="764.3" y2="150"/>
<line fill="none" stroke="#FF931E" stroke-width="2" stroke-miterlimit="10" x1="764.3" y1="150" x2="828.3" y2="170"/>
<line fill="none" stroke="#FF931E" stroke-width="2" stroke-miterlimit="10" x1="828.3" y1="170" x2="892.3" y2="202"/>
<line fill="none" stroke="#FF931E" stroke-width="2" stroke-miterlimit="10" x1="892.3" y1="202" x2="956.3" y2="226"/>
</svg>
