<?xml version="1.0" encoding="utf-8"?>
<!-- Generator: Adobe Illustrator 17.1.0, SVG Export Plug-In . SVG Version: 6.00 Build 0)  -->
<!DOCTYPE svg PUBLIC "-//W3C//DTD SVG 1.1//EN" "http://www.w3.org/Graphics/SVG/1.1/DTD/svg11.dtd">
<svg version="1.1" id="Layer_1" xmlns="http://www.w3.org/2000/svg" xmlns:xlink="http://www.w3.org/1999/xlink" x="0px" y="0px"
	 viewBox="0 0 368.9 136" enable-background="new 0 0 368.9 136" xml:space="preserve">
<g>
	<path fill="#FFFFFF" d="M154.7,61.8c0-2.4,0.8-4.4,2.5-6c1.7-1.6,4.2-2.5,7.7-2.5c2.6,0,5.1,0.6,7.6,1.9v4.5
		c-2.5-1.1-4.8-1.7-7-1.7c-3.8,0-5.6,1.2-5.6,3.6c0,0.8,0.5,1.5,1.5,2c1,0.5,2.2,1,3.6,1.4c1.4,0.4,2.8,0.9,4.2,1.4s2.6,1.5,3.6,2.8
		c1,1.3,1.5,3,1.5,4.9c0,2.3-0.9,4.3-2.6,5.9c-1.7,1.7-4.4,2.5-8,2.5c-3,0-5.8-0.7-8.2-2v-4.8c2.5,1.4,5.1,2.1,7.9,2.1
		c0,0,0.1,0,0.1,0c1.8,0,3.2-0.3,4.2-1s1.4-1.5,1.4-2.5c0-1.2-0.5-2.1-1.5-2.8c-1-0.7-2.2-1.3-3.6-1.7s-2.9-0.8-4.3-1.3
		c-1.4-0.5-2.6-1.3-3.6-2.4C155.2,65.1,154.7,63.6,154.7,61.8z"/>
	<path fill="#FFFFFF" d="M179.5,70.2V53.8h5.2v16.9c0,2.6,0.5,4.5,1.7,5.7c1.1,1.2,2.8,1.8,5.2,1.8c2.4,0,4.1-0.6,5.1-1.8
		c1.1-1.2,1.6-3.1,1.6-5.7V53.8h5.2v16.5c0,3.9-1,7-3.1,9.2c-2.1,2.2-5,3.3-8.8,3.3c-3.8,0-6.7-1.1-8.9-3.3
		C180.6,77.2,179.5,74.2,179.5,70.2z"/>
	<path fill="#FFFFFF" d="M210.7,82.2v-26c3.9-1.9,8-2.9,12.1-2.9c3.6,0,6.4,0.9,8.5,2.8c2,1.9,3.1,4.5,3.1,7.8v18.3h-5.3V63.5
		c0-1.7-0.4-3-1.3-4c-0.9-1-2.6-1.4-5.2-1.4c-2.3,0-4.6,0.3-6.7,1v23.1H210.7z"/>
	<path fill="#FFFFFF" d="M240.3,61.8c0-2.4,0.8-4.4,2.5-6c1.7-1.6,4.2-2.5,7.7-2.5c2.6,0,5.1,0.6,7.6,1.9v4.5
		c-2.5-1.1-4.8-1.7-7-1.7c-3.8,0-5.6,1.2-5.6,3.6c0,0.8,0.5,1.5,1.5,2c1,0.5,2.2,1,3.6,1.4c1.4,0.4,2.8,0.9,4.2,1.4s2.6,1.5,3.6,2.8
		c1,1.3,1.5,3,1.5,4.9c0,2.3-0.9,4.3-2.6,5.9c-1.7,1.7-4.4,2.5-8,2.5c-3,0-5.8-0.7-8.2-2v-4.8c2.5,1.4,5.1,2.1,7.9,2.1
		c0,0,0.1,0,0.1,0c1.8,0,3.2-0.3,4.2-1s1.4-1.5,1.4-2.5c0-1.2-0.5-2.1-1.5-2.8c-1-0.7-2.2-1.3-3.6-1.7s-2.9-0.8-4.3-1.3
		c-1.4-0.5-2.6-1.3-3.6-2.4C240.8,65.1,240.3,63.6,240.3,61.8z"/>
	<path fill="#FFFFFF" d="M262.9,58.2v-4.5h5v-8.4h5.2v8.4h7.6v4.5h-7.6v16.4c0,2.2,1.4,3.3,4.2,3.3c0,0,0,0,0.1,0
		c1.3,0,2.4-0.3,3.3-0.8v4.7c-1.3,0.5-2.6,0.8-3.9,0.8c0,0-0.1,0-0.1,0c-0.7,0-1.4-0.1-2.2-0.2c-0.8-0.2-1.7-0.5-2.8-1
		c-1.1-0.5-2-1.3-2.7-2.6c-0.7-1.2-1.1-2.7-1.1-4.5V58.2H262.9z"/>
	<path fill="#FFFFFF" d="M284.8,73.2c0-2.8,1.2-5,3.6-6.6c2.4-1.6,5.7-2.4,9.8-2.4c1.8,0,3.5,0.1,5.2,0.3c-0.1-2.4-0.8-4.1-2-5.1
		c-1.2-1-3.2-1.6-5.9-1.6c-2.5,0-5.1,0.5-7.9,1.4v-4.5c2.7-1,5.6-1.5,8.6-1.5c4,0,7,1,9.2,3.1c2.2,2,3.2,5,3.2,8.8v8.2
		c0,0.6-0.1,1.2-0.2,1.8c-0.1,0.6-0.4,1.4-0.9,2.3c-0.5,0.9-1.1,1.8-1.9,2.5c-0.8,0.7-2,1.3-3.5,1.8c-1.6,0.5-3.4,0.8-5.4,0.8
		c-2.1,0-3.9-0.3-5.5-0.8c-1.6-0.5-2.8-1.1-3.6-1.9c-0.8-0.7-1.4-1.5-1.9-2.5c-0.5-1-0.8-1.8-0.9-2.4
		C284.8,74.4,284.8,73.8,284.8,73.2z M290,73.2c0,3.2,2.3,4.8,6.8,4.8c0,0,0,0,0.1,0c4.3,0,6.4-1.5,6.4-4.6v-4.6
		c-1.4-0.2-3-0.3-4.9-0.4c-0.8,0-1.6,0.1-2.4,0.2c-0.8,0.1-1.7,0.4-2.7,0.6s-1.8,0.8-2.4,1.5C290.3,71.4,290,72.2,290,73.2z"/>
	<path fill="#FFFFFF" d="M315,82.2v-26c3.9-1.9,8-2.9,12.1-2.9c3.6,0,6.4,0.9,8.5,2.8c2,1.9,3.1,4.5,3.1,7.8v18.3h-5.3V63.5
		c0-1.7-0.4-3-1.3-4c-0.9-1-2.6-1.4-5.2-1.4c-2.3,0-4.6,0.3-6.7,1v23.1H315z"/>
	<path fill="#FFFFFF" d="M344.6,67.6c0-2.8,0.4-5.2,1.2-7.2c0.8-2,1.8-3.5,3.2-4.4s2.7-1.7,4.1-2.1s2.9-0.6,4.6-0.6
		c2.1,0,4.1,0.3,6.1,0.8V43h5.2v30.4c0,0.6-0.1,1.2-0.2,1.8s-0.4,1.4-0.9,2.3c-0.5,0.9-1.1,1.8-1.8,2.5c-0.8,0.7-1.9,1.3-3.5,1.8
		c-1.5,0.5-3.3,0.8-5.4,0.8c-1.1,0-2.1-0.1-3.2-0.3c-1-0.2-2.1-0.6-3.3-1.3c-1.2-0.6-2.2-1.5-3.1-2.5c-0.9-1-1.6-2.5-2.2-4.4
		C344.9,72.3,344.6,70.1,344.6,67.6z M349.8,67.6c0,2.2,0.2,4,0.6,5.5c0.4,1.4,1,2.5,1.8,3.2c0.8,0.7,1.5,1.1,2.3,1.4
		c0.8,0.2,1.7,0.4,2.7,0.4c4.4,0,6.5-1.4,6.5-4.2V59.2c-1.9-0.8-4-1.2-6.1-1.2c-1.1,0-2.1,0.1-3,0.3c-0.8,0.2-1.7,0.6-2.5,1.3
		c-0.8,0.6-1.4,1.6-1.8,2.9S349.8,65.6,349.8,67.6z"/>
	<path fill="#FFFFFF" d="M99.9,128l-0.2-0.9l0.3-3.1l5.3,0.8c0.5-0.3,1-0.7,1.5-1l-0.2,0l-6.2-4.5l0-0.3l6.3,1.7l0.8,2.7
		c0.4-0.3,0.7-0.5,1.1-0.8l-0.4-1.6l1.8,0.5c0.6-0.5,1.2-0.9,1.8-1.4l-5.9-8.2l8.3,6.1c0.3-0.3,0.6-0.6,0.9-0.9l-10-7.4l-0.5-2
		l2.6-2l2.1,0.3l7.9,8.9c0.3-0.3,0.6-0.6,0.9-0.9l-6.8-7.7l3.7,0.6l3.7,5.9l0,0.7c0.5-0.5,0.9-1,1.4-1.6l0.3-4.1l2.7,0.4
		c0.5-0.7,1-1.3,1.4-2l-2.1-5h0.7l2,4c0.3-0.4,0.5-0.8,0.8-1.2l-1.4-2.8h3c0.4-0.7,0.8-1.4,1.1-2.1l-0.5-0.7l0.9-0.1
		c0.2-0.5,0.5-0.9,0.7-1.4l-2.4,0.4l-3.1-4.4l4.4-3.3l2.4,4.6c0.4-1,0.8-2,1.2-3l-1.2-2.9l2.4-0.8c0.1-0.5,0.3-1,0.4-1.5l-1,0.3
		l0.9-0.7l0.2,0c0.3-1,0.5-2,0.7-3l-6.7-1.9l-1.3-3.2l4.1,1.6l3.9,3.6c0.1-0.5,0.2-0.9,0.3-1.4l-1-0.9l1.1,0.4
		c0.1-0.4,0.2-0.8,0.2-1.3l-3.9-1.5l-7.2-6.6l-0.3-0.8l0.2-0.4l11.6,6.2c0.1-0.4,0.1-0.9,0.2-1.3l-11.1-6l0.8-1.2l8.2,0.4l2.2,5
		c0.1-0.9,0.1-1.8,0.2-2.7l-1-2.3l1.1,0c0-0.2,0-0.5,0-0.7c0-0.2,0-0.4,0-0.5l-1.7-0.1l-1.4-3.1l2.9-1.1c0-0.4-0.1-0.9-0.1-1.3
		l-3.3,1.3l-1-2.2l3.8-2.7c-0.1-0.5-0.1-0.9-0.2-1.4l-4.1,3l-0.1-0.3l3.7-5.8c-0.1-0.6-0.3-1.1-0.4-1.7l-3.9,6.1l-3.4-7.5l1.3-0.9
		l5.7,1.1c-0.1-0.5-0.3-0.9-0.4-1.3l-3.9-0.7l3-2.1c-0.1-0.4-0.3-0.8-0.4-1.2l-4.3,3l-0.3-0.1l1.9-2.9L132,45
		c-0.5-1.3-0.9-2.5-1.5-3.7l-5.5-4.9l0.1-1.1l2.7,0.4c-0.3-0.5-0.5-0.9-0.8-1.4l-1.6-0.3l1.1-0.5c-0.2-0.4-0.4-0.7-0.6-1.1l-0.7,0.3
		l0.1-1.2c-0.4-0.6-0.7-1.2-1.1-1.7l-0.2,3.6l-0.7,0.3l-1.6-0.3l-1.2-1.1l2.9-3.9c-0.3-0.4-0.5-0.7-0.8-1.1l-3,4.1l-2.1-1.9
		l-0.2-0.5l0.3-0.5l3.4-3.4c-1.2-1.5-2.5-3-3.9-4.4l-3.5-1l1-1.5c-0.3-0.3-0.6-0.6-0.9-0.9l-1,1.4l-1.7-3.7c-1-0.8-2-1.5-3-2.3
		l-0.4,5.2l-4.7-1.3l-0.5-0.4l3.8-3.6l1.6,0.1c-0.8-0.6-1.7-1.2-2.6-1.8l-1.4,0.3l-4.5-0.3l-1-2.5l0.2-1.3c-0.9-0.4-1.7-0.8-2.6-1.2
		L97,8.7l-0.3,2.2l-0.5,0l-4.7-4.2l0.6-2.3c-0.4-0.1-0.8-0.3-1.2-0.4l-0.5,1.8l-0.5-0.4l0.8-1.4c-0.4-0.1-0.8-0.3-1.2-0.4l-0.5,1
		l-0.9-0.8l1.1-0.3c-1.6-0.5-3.3-1-5-1.4L85.4,3l-0.7,0.2l-0.7-1.3c-0.5-0.1-1.1-0.3-1.6-0.4l1,2l-2.4,0.6l-1-2.5l0.5-0.5
		c-0.7-0.1-1.5-0.3-2.2-0.4l0.3,0.6l-2.7,2.8l-1.1-3.8c-0.4,0-0.9-0.1-1.3-0.1l0.8,2.9l-1.5-2.9c-0.5,0-1-0.1-1.5-0.1l2.9,5.7
		l-5.1,1.3l-0.6-0.2L66.8,0c-0.4,0-0.9,0-1.3,0l1.7,6.4L60,4.4l-2.6-3.6C57,0.9,56.5,1,56.1,1l2,2.8l-4.4-1.3l-0.2-1.1
		c-0.5,0.1-1,0.2-1.5,0.4l0,0.2L51.6,2c-0.8,0.2-1.6,0.4-2.3,0.6L50.5,3L52,5.4l0,0.8l-3.7-3.3C47.9,3,47.4,3.1,47,3.3l5,4.5
		l-6.1-0.4l-0.4-3.6C45,4,44.6,4.1,44.2,4.2l0.3,3.1l-6.4-0.4c-1.5,0.8-3,1.6-4.5,2.4l-0.1,0.4l0-0.3c-0.6,0.3-1.2,0.7-1.7,1.1
		l0.6,0.8l0.1,1.9l-0.9,2.9l-3.1-3.5c-0.3,0.2-0.7,0.5-1,0.7l3,3.4l-2.7,0.7l0,0l-1.3-3.2c-0.3,0.3-0.7,0.5-1,0.8l0.6,1.5l-1.4-0.8
		c-0.3,0.3-0.7,0.6-1,0.9l2.4,1.3l-0.2,0.1l-3.1-0.5c-0.4,0.4-0.8,0.7-1.2,1.1l1.2,0.2l-1.9,0.5c-0.6,0.6-1.1,1.1-1.7,1.7l6.8-1.7
		l1.4,0.2l1.9,4.7l-0.2,0.7L20,26.4l-1.9-4.6c-0.3,0.3-0.6,0.7-0.9,1l1.6,3.8l-1.1,0.2l-1.8-2.5c-0.3,0.3-0.6,0.7-0.8,1l1.2,1.8
		l-1.2,0.2L13.7,27c-0.5,0.7-1,1.4-1.6,2.2l0,2.1l-0.5-1.4c-0.7,1-1.3,2-1.9,3l0.8,0.3l1.1,7.9L7,37.8c-0.2,0.4-0.4,0.8-0.6,1.1
		l4.1,3l-5.9,1c-0.2,0.5-0.4,0.9-0.5,1.4l7.6-1.4l0.2,1.4l0,3l-0.6,0.1l-7.5-2.2c-0.6,1.8-1.2,3.6-1.7,5.5l0.4-0.1L3,57l-1.5-3.1
		c-0.2,1.1-0.4,2.2-0.6,3.3l1.9,2.3l0.4,0.8l0.1,1.5l-3-0.1c0,0.4-0.1,0.8-0.1,1.2L3.4,63l0.3,5.3l-0.9,0.2l-2.8-4.1
		c0,0.7,0,1.4-0.1,2.2l1.5,2.2L0,69c0,0.4,0,0.8,0,1.3l2.2-0.4L4,72.4l0.2,2.8l-3.8-0.3c0,0.4,0.1,0.8,0.2,1.3l3.7,0.3l0.1,1.9
		l-3,3.1c0.1,0.5,0.2,1,0.3,1.5l2.8-2.9L5,87.8l-2.1-0.3c0.1,0.4,0.3,0.9,0.4,1.3L5,89.1l0.1,1.1l-1.2,0.6c0.3,0.8,0.6,1.6,0.9,2.4
		l0.5,0.1l0.1,1.3c0.6,1.5,1.3,2.9,2,4.3L7.7,98l3.8,1.9l0,0.1H8c0.2,0.4,0.5,0.8,0.7,1.2h2.7l0,0.9l-1.4,1.4
		c0.2,0.4,0.5,0.7,0.7,1.1l0.7-0.7l0,1.8c0.4,0.6,0.8,1.2,1.2,1.8l0-4.7l1.5-1.4l6,3.1l0.3,2.3l-6.5,2.5c0.6,0.8,1.2,1.6,1.9,2.4
		l5.4,0.8l0.1,1.1l-3.4,0.5c0.3,0.4,0.7,0.7,1.1,1.1l2.5-0.4l0.5,3.3c0.5,0.4,1,0.8,1.4,1.3l-0.6-4.8l5-0.8l-3.3,6l-0.3,0.2
		c0.4,0.4,0.9,0.8,1.4,1.1l1.7-1.7l3.7-2.5l1.5,3.1l-5.8,1.9c0.4,0.3,0.8,0.6,1.2,0.9l5.2-1.7l1.6,3.2l-5.4-0.6
		c0.7,0.5,1.5,1,2.2,1.5l3.9,0.4l0.9,1.8l-0.5,0.3c0.9,0.5,1.9,1,2.8,1.4l0.4-0.5l0,0.7c0.4,0.2,0.9,0.4,1.3,0.6l-0.2-3l0.4-0.6
		l3.4,5.1c1,0.4,1.9,0.7,2.9,1l3.9-5.3l0.4,0l-0.1,6.5c0.4,0.1,0.8,0.2,1.2,0.3l0.1-6.7l4.1,0.4l-1.9,6.8c0.4,0.1,0.8,0.1,1.2,0.2
		l1.6-5.7l0.6,6.1c0.6,0.1,1.2,0.2,1.8,0.2l2.5-4.6l2.1,5c1,0.1,1.9,0.1,2.9,0.1l0.8-0.6l0.5,0.6c0.9,0,1.9,0,2.8-0.1l1-1.6l0.2,1.5
		c0.4,0,0.8-0.1,1.2-0.1l-0.4-2.4l1,2.4c0.4,0,0.9-0.1,1.3-0.1l-1.3-3.2l4.8,2.5l0,0.2c0.8-0.1,1.6-0.3,2.4-0.4l-1-0.5l0.5-3.7
		l2.1,0.2l0.8,0.8l-2,3.2c0.6-0.1,1.2-0.3,1.7-0.4l1-1.5l0.5,1.2c0.8-0.2,1.5-0.4,2.3-0.7l-1.9-1.9l0.2-0.3l1.7,0.2l0.5,1.9
		c0.4-0.1,0.8-0.3,1.2-0.4l-0.4-1.4l0.3,0l0.8,1.1c0.4-0.1,0.8-0.3,1.2-0.4l-0.4-0.5l1.4,0.1c0.8-0.3,1.7-0.6,2.5-1l-4.8-0.5
		l-1.9-2.7l2.6-4.1l5.8,6.5c0.4-0.2,0.8-0.4,1.2-0.5l-5.8-6.6l6,0.9l0.9,3.6l-0.1,1.6C98.8,128.6,99.4,128.3,99.9,128z M3.7,48.6
		l-0.1-2.1L8.8,48l-4.6,1L3.7,48.6z M3.6,69.6l0.2,0l0,0.4L3.6,69.6z M4.9,68.1l-0.3-4.9l2.2,4.5L4.9,68.1z M6,63.2l3.4,4l-1.4,0.3
		L6,63.2z M4.6,91.8l0.6-0.3l0,0.5L4.6,91.8z M5.2,72L5,69.4l2.4-0.5l2,4.2l-2.1,2.2L5.2,72z M10,74.3l0.7,1.4l-1.9-0.1L10,74.3z
		 M5.3,74.5l0.6,0.8l-0.5,0L5.3,74.5z M5.5,76.5l0.6,0l-0.6,0.6L5.5,76.5z M5.6,78.8l1.6-1.6l3.8,5.7l-1.6,5.2l-0.7,0.3L6.2,88
		L5.6,78.8z M6.3,89.3l0.4,0.1l-0.4,0.2L6.3,89.3z M7.1,95.6l-0.4,0.3l-0.1-2.2l1,0.3L7.1,95.6z M6.5,92.3l-0.1-1.4l2.5-1.2l-0.9,3
		L6.5,92.3z M9,94.3l-0.3,0.2l0.1-0.2L9,94.3z M11.5,98.5l-3.4-1.8l0.1-0.4l2.4-1.7l0.9,0.2L11.5,98.5z M11.5,92.6l-1.1,0.8L9.2,93
		l1-3.1l1.4,0.2L11.5,92.6z M11.5,88.9l-0.7-0.1l0.7-0.3L11.5,88.9z M11.6,87.1l-0.6,0.3l0.6-2.1L11.6,87.1z M11.6,80.9l-0.2,0.5
		l-3.1-4.6l3,0.2l0.3,0.6L11.6,80.9z M11.7,74.8L11,73.3l0.7-0.8L11.7,74.8z M11.7,70.7l-1.3,1.4l-1.7-3.5l1.7-0.3l1.3,1.5
		L11.7,70.7z M11.8,66.8L10.9,67l-3.2-3.8l4.1,0.2L11.8,66.8z M11.8,62.1l-5.3-0.2l-2.2-2.5l-0.5-8.2l8,8L11.8,62.1z M11.8,57.4
		l-4.8-4.8l4.8,3.5L11.8,57.4z M11.9,54.6L5.6,50l5.7-1.3l0.6,0.2L11.9,54.6z M12.1,35.6L12,34.8l0.1,0.3L12.1,35.6z M46,21.2
		l-4.8-0.8l-1.9-4.7l5.9-1.5L46,21.2z M48,103.5l-3.9-1.1l1.1-1.1h4.6l0.3,0.7L48,103.5z M50.6,103.2l0.5,1.1l-1.5-0.4L50.6,103.2z
		 M42.5,103.9l0.5-0.5l3.6,1l-2.3,1.6L42.5,103.9z M45.9,109.7l-6.1,0.9l4.3-3L45.9,109.7z M43.4,101.3l-0.8,0.8l-2.2-0.6l-0.1-0.2
		H43.4z M40.9,100l6-2.3l-2.3,2.3H40.9z M46.4,100l2-2l0.8,2H46.4z M38.8,99.5L38.3,99l-0.1-1.4l1.6-2.8l7.8,1.3l0,0L38.8,99.5z
		 M22.3,96.5l-1-2.1l2.4-2.3l7.9,1.3l2.1,6.2L22.3,96.5z M22.5,100h-1.7l-0.4-2.7l0.4,0.1L22.5,100z M17.7,77.4l0.5,0l3.9,4.5
		l-3.6,1.7L17.7,77.4z M18.4,91.6l-0.3-0.4l0.2,0L18.4,91.6z M14,37l3.3,3.7l-1.9,0.3L14,37z M14.9,43.5l-1.2-0.9l0.8-0.1L14.9,43.5
		z M18.2,41.8l3,3.4l-3.1,0.7l-1.6-1.1l-0.8-2.5L18.2,41.8z M26,44.2l-1.9,0.4l0.9-2.9L26,44.2z M23.9,35.9l-2.6-6.1l5.6,1.1l-2,6.6
		L23.9,35.9z M26.5,45.3l2.9,7l-0.1,0.1L23.6,46l0-0.1L26.5,45.3z M42.4,26.7l1.2,3.1l-4.1-4.6L42.4,26.7z M41.7,21.8l2,0.3L42,22.5
		L41.7,21.8z M43.4,85.8l-1.2,2.1l-4.8-4.8l-0.2-4l0.2-0.2l3.1,0.2L43.4,85.8z M41.3,77.6l0.5,0.3l-0.3,0L41.3,77.6z M38,93.2
		L37.5,85l4,4l-2.4,4.4L38,93.2z M38.5,94.5l-0.4,0.7l0-0.8L38.5,94.5z M17.2,67l2.1-0.4l5,5l1.7,5.1l-7.1-0.5l-1.5-1.8L16.6,69
		L17.2,67z M16.2,65.9L16.2,65.9l-0.4-2.4l0.4,0l0.5,0.5L16.2,65.9z M18.2,63.8l0-0.1l0.3,0l-0.2,0.2L18.2,63.8z M25.4,52.8l2.2,1.6
		l-5.7,6l-1.3-4l1.4-4.6L25.4,52.8z M22.2,50.6L22.2,50.6l0.2,0.1L22.2,50.6z M22.6,49.2l0.5-1.8l4.1,4.6l-1.3-0.4L22.6,49.2z
		 M34.2,47.4l-1.3,1.4L30,44.6l4.1-0.9L34.2,47.4z M34.1,22.3l2.2,1.2l-2.1,0.4L34.1,22.3z M39.4,61.5l-3.3-2.4L36,55.8l0.4,0.1
		l3.8,5.4L39.4,61.5z M39.8,63.3l-0.9,0l-0.3-0.4l0.5-0.1L39.8,63.3z M37.7,61.8l-0.1,0l-0.2-0.3L37.7,61.8z M37.2,63.2L37.2,63.2
		L37.2,63.2L37.2,63.2z M36,80.2l0.1,1.5l-0.8-0.8L36,80.2z M34.4,80.1l-0.9-0.9l0.8-0.5l1.5,0.1L34.4,80.1z M32.2,77.2l-0.6,0
		L25.4,71l-1.7-5.2l1.2-0.2l10.8,7.9l0.1,2L32.2,77.2z M29.9,84.4l-0.8-2.3l3.4-2.3l1,1L29.9,84.4z M30.3,89.6l-1.8-2.1l0.8-0.8
		L30.3,89.6z M29.9,78.3l-1.8,0.9l-0.3-1L29.9,78.3z M27.3,76.9l-1.1-3.2l3.4,3.4L27.3,76.9z M31.5,78.9L31.5,78.9l-2.8,2l-0.2-0.6
		L31.5,78.9z M24.7,63.9l1.7,0.1l-1.2,0.2L24.7,63.9z M26.5,65.2l5.3-1l2.6,0.1l0.9,2.1l0.3,5.4L26.5,65.2z M35.3,43.4l1-0.2
		l0.5,0.2l0.4,1l-1.8,1.8L35.3,43.4z M35.2,41.3L35,39l1.1,2.7L35.2,41.3z M35.1,62.3l-0.1,0l-1.3-3.1l1.3,1.5L35.1,62.3z
		 M33.5,57.1l-1.3-1.5l-0.4-1.1l3,0.9l0.1,2.7L33.5,57.1z M31.1,53.1l-0.2-0.5l1.8-1.9l1.8,2.6l0,0.8L31.1,53.1z M33.6,49.8l0.7-0.7
		l0.1,1.9L33.6,49.8z M32,49.7l-1.6,1.7l-2.6-6.3l0.9-0.2L32,49.7z M31.4,57.2l2.2,5.4l-2,0.4l-8.8-0.4l-0.4-0.3l-0.2-0.7l6.3-6.5
		L31.4,57.2z M22.4,66l1,3l-2.6-2.6L22.4,66z M19.7,65.3l-0.5-0.5l1-1l1.4,0.1l0.3,1L19.7,65.3z M23.2,64.6l-0.1-0.3l0.3,0.2
		L23.2,64.6z M21.6,48.4l-2.1-1.5l2.7-0.6l0,0L21.6,48.4z M21.2,49.7L21,50.2l-2.9-0.8l-0.7-2l0.4-0.1L21.2,49.7z M20.7,51.4
		l-0.9,2.9l-1.2-3.5L20.7,51.4z M19.8,58.4l0.9,2.6l-1.4-1L19.8,58.4z M20.1,62.1l-0.4,0.4l-1.1,0l0.3-1.1L20.1,62.1z M26.4,78.1
		l0.6,1.6l-3.7,1.7L20,77.6L26.4,78.1z M27.4,80.9l0.3,0.8L25,83.4l-0.9-1L27.4,80.9z M28,82.9l0.8,2.5l-1.2,1.2l-1.8-2.1L28,82.9z
		 M30.7,92l-5.9-1l2.8-2.7L30.7,92z M30.3,85.7l4.1-3.9l1.8,1.8l0.5,9.3l-4.1-0.7l-0.2-0.2L30.3,85.7z M37.1,77.4l0-0.7l1.6-1.1
		l0.2,0.1L37.1,77.4z M39.6,76.8l0.4,1l-1.3-0.1L39.6,76.8z M37.1,99.6l0,0.4h-0.3L37.1,99.6z M37,74.4l0.4,0.3L37,74.9L37,74.4z
		 M36.9,72.8l-0.2-2.9l1.7,4.1L36.9,72.8z M36.8,94.3l0.2,3l0,0.1l-3-3.5L36.8,94.3z M36.3,98.5l-0.9,1.5h-0.2l-0.1,0l-1.6-4.7
		L36.3,98.5z M36.6,101.7l0.6,0.2l0.3,5.3l0,0l-1.7-5.2L36.6,101.7z M37.3,110.8l-0.4,0.3l-0.9,0.1l-0.5-0.3l1.4-1.4L37.3,110.8z
		 M36.5,112.8l1.3,0.7l0,0l-1.9-0.3L36.5,112.8z M39.6,73.5l-3.1-7.4l-0.1-1.7l1.9,0.1l5.5,6.2L39.6,73.5z M40,64.6l1.5,0.1l1.8,1.3
		l2.3,3.3L45,69.9L44.8,70L40,64.6z M40.8,62.5l0.2,0l0.2,0.3L40.8,62.5z M44.3,65.1l-0.2-0.3l1.5,0.1l0.7,1.7L44.3,65.1z
		 M45.1,60.4l-0.9-2.2l5,1.4L45.1,60.4z M44.3,61.8l0.7,1.7l-1.8-0.1l-0.9-1.2L44.3,61.8z M41.5,61.1l-3.2-4.6l4.4,1.3l1.2,2.9
		L41.5,61.1z M37.2,54.9l-1.4-1.9l-0.3-5.1l2.2-2.3L42,56.3L37.2,54.9z M37.4,41.6l-1.2-3l7.8-1.4l-3.6,3.7L37.4,41.6z M38.9,42.6
		l-0.2,0.2l-0.2-0.1L38.9,42.6z M35.7,37.4l-0.9-2.2l-0.2-2.9l10.7,2l0.5,1.1l-0.3,0.3L35.7,37.4z M34.6,31l-0.3-5.8l3-0.5l7.3,8.3
		L34.6,31z M40,24.1l1.2-0.2l0.4,1.1L40,24.1z M38.3,23.1l-1.2-0.6l-1.5-1.7l4,0.6l0.9,1.3L38.3,23.1z M38.6,20l-4.2-0.7L34,18.9
		l-0.1-1.8l2.3-0.6L38.6,20z M37.4,16.3l0.7-0.2l1,2.6L37.4,16.3z M33.9,40.9l-3.3-1.3l3.2-0.6L33.9,40.9z M34,42.2l0,0.2l-4.8,1.1
		L27,40.3l1.3-0.2L34,42.2z M27.9,43.7l-0.6,0.1l-1.1-2.6L27.9,43.7z M22.7,44.9L22.7,44.9l-3-3.3l4.2-0.8L22.7,44.9z M16.7,49
		l-2.8-0.8l2.3-0.5L16.7,49z M17.2,50.4l2,5.9l-0.9,2.9l-3.3-2.4l-1-7.3L17.2,50.4z M17.9,60.5l-0.6,1.9l-0.5,0l-1.3-1.3l-0.3-2.6
		L17.9,60.5z M15.8,72.7l-0.3-0.3l0.2-0.5L15.8,72.7z M15.3,68.8L15.3,68.8l-0.7,2.4l-0.8-0.9L15.3,68.8z M15.1,73.8l1,1.2l0.1,1.1
		l-1.8-0.1L15.1,73.8z M16.4,77.3l0.9,6.9l-0.9,0.4l-2.9-6l0.5-1.5L16.4,77.3z M17.1,88.8l-0.5,0.3l-1.6-2.3l0.8-0.4L17.1,88.8z
		 M17.1,85.8l0.5-0.2l0.2,1.7L17.1,85.8z M23,83l1,1.1l-4.9,3.3L18.7,85L23,83z M24.8,85.1l2,2.3l-3.5,3.4l-3.8-0.6l-0.2-1.3
		L24.8,85.1z M30.4,100H24l0,0L23,98L30.4,100z M34.2,101.3L34.2,101.3l-7.4,2.9l-1.9-2.9H34.2z M34.9,103.5l1.6,4.7l-2.1,2.1
		l-2.5-1.3L34.9,103.5z M33.6,112.8l1-0.1l-0.5,0.3L33.6,112.8L33.6,112.8z M34.4,114.3l3.5,0.5l0.2,3.1l-1.6,0.5l-2.6-3.8
		L34.4,114.3z M38.1,119.3l0.1,2l-1.1-1.6L38.1,119.3z M40.4,93.6l2-3.6l4.5,4.5l0.1,0.2L40.4,93.6z M43.1,88.8l0.9-1.5l1.7,4.1
		L43.1,88.8z M41.9,79.2l1.7,0.1l2.4,1.7l-1.9,3.4L41.9,79.2z M46,79.5l0.9,0.1L46.6,80L46,79.5z M44.1,78.1l-3.3-2.4l2.4-2.3l2.1-1
		l3.4,3.9l-1.2,2.1L44.1,78.1z M46.4,71.8l0.8-0.4l2.3,3.4l-0.2,0.3L46.4,71.8z M46.5,70.4L46.5,70.4L46.5,70.4L46.5,70.4z
		 M46.5,68.3l0.1,0.1l0,0L46.5,68.3z M46.9,64.9l3.2,0.1l-2.3,2.2L46.9,64.9z M49.6,77.3l1.2,1.3l-1.8-0.1L49.6,77.3z M50.3,73.4
		l-1.2-2.9l0.2-0.1l1.8,1.3l0,0L50.3,73.4z M50.7,69.8l0.3-0.2l0,0.4L50.7,69.8z M49.5,68.9l-0.4-0.3l1.7-1.1l0.1,0.8L49.5,68.9z
		 M46.4,63.6l-0.8-2l4.5-0.9l0.3,3.1L46.4,63.6z M49.9,58.5l-6.3-1.8l-4.9-12.1l0.4-0.4l9.7,3.7L49.9,58.5z M49.8,45.3l0.8,1.9
		L49.9,47L49.8,45.3z M49,37.8l0.9,1L49.1,39L49,37.8z M48.7,35.1l0-0.2l0.6,0.1l0,0L48.7,35.1z M48.8,32.2l-0.5-0.7l-0.2-1.6l2,1.1
		L48.8,32.2z M48.6,46.5L40,43.2l1.1-1.1l6.7-1.5l0.2,0.5L48.6,46.5z M42.7,40.4l3.5-3.6l0.2,0l1,2.6L42.7,40.4z M46.6,33.2L46,32.6
		l-1.9-4.9l3,4.2l0.1,1.4L46.6,33.2z M46.5,29l0.3,0.2l0,0.3L46.5,29z M44.9,26.7l-2.2-3.1l3.5-0.6l0.5,4.6L44.9,26.7z M44.7,8.6
		l0.5,4.5l-6.3,1.6L36.2,8L44.7,8.6z M35.1,8.6l2.5,6.4l-1,0.3l-2.5-3.5L35.1,8.6z M33.7,13.2l1.6,2.3l-1.5,0.4l-0.1-2.6L33.7,13.2z
		 M33.6,35.5l0.1,2.3l-5.3,1l-2.3-0.9l2.1-6.8l3.9,0.7L33.6,35.5z M33.3,30.7L33,30.7l-2-5l2.1-0.4L33.3,30.7z M32,18.6l0.4,0.4
		L31.9,19L32,18.6z M32.9,21.6l0.1,2.4l-2.5,0.4l-0.2-0.4l1-3.3L32.9,21.6z M30.9,17.9l-0.3,0.9l-0.8-0.1l-0.6-0.3L30.9,17.9z
		 M28.6,19.7l0.9,0.2l0.7,0.4l-0.6,2L28.6,19.7z M29.8,26l1.8,4.4l-3-0.6L29.8,26z M28.4,26.2l-1.1,3.4l-6.6-1.2l-0.3-0.8L28.4,26.2
		z M19.9,29.5l0.7,1.6l-1.2-1.7L19.9,29.5z M19.2,27.8l0.1,0.3l-0.8-0.2L19.2,27.8z M13.4,28.9l1.7-0.3l2.6,0.5l5.2,7.5l0.1,0.1
		L13.3,33L13.4,28.9z M13.3,34.3l10.2,3.9l0.5,1.3l-5.4,1L13.3,34.3L13.3,34.3z M13.3,38.8l0.8,2.5l-0.9,0.2L13.3,38.8z M13.2,43.9
		l2.3,1.7l0.3,0.9l-2.2,0.5l-0.4-2.7L13.2,43.9z M13.1,53l0.4,2.8l-0.4-0.3L13.1,53z M13.1,57l0.7,0.5l0.3,2.1l-1-1L13.1,57z
		 M13.1,60.4l1.2,1.3l0.1,0.6l-1.3-0.1L13.1,60.4z M13,63.4l1.5,0.1l0.4,2.7L13,66.6L13,63.4z M13,67.8l1.9-0.4L13,69.4l0,0L13,67.8
		z M13,71.3l1.2,1.4l-1,3.2l-0.2,0L13,71.3z M12.9,81.1l0.2-0.6l2.3,4.8l-1,0.5l-1.5-2.3L12.9,81.1z M12.8,85.6l0.4,0.6l-0.4,0.2
		L12.8,85.6z M12.8,87.9l1.2-0.5l1.5,2.2l-2.6-0.4L12.8,87.9z M12.8,90.3l1.6,0.3l-1.7,1.1L12.8,90.3z M12.8,93.3l3.5-2.3l0.2,0
		l2.4,3.5l0.1,0.6l-0.5,0.5L12.7,94L12.8,93.3z M13.9,99.8l-1.2-0.6l0-3.9l4.6,1.2L13.9,99.8z M18.7,96.9l0.4,0.1l0.4,3h-4.1
		L18.7,96.9z M16.8,101.3h2.9l0.2,1.6L16.8,101.3z M19.8,91.5l2.3,0.4l-1.4,1.4L19.8,91.5z M14.8,110.1l5.7-2.2l0.4,3.1L14.8,110.1z
		 M21.2,103.5l-0.3-2.3h2.3l1.8,3.6l-0.7,0.3L21.2,103.5z M21.4,105.1l1.3,0.7l-1.2,0.4L21.4,105.1z M22.5,113.2l-0.1-0.7l2.4,0.4
		L22.5,113.2z M22.3,111.2l-0.5-3.8l2.5-1l2.1,1.1l2.3,4.6L22.3,111.2z M28.1,108.5L28.1,108.5l1.4,2l-0.2,0.4L28.1,108.5z
		 M26.9,117.8l2.4-4.2l0.6,1.2L26.9,117.8z M30.1,112.1l0.2-0.4l0.2,0.4L30.1,112.1z M29.1,107.6l-1.6-2.4l6.4-2.5l-3.2,5.7
		L29.1,107.6z M30.8,113.9l-0.1-0.1l0.2,0L30.8,113.9z M31.2,110.1l2.2,1.2l-0.4,0.4l-1.1,0.2l-0.9-1.4L31.2,110.1z M32.1,114.4
		l-0.2,0.1L32.1,114.4L32.1,114.4z M31.8,116.1l1-0.7l2.4,3.5l-1.7,0.6L31.8,116.1z M37.6,127.9l-0.1-0.1l0.3-0.2L37.6,127.9z
		 M37,126.6l-0.4-0.9l1.5,0.2L37,126.6z M35.9,124.4l-1.9-3.8l1.9-0.6l2.5,3.7l0.1,1L35.9,124.4z M38.5,102.2l1.2,0.3l1.1,1.3
		l-2.1,2.2L38.5,102.2z M38.8,107.6l2.9-2.9l1.6,1.9l-4.4,3L38.8,107.6z M46.8,110.8l1.4,1.7l-1.6,2.4l-4.9-0.7l-2.3-1.2l-0.3-0.9
		L46.8,110.8z M49,111.4l-0.7-0.8l1.4-0.2L49,111.4z M49.6,114.1l-1.3,0.4l0.7-1.1L49.6,114.1z M50.9,116.7l-1.7,1.2l-2.3-1.2
		l0.4-0.5l0.1,0L50.9,116.7z M49.9,115.3l0.6-0.2l0.3,0.3L49.9,115.3z M44.7,117.1l0.3,0.2l-2.8,4.1l-1-3L44.7,117.1z M40.8,117.1
		l-0.6-1.9l1.2,0.2l1.8,0.9L40.8,117.1z M46.1,117.8l1.9,1l-5.1,3.6L46.1,117.8z M39.2,116.4l0.4,1.1l-0.3,0.1L39.2,116.4z
		 M40.2,124.2l-0.6-0.9l-0.2-4.4l0.6-0.2l1.3,3.9L40.2,124.2z M42,124.6l0.2,0.5l-0.7-0.1L42,124.6z M41.7,126.3l0.9,0.1l0.8,2.5
		L41.7,126.3z M45.7,131.6l-1.7-5.1l5.1,0.5L45.7,131.6z M50.9,124.5l-1,1.4l-6.4-0.7l-0.5-1.4l6.2-4.4l1.7,0.9L50.9,124.5z
		 M51,118.9l-0.6-0.3l0.6-0.4L51,118.9z M51,113.6l-0.1,0l-1.1-1.3l1.2-1.8L51,113.6z M51.1,108.4l-0.4,0.6l-3.4,0.5l-2.2-2.6
		l3.1-2.1l2.9,0.8L51.1,108.4z M51.1,101.3L51.1,101.3L51.1,101.3L51.1,101.3z M51.2,100h-0.5l-1.2-3l0.1-0.1l1.7,1.7L51.2,100z
		 M51.2,96.9l-0.4-0.4l0.4,0.1L51.2,96.9z M51.2,93.4l-1.7,1.7l-0.2,0L48,93.7l-3.2-7.8l2.3-4.1l4.2,3.1L51.2,93.4z M51.3,83.4
		l-3.6-2.7l0.6-1l3.1,0.2L51.3,83.4z M51.4,75.3L51,74.7l0.4-0.7L51.4,75.3z M51.5,62.1l-0.2-1.6l0.2,0L51.5,62.1z M51.5,59
		l-0.4-0.1l-1.1-10.5l1.1,0.4l0.5,1.2L51.5,59z M51.6,46.7l-2.4-5.9l-0.1-0.5l1.6-0.4l0.9,1L51.6,46.7z M51.7,38.4l-0.5,0.1l-2-2.2
		l0.8-0.1L51.7,38.4L51.7,38.4z M51.7,36.2l-0.3-0.4l0.3,0L51.7,36.2z M51.7,34.2L50,33.9l-0.4-0.6l1.7-1.7l0.5,0.3L51.7,34.2z
		 M51.8,29.2L51,30l-3-1.6l-0.6-5.6l0.1,0l4.3,0.7L51.8,29.2z M51.8,22.2l-0.6-0.1l0.6-0.1L51.8,22.2z M51.9,20.7l-4.4,0.8l-0.2,0
		L46.5,14l5.4-1.4L51.9,20.7z M51.9,11.4l-5.6,1.4l-0.4-4.1l6,0.4L51.9,11.4z M99.3,117.3l-2.3-0.6l-0.7-2.7l0.1-0.2l3.4-2.6
		L99.3,117.3z M93.6,103.7l0.5-0.1l0.7,0.1l4.4,3.2l-3.4,5.3L93.6,103.7z M95.4,115.6l-0.1-0.1l0.1-0.1L95.4,115.6z M87.9,118.7
		l-3.3-3.7l0.2-0.3l6.1,1.7L87.9,118.7z M88.3,121l-1.2-0.2l0.6-0.5L88.3,121z M82.7,120.2l-0.3-0.4l0.3-1.9l0.7-1.1l1,3.6
		L82.7,120.2z M83.9,121.6l-0.1,0.1l-0.1-0.1L83.9,121.6z M77.6,123.5l-3.3-3.3l4.9,0.7L77.6,123.5z M78.3,125.9l-1.4,1l0.9-1.5
		L78.3,125.9z M72.9,118.7l-2.1-2.1l-0.2-1.4l2.1-3.8l3,0.8l1.7,2.4l2,5.1L72.9,118.7z M58.3,116.6l1.7-2.4l-0.7,2.5L58.3,116.6z
		 M59,118l-0.4,1.4l-0.6-1.5L59,118z M60.3,118.1l6.8,1l-3.4,6.3l-3.1-1.6l-1.1-2.7L60.3,118.1z M55.2,118.7l-1.3-1.5l2.1,0.3l0,0.1
		L55.2,118.7z M56,121.5L55,121l0.2-0.3L56,121.5z M55.6,61.5l0.7,0.2l0.2,0.5l-2.6,1.8l-0.8,0L55.6,61.5z M54.5,59.9l0.9-0.2l0,0.1
		l-0.3,0.3L54.5,59.9z M59,46.4l-5.2-7.2l4-0.9L59,46.4z M58.8,36.8L58.8,36.8L58.8,36.8L58.8,36.8z M58.3,33.4l-1.2-7.9l0.9-1
		l0.2,0l2.3,8.5L58.3,33.4z M57.3,35.2L56.2,35l1-0.2L57.3,35.2z M84.8,16l1.6,3.9l-1.3,4.5l-2.8-5.6l1.4-2.6L84.8,16z M84.2,11.3
		l0.9,0.1l-0.2,0.3l-0.7-0.2L84.2,11.3z M116.3,56.4l-2.9,2l-4.6-8.9l4.4-0.8L116.3,56.4z M113.9,47.1l0.2,0L113.9,47.1L113.9,47.1z
		 M122.9,48.8l-0.2,3.1l-5.3,3.7l-2.9-7.3l3.1-0.6L122.9,48.8z M120.9,47.1l2.2-0.4l-0.1,0.8L120.9,47.1z M122.1,79.3l0.1-1.4
		l0.9,1.7L122.1,79.3z M123.9,81.2l1.5,2.8l-3.6-0.3l0.2-3.1L123.9,81.2z M121.7,66.3L121.7,66.3l-2.2-5.4l2.9-4.5L121.7,66.3z
		 M117,83.4l-0.7-1l1.8-2.9l2.6,0.8l-0.2,3.4L117,83.4z M120.4,84.9l-0.2,2.9l-2.3-3.1L120.4,84.9z M101.1,95.1l-0.2-0.2l-1-3.6
		l1.7-2.7L101.1,95.1z M101.3,108.5L101.3,108.5L101.3,108.5L101.3,108.5z M98.6,101.7l-0.3-0.4h2.3l0,0.1L98.6,101.7z M99,104.4
		l1,1.4l-0.1,0.1l-2.4-1.7L99,104.4z M97.4,100l-0.3-0.4l3.5-1.2l0.2,0.6l-0.1,1H97.4z M81.6,105.5l1.6-0.2l-0.2,1.3L81.6,105.5z
		 M82.9,108l-0.2,1.4l-0.5-2L82.9,108z M81.1,103.6l-0.6-2.2l3.2,0.5l-0.1,0.9L81.1,103.6z M80.1,100l-0.4-1.6l0.6-1.1l3-2.1
		l1.3,0.9L84,100H80.1z M65.8,111.6l-0.6-1.4l1.4-0.5l1.9,0.5l0.7,4.7l0,0.1L65.8,111.6z M68.6,116.2l-0.5,1l-1-2.5L68.6,116.2z
		 M55.4,100l0-0.2l3-2l-1.5,2.2H55.4z M56,101.3l-0.2,0.3l-0.2-0.2l0-0.1H56z M61.2,52.7l0.6,0.2l-0.4,0.8L61.2,52.7z M61.3,61.8
		l-1.5-0.4l1.3-0.9L61.3,61.8z M61.8,55.5l1.3-1.2l1.6,2.3l-0.2,0.2l-2.6,0.5l-0.2-1.5L61.8,55.5z M59.6,24.7l4.8,0.8l3.8,6.1
		l-6.4,1.1L59.6,24.7z M61.3,35.5l-1.9-1l1.5-0.3L61.3,35.5z M77.6,31.2l0.7,0.6l0.4,0.6l-3.3,0.7L75,31.9l0.1-0.2L77.6,31.2z
		 M75.9,30.2l0.2-0.4l0.3,0.3L75.9,30.2z M81.6,20.1l3.1,6.1l-0.4,1.3l-2.1-0.3l-1.5-5.5L81.6,20.1z M81.3,16.7l0.9-0.2l-0.5,0.9
		L81.3,16.7z M87.2,21.7l2.3,5.4L88.6,28L88.1,28l-1.2-0.2L86,26L87.2,21.7z M87,18l-0.9-2.1l1.6-0.3L87,18z M97.7,30.9l1.3,2.4
		l-4.3,2.9l-0.3-0.6l0.7-5.2L97.7,30.9z M95.4,28.6l0.1-0.6l0.7-0.1l0.3,0.5L95.4,28.6z M105.3,45.5l-0.3,3.4l-4.6,0.9L99.2,47
		l0.8-0.8l2.6-1.2L105.3,45.5z M104.5,44.1L104.5,44.1L104.5,44.1L104.5,44.1z M106,27.5l0.8-0.2l0,0.1l-0.5,0.8L106,27.5z
		 M106,30.9L106,30.9L106,30.9L106,30.9z M106.8,43l2.1-1l-1.4,2.6l-0.8-0.1L106.8,43z M108.7,44.9l1.7-3.1l0.6,1.4l-1.4,1.9
		L108.7,44.9z M108.8,46.1l-1,1.3l-0.2-0.4l0.6-1L108.8,46.1z M106.9,48.6l-0.2,0l0.1-0.2L106.9,48.6z M107.6,49.8l4.8,9.2l-1.3,0.9
		l-5.3-4.9L106,52L107.6,49.8z M95,96.6l-4.6-6.5l3-2.1l4.2,4.7L95,96.6z M95.1,99L94.9,99l0.1-0.2L95.1,99z M85.3,100l0.4-3l4.1,3
		H85.3z M88.2,101.3l-0.2,0.1l-0.5-0.1H88.2z M85.4,102.2l-0.5,0.2l0-0.2L85.4,102.2z M85.1,92.4l-1.8,1.3l-0.7-0.5l3.3-6.1
		L85.1,92.4z M84.8,94.1l-0.1,0.7l-0.4-0.3L84.8,94.1z M81.5,92.4L78,89.9l4.4-6l1.4-0.6l1.5,2L81.5,92.4z M82.2,94.4l-0.6,0.4
		l0.3-0.6L82.2,94.4z M75.4,99.3l-2.9-0.5l-0.1-0.1L72,98l4.6-6.2l1.5,5.5L75.4,99.3z M77.9,99l-0.3,0.6l-0.4-0.1L77.9,99z
		 M69.2,106.1l-0.1-0.8l1.2-0.8l0.9,1.3L69.2,106.1z M70.3,107.2l-0.8,0.3l0-0.1L70.3,107.2z M59.3,95.6l-1-2.4l2.8-1.1l0.7,0.5
		l-1.5,2.2L59.3,95.6z M59.8,100h-1.4l0.9-1.3L59.8,100z M104.5,69.3l1.1,0.4l2.1,2.9l-3.6,1.4L104.5,69.3z M104.5,54l0.1-0.1
		L104.5,54L104.5,54z M104.8,66.1l0-0.2l0.1,0.2L104.8,66.1z M114.9,65.7l-0.5,0.8l-7.1-0.3l-0.7-1.6l2.7-1.9L114.9,65.7z
		 M110.5,61.9l0.5-0.3l1.6,1.5L110.5,61.9z M117,67.9l0.5,1l-4.3,1.7l1.8-2.8L117,67.9z M115.8,66.6l0.2-0.3l0.2,0.1l0.1,0.2
		L115.8,66.6z M114.6,71.4l-0.4,0.3l-0.2-0.1L114.6,71.4z M111.7,70.7l-2.9-1.1l-0.9-2.1l5.7,0.2L111.7,70.7z M112.9,72.6l-1.8,1.3
		l0.9-1.5l0.1-0.1L112.9,72.6z M110.5,71.6l-0.8,0.3l-0.3-0.7L110.5,71.6z M87.6,74.8l-1.1,1.4l-1.6-6.4l3.3,0.9L87.6,74.8z
		 M88,86.9l-0.7-1l0.2-1.1L88,86.9z M87.1,78l-0.1,0.4L87,78.1L87.1,78z M72.9,73.4l2.3-2.3l0.8,1.1l-2.4,3.5L72.9,73.4z M73.4,80.2
		l-1.4-0.1l1-1.4L73.4,80.2z M99.7,61.5l3,4.2l-0.4,0.3l-3.4-0.1l-1.3-0.5L99.7,61.5z M99.3,58.9l-1.8-2.5l2.6,1.4L99.3,58.9z
		 M102.2,54.2l-0.4-0.9l0.6,0.5L102.2,54.2z M102.3,57.5l-0.3-0.1l0.1-0.2L102.3,57.5z M103.8,63.7l-0.1,1.1l-3.3-4.6l0.9-1.6
		L103.8,63.7z M102.9,59.3l0.2,0.1l0.6,1.5L102.9,59.3z M98.7,67.1l1.3,0.5l-5.5,3.8l0,0l0-0.2l2.3-4.2L98.7,67.1z M94,69.5
		l-0.2-0.9l1.3-1.7l0.4,0L94,69.5z M94.4,65.7l-1.5-0.1l-0.2-0.8l1.8,0.7L94.4,65.7z M93.5,66.9l-0.2,0.2l-0.1-0.2L93.5,66.9z
		 M92.9,74l0.8-0.6l1.2,4.3l-5.1,2L92.9,74z M92,73.1l-3.2,2.2l0,0l2.6-3.5l1.1,0.3L92,73.1z M76.3,66.1l2.1,0.1l-0.4,0.4L76.3,66.1
		z M77.4,70.1l-0.7,1l-0.7-0.9l0.8-0.8L77.4,70.1z M78.3,68l0.5,0.1L78.2,69l-0.4-0.5L78.3,68z M75.2,64.8l1.7-6.1l4.2,1.6l0.6,2.4
		L79.5,65L75.2,64.8z M76,68.5l-0.7,0.7l-1-1.4l0.2-0.9l0.1,0L76,68.5z M79.9,55.8l0.8,3l-3.5-1.3l0.1-0.5L79.9,55.8z M77.8,55.5
		L77.8,55.5l0.2-0.1L77.8,55.5z M78.9,51.6l0.6,2.2l-1.2,0.2L78.9,51.6z M78.8,46.3l0.2,0.1L79,46.6L78.8,46.3z M90.5,54l-0.7,0.7
		l-0.1-0.2l0.9-1.3L90.5,54z M90.8,62.7l-0.2-0.1l0.1-0.5L90.8,62.7z M85.9,57.8l-2.2-3.6l4.5-0.9l0.2,0.8L85.9,57.8z M86.4,61
		l-0.8-0.3l0.4-0.4L86.4,61z M82.8,61.8l-0.2-0.9l0.8,0.3L82.8,61.8z M83.1,68.1l-2.3-0.7l0.7-1.1l1.1,0L83.1,68.1z M82.2,59.4
		l-1.1-4.1l1.4-0.6l2.7,4.3l-0.9,1.3L82.2,59.4z M87.3,52.3l0.6-0.3l0,0.2L87.3,52.3z M89.2,57l0.6,2.1l-0.4,3l-1-0.4l-1.5-2.4
		L89.2,57z M89.1,51.9l0.2,0.1l-0.1,0L89.1,51.9z M89.4,71.2l0.7,0.2l-1,1.3L89.4,71.2z M89.5,70l0.4-3.1l1.6,2.6l-0.7,0.9L89.5,70z
		 M90.2,56L90.2,56L90.2,56L90.2,56z M88.7,50.2L88.7,50.2l-1.9-6.5l4,5.5L88.7,50.2z M82.9,53l-3.1-4.9l0.1-0.4l0.6-0.4l6.7,3.6
		L82.9,53z M81.7,53.4l-1,0.2l-0.8-3.2L81.7,53.4z M80.1,66.3l-0.5,0.8L79.3,67L80.1,66.3L80.1,66.3z M80.1,68.5l3.4,1l2,7.9L79,70
		L80.1,68.5z M84,66.5l4.8,0.2l-0.4,2.9l-3.8-1.1L84,66.5z M83.7,65.2l-0.4-1.4l1.4-2.1l2.8,1.1l1.5,2.4l0,0.3L83.7,65.2z
		 M92.2,70.7l0.1-0.2l0.1,0.2L92.2,70.7z M91.4,66.8l0.5,0l0.4,1.4L91.4,66.8z M90.6,65.5l-0.4-0.6l0.1-1l0.8,0.3l0.4,1.3L90.6,65.5
		z M90.5,51.2L90.1,51l0.8-0.4L90.5,51.2z M87.6,42.5l0.4-0.3l2.2,0.4l1.7,1.6l-0.5,3.6L87.6,42.5z M87.7,40.9l-1.5-0.3l-0.3-0.4
		l-0.6-2l2.7,2.5L87.7,40.9z M85.6,43.9l1.5,5.5l-5.4-2.9L85.6,43.9z M80.5,45.8L80.5,45.8l1.3-4.7l3.2,0.6l0.3,0.9L80.5,45.8z
		 M80.9,39.7l-2.2-0.4l2.9-2.8l0.1,0.2L80.9,39.7z M80.6,40.9l-1.2,4.3l-1-0.6l-1.1-4.1l0.3-0.3L80.6,40.9z M78.2,49.2l-1.4,5.1
		l-5.3,1l-1.8-0.7l8.4-5.7L78.2,49.2z M76.4,55.7l-0.1,0.5l-1.1,0.5l-1.4-0.5L76.4,55.7z M75.2,58.1l0.5,0.2L74,64.3l-3.5-4
		L75.2,58.1z M73.9,69.4l0.5,0.7l-1,1L73.9,69.4z M76.7,73.3l4.9,6.9l-0.8,0.5l-6.1-0.4L74,77.4L76.7,73.3z M75.1,81.6l4.1,0.3
		l-3.4,2.4L75.1,81.6z M75.6,88l-1.3-1l1-0.4L75.6,88z M78,84.2l3.2-2.2l1,0.1l-0.5,0.7L78,84.2z M80.3,84.7L77.1,89l-0.8-2.8
		L80.3,84.7z M77.5,72.2l0.8-1.2l6.3,7.1l-1.9,1.3L77.5,72.2z M85.7,79.5l0.5,0.6l0.2,0.9L86,81.1L84.6,81L85.7,79.5z M88.5,77
		l2.1-1.5l-2.6,4.7l0,0L88.5,77z M95.2,78.9l0.8,3l-7-0.5l0,0L95.2,78.9z M95.8,76.3l0.5,0.9l-0.3,0.1L95.8,76.3z M96.4,83.1l0.3,1
		l-3.2,2.3l-3.3-3.7L96.4,83.1z M97,85.4l1.5,5.6l-0.4,0.7l-3.8-4.3L97,85.4z M97.8,83.4l0-0.1l0.2,0L97.8,83.4z M97.4,82l-1-3.5
		l0.6-0.2l2.4,3.9L97.4,82z M95.2,72.9l6.9,2l-4.6,1.8L95.2,72.9z M96.1,71.8l5.4-3.7l1.9,0.7l-0.4,4.9L96.1,71.8z M102.7,67.3
		L102.7,67.3l0.8,0l0,0.3L102.7,67.3z M103.6,80.7l3-2.1l-2.5,3.8l-0.7,0L103.6,80.7z M103.7,79.1l0.3-3.6l0.1,0l3.4,1L103.7,79.1z
		 M106,74.7l2.5-1l0.6,0.9l-0.5,0.8L106,74.7z M106.1,63.4l-0.9-2.1l0.1-0.7l2.8,1.5L106.1,63.4z M105.9,68l-0.5-0.7l0.1,0L105.9,68
		z M104.2,58.5l-0.2-0.1l-1-2.4l0.7-1l0.7,0.6L104.2,58.5z M103.1,52.7l-1.9-1.8l3.2-0.6L103.1,52.7z M101.5,55.6l-0.2,0.4l-2.4-4.7
		l0.7-0.1l0.1,0.1L101.5,55.6z M98.1,48.2l0.2-0.2l0.2,0.6L98.1,48.2z M98.4,50.2l-0.2,0l-0.2-0.3L98.4,50.2z M98,44.1l2,0.4
		l-0.7,0.7l-0.7,0.3L98,44.1z M100,56.3l-4.1-2.2l-1.3-1.9l3.1-0.6L100,56.3z M94.9,47l0.2,0.2l-0.6,0.3L94.9,47z M94.9,43.5
		l0.7,0.1l-0.4,0.6L94.9,43.5z M95.9,48.2l0.1,0.3l-2.4,2.4l-0.7-1l0.3-0.4L95.9,48.2z M96.6,49.7l0.4,0.8l-1.5,0.3L96.6,49.7z
		 M96.4,46.6l-0.5-1l0.8-1.2l0.7,1.7L96.4,46.6z M94.2,42.1l-0.6-1.1l0.4-2.9l0.1,0l1.8,4.4L94.2,42.1z M94.1,28.9L93.9,29l-2-0.3
		l2.3-0.4L94.1,28.9z M93.9,30.2L93.9,30.2l-0.4,3.1l-1.2-2.8L93.9,30.2z M93.3,43.3L93.3,43.3l0.6,1.1l-0.7-0.6L93.3,43.3z
		 M94,46.1L92.6,48l0.4-2.8L94,46.1z M92.7,39.1L92.7,39.1L92.7,39.1L92.7,39.1z M95,55l3.5,4.9l-3.3,4.5l-3-1.2l-1.2-4.2l0.6-4.5
		l0.8-0.8L95,55z M92.2,51.4l0-0.2l0.1,0.2L92.2,51.4z M92.3,41.8l-1.5-0.3l-0.7-0.7l1.5-1l0.7,1.5L92.3,41.8z M89.1,40l-4.4-4
		l-0.6-2l2.1-2l1.2-0.3l3.6,7L89.1,40z M84.4,40.3l-2.2-0.4l0.5-1.9L84.4,40.3z M83.2,36.3l0.5,0.4l0.2,0.7l-0.7-0.9L83.2,36.3z
		 M83.1,30.2l0.4-0.1L83.3,31L83.1,30.2z M83.9,28.8L82.8,29l-0.2-0.6l1.4,0.2L83.9,28.8z M82.7,33.3l-0.1,0.5l-0.1,0.1l-1-0.9
		l1.1-0.2L82.7,33.3z M80.3,32l-1.1-1l0,0l2.7-0.5l0.3,1.1L80.3,32z M79.5,33.5l1.4,1.9L77.2,39l-0.3-0.1l-1.2-4.6L79.5,33.5z
		 M76.5,42.7L76,41.8l0.2-0.2L76.5,42.7z M75.8,40l0.1,0.2l-0.6,0.5l-0.6-1L75.8,40z M75.3,43L75,42.8l0.1-0.1L75.3,43z M76.6,45.1
		l1,1.6l0.2,0.9l-9.5,6.4l-0.8-0.3l-0.8-3l7.3-7L76.6,45.1z M69.2,55.8L68.1,56l-0.1-0.2l0.4-0.3L69.2,55.8z M73.8,42.2l-3.5-1.9
		l0.7-1.3l2.1,0.4l1.3,2.2L73.8,42.2z M71.6,37.9l0.2-0.4l0.3,0.5L71.6,37.9z M71.2,34l-0.9-1.5l3.3-0.6l-1,1.8L71.2,34z M70.6,35.5
		l0.5,0.8l-0.8,1.4l-5.2-1L70.6,35.5z M69.7,38.8l-0.5,0.9l-2.9-1.6L69.7,38.8z M69.7,41.4l3.2,1.7l-6.5,6.3L66,48L69.7,41.4z
		 M66.6,55.2l-0.4,0.3l-1.2-1.3l1.4,0.6L66.6,55.2z M66.1,53.2l-1.4-0.5l1-0.9L66.1,53.2z M65.6,57.7l1.9,2.6l-4.2,2l-0.6-0.2
		l-0.4-2.5l2.7-1.8L65.6,57.7z M63.4,63.7l2.5,0.7L63,64.3l-0.1-0.4L63.4,63.7z M65.1,62.9l3.1-1.5l0.2,0.2L69,64L65.1,62.9z
		 M68.8,58.4l-0.3-1.2l3-0.6l2.2,0.8l-4,1.9L68.8,58.4z M72.7,64.7l-0.6,0l-2.5-3.5L72.7,64.7z M71,65.9l0.6,0.2l1.4,2l-0.8,2.8
		l-1.4-5L71,65.9z M72.6,77.1l-1.5,2.1l1-3.7L72.6,77.1z M71.2,81.3l2.5,0.2l1,3.5L73,86.2l-3.2-2.3l0.2-0.9L71.2,81.3z M67.9,106.1
		l0,0.2l-0.4,0.1L67.9,106.1z M66.3,105.8l1.3-1.8l0.1,0.8L66.3,105.8z M67.6,95.3l-0.3-2.1l0.5-1.8l0.2-0.2l2.4,6.2L67.6,95.3z
		 M67.5,86.7l0.4-0.5L67.7,87L67.5,86.7z M71.7,86.7l-2.9,1.1l0.8-2.7L71.7,86.7z M69.6,79.9l-3-0.2l4.3-4.3L69.6,79.9z M69.3,81.2
		l-0.4,1.3l-0.3,0.5l-2.7-2L69.3,81.2z M67.9,84L67,85.3l-1.1-2.8L67.9,84z M65.6,99l0.9,0.1l0.5,0.8l0,0.2h-1.7L65.6,99z M65.2,95
		l0.2,0.2l0,0.1L65.2,95z M66.6,88.7l-0.1-0.5l0.2-0.2l0.3,0.6L66.6,88.7z M66.9,89.9l0,0.2L66.9,89.9L66.9,89.9z M66.6,97.1
		l-0.3-0.4l0.1-0.4l0.1,0.1L66.6,97.1z M65.9,92.6L66,93l-0.2,0.7l-0.6-0.6L65.9,92.6z M64.4,92.1l-0.3-0.4l0.7-1l0.9-0.3l0.1,0.8
		L64.4,92.1z M64.9,96.9l-0.2,0.7l-4.2-0.7l0.7-1.1l2-1.4L64.9,96.9z M64.4,98.8L64,100h-2.9l-0.8-1.9L64.4,98.8z M63.7,101.3
		l-0.8,3l-1.2-3H63.7z M65,101.3h2.2l0.1,1l-3.4,4.7l-0.3-0.7L65,101.3z M65.3,108l2.8-0.4l0.1,0.4l-1.6,0.5l-1.4-0.4L65.3,108z
		 M68.2,99.4l1.1,0.2l0,0L69,100h-0.4L68.2,99.4z M68.8,102.4l0.7,1.1l-0.6,0.5l-0.2-1.4L68.8,102.4z M70.5,102.7l-1-1.4l0.1-0.1
		h1.2l0.7,0.8L70.5,102.7z M71.3,99.9l0.2,0l0,0.1h-0.1L71.3,99.9z M71.5,96.6L69,90.4l4-2.7l3.1,2.3l0.1,0.3L71.5,96.6z M77.7,91.2
		l3.2,2.4l-1.6,3l-0.1,0.1L77.7,91.2z M85.1,82.8l1.1-0.4l0.3,0l-0.2,1.1L86,84.1L85.1,82.8z M87,87.7l1.6,2.2l-2.1,1.5L87,87.7z
		 M88.2,82.7l0.1-0.2l0.2,0l4,4.6L89.8,89L88.2,82.7z M98.3,93.8l1.5,1.7l0.5,1.8l-4,1.3l-0.6-0.8L98.3,93.8z M99,92.7L99,92.7
		L99,92.7L99,92.7z M99.5,89.6l-1.4-5l1.7-1.2l0.4,0l1.6,2.6L99.5,89.6z M101.8,102.5l0.1,0.3l-0.1,0.2L101.8,102.5z M101.8,83.5
		l0.3,0l0,0.4L101.8,83.5z M101.5,82.3l0.8-0.6l-0.1,0.6L101.5,82.3z M100.5,81.4l-2.3-3.7l4.5-1.8l-0.3,4.1L100.5,81.4z M103,87.9
		l4.1,6.7l-0.3,0.5l-4.3,1.4l-0.1-0.2L103,87.9z M103.3,86l1.4-2.2l8.8,0.6l-5.7,9L103.3,86z M105.5,82.6l3.6-5.6l1.5,0.4l2.4,5.8
		L105.5,82.6z M112,76.4l-0.8-1.1l3.1-2.2l5.1,2l-1.9,3L112,76.4z M115.5,72.2l2.7-1.9l1.9,3.7l0,0L115.5,72.2z M117.1,65.5
		l-0.3-0.5l1.8-2.8l1.9,4.6l-1.1,0L117.1,65.5z M116.2,63.7l-2.2-4.2l2.8-1.9l1.3,3.2L116.2,63.7z M114.5,63.1l-2.4-2.2l0.9-0.7
		L114.5,63.1z M110,60.7l-0.8,0.5l-3.8-2.1l0.2-2.5L110,60.7z M105.6,42.2l-0.4,0.2l-0.4-0.9l1-1L105.6,42.2z M102.6,43.6l1.1-1.1
		l0.2,0.5L102.6,43.6z M101,43.4l-3.3-0.6l3.5-5.1l1.9,3.6L101,43.4z M100.6,33.7l2.8-1.9l0.4,0.1l-2.4,3.4L100.6,33.7z M100,32.6
		l-0.8-1.5l2.4,0.4L100,32.6z M99.6,34.4l1.1,2L97,41.7l-1.8-4.3L99.6,34.4z M94.4,26.9L91,27.5l0-0.1l3.3-3.2l0.4,0.7L94.4,26.9z
		 M91.1,30.9l2.1,4.9l-0.2,1.6L92.1,38l-3.3-6.6L91.1,30.9z M88.1,30.2L88.1,30.2l0.7-0.8l1.7,0.3l0,0L88.1,30.2z M86.4,29.6
		l0.2,0.3l-0.9,0.9L84.6,31l0.3-1.2L86.4,29.6z M80.3,19.9L79.5,17l0.5-0.1l0.9,1.9L80.3,19.9z M79.9,23.2l1,3.7l-2.8-0.5L79.9,23.2
		z M81.3,28.2l0.3,1l-3.2,0.6l-1.2-1.7l0.3-0.5L81.3,28.2z M74.6,30.1L74,27.9l1.2,1.1L74.6,30.1z M74.4,34.6l1,4l-1.6-0.3l-1.3-2.1
		l0.8-1.4L74.4,34.6z M73.4,25.7l-0.2-0.9l0.7,1L73.4,25.7z M73.4,30.7l-3.9,0.7l-3.5-5.6l6.3,1L73.4,30.7z M65.2,24.3L62.5,20
		l2.3-0.4l6.2,5.7L65.2,24.3z M61.8,18.8l-2.9-4.6l3.9,3.5L61.8,18.8z M60.5,19.1l-2.3,0.4l-2-7.4L60.5,19.1z M60.2,20.5l-1.4,1.4
		l-0.3-1.1L60.2,20.5z M61.6,20.8l2,3.2l-4.3-0.7l0-0.1L61.6,20.8z M68.9,32.8l1,1.6l-7.2,1.6l-0.5-2L68.9,32.8z M68.6,40.8
		l-3.1,5.5L63.2,38L68.6,40.8z M65.3,50.4l-1.4,1.4l1.2-2.2L65.3,50.4z M61.9,65.5l1.7,11.1l-4.3-10.9l0.6-0.3L61.9,65.5z
		 M63.1,65.6l6.4,0.3l2,7.2l-6.3,6.3L63.1,65.6z M64.3,82l0.9,5.9l-1.3,1.9l-1.2,0.5l-3.1-3.5L64.3,82L64.3,82z M59.9,89.6l-1.8-1.3
		l0.5-0.5L59.9,89.6z M60,91.3l-2.1,0.8l-1-2.6l0.3-0.3L60,91.3z M57.2,93.7l1.1,2.7l-0.2,0.1L55,96l-0.1-1.4L57.2,93.7z M56.6,97.5
		l-1.3,0.9l-0.1-1.2L56.6,97.5z M57.5,101.3h2.8l2,5l-0.3,1l0,0l-0.8-0.2l-4.6-4.6L57.5,101.3z M62.2,111.4l0.1-0.2l1-0.3l1.5,1.5
		l2.2,5.5l-6.4-0.9L62.2,111.4z M69.5,117.1L69.5,117.1l0.2,1.1l-0.8-0.1L69.5,117.1z M70,119.6l0.5,3.5l-1.5-3.7L70,119.6z
		 M70.3,113.2l-0.4-2.5l1.5,0.4L70.3,113.2z M69.7,109.3l-0.1-0.5l2.9-1l0.4,0.5l-0.9,1.6L69.7,109.3z M72.6,105.6l-1.3-1.9l1.1-0.8
		l0.6,0.7l0.7,1.8L72.6,105.6z M73.7,109.5l0.8,1.1l-1.2-0.3L73.7,109.5z M74.4,108.2l0.2-0.4l0.7,1.7L74.4,108.2z M75.1,104.2
		L74,103l-0.4-1l0.6-0.4l1.6,1.2L75.1,104.2z M75.8,101.3h0.9l-0.3,0.5L75.8,101.3z M76.9,103.6l1.4,1l-1,0.3l-1.2,0.2L76.9,103.6z
		 M77.5,102.5l0.7-1.2h1l0.8,2.8l-0.2,0.1L77.5,102.5z M84.5,105.1l5.5-0.8l-3.3,5.1l-2.6-1.9L84.5,105.1z M84.7,103.8L84.7,103.8
		l3.3-1.2l2,0.3L84.7,103.8z M85.9,95.6l0.4-2.5l2.8-2l2.2,8.5L85.9,95.6z M91.7,101.4L91.7,101.4l0.1,0.2l-0.2,0.4l-0.9-0.2
		L91.7,101.4z M90.9,93.1l3.4,4.7L93,99.7l-0.4,0.1L90.9,93.1z M96.8,101.3l0.4,0.6l-2.3,0.3l-1.3-1H96.8z M102,104.9l0.4,0.1
		l0.6,2.2l-0.3,0.2l-1.2-1.7L102,104.9z M102.4,100l-0.3-1.1l0.1-0.8l1.6,1.8l-0.1,0.1H102.4z M103.3,97.5l2.4-0.8l-1.3,2
		L103.3,97.5z M107.6,96.1L108,96l2.4,3.9l-1,0.1h-4l-0.2-0.2L107.6,96.1z M109.2,95.6l8-2.7l1.1,2.7l-5,3.8l-1.6,0.2L109.2,95.6z
		 M108.6,94.5l5.5-8.7l2.5,6L108.6,94.5z M114.4,81.8l0.4,0.6l-0.1,0.1L114.4,81.8z M113.2,78.1l3.7,1.1l-1.4,2.2L113.2,78.1z
		 M118.8,78.4l1.8-2.9l0.4,0.1l0,0.1l-0.2,3.2L118.8,78.4z M120.8,97.3l0.5,0.9l-0.4,0.1l-0.1-0.2L120.8,97.3z M121.3,72.1l-0.4,0.6
		l-1.6-3.2l0,0l0.3-0.1l1.8,1.6L121.3,72.1z M121.4,91.5l0.9,1.2l-1.1,0.9l0.1-2L121.4,91.5z M120.9,69l0.6,0.3l0,0.2L120.9,69z
		 M118.9,59.4l-1.1-2.6l4.7-3.3l0,0.2L118.9,59.4z M108.8,48.2l1.3-1.8l2.3,0.4l0.2,0.6L108.8,48.2z M110.9,45.3l0.6-0.8l0.4,1
		L110.9,45.3z M111.8,42l-0.5-1.2l2-1L111.8,42z M110.6,38.8l-0.9-2.3l3.2-3.3l0.6,0.1L110.6,38.8z M109.1,35.3l-1.1-2.8l3.4,0.5
		L109.1,35.3z M109.8,40.2l-2.9,1.4l0.2-2.4l1.6-1.6L109.8,40.2z M106.9,26l-1.4,0.3l-0.1-0.1L106.9,26L106.9,26z M106.4,32.3
		l-0.5,6.3l-1.8,1.8l-2-3.8l3.1-4.5L106.4,32.3z M103.1,30.5l-4.6-0.7l-0.2-0.5l6.4-1.4l0.5,1.2L103.1,30.5z M97.7,28.1l-0.2-0.5
		l6.7-1.2l0.1,0.2L97.7,28.1z M96.9,26.5L96,24.8l0.3-2.4l4.5-4.3l2.9,7.2L96.9,26.5z M96.1,14.9l-1.8-0.5l1.9-0.3L96.1,14.9z
		 M95.9,16.1l-0.8,5.6l-0.5,0.5L90.9,15l0.7-0.1L95.9,16.1z M93.7,23.1l-3.2,3.1l-2.7-6.4l1.3-4.5l0.6-0.1L93.7,23.1z M88.1,13.8
		L88,14.2l-2.5,0.4l-0.4-0.9l0.3-0.6L88.1,13.8z M86.2,12l0.3-0.5l1.2,0.1l0.6,1.1L86.2,12z M83,15.1l-2.3,0.4L78.4,11l4.9,1.4
		l0.5,1.2L83,15.1z M79.4,15.7l-0.2,0l-0.3-1.1L79.4,15.7z M79.4,21.5l-2.7,4.8L75.6,26l-3.3-4.6l-0.8-3l6.7-1.2L79.4,21.5z
		 M71.7,24.2l-5.3-4.8l2.5-0.5l2.2,3.1L71.7,24.2z M65.3,18.3l-0.7-0.6l2-2.1l1.5,2.1L65.3,18.3z M63.7,16.8l-6.1-5.6l5-1.2l3.3,4.6
		L63.7,16.8z M56.5,10.2l-0.6-0.9l3.3,0.2L56.5,10.2z M57,19.8l-0.7,0.1l-0.9-5.7L57,19.8z M57.3,21l0.5,1.9l-0.2,0.2L56.8,23
		l-0.3-1.9L57.3,21z M61.8,37.4l2.8,10.4l-2,3.6l-0.2-0.2l-1.8-2.5L59,38L61.8,37.4z M60.8,58.7l0.1,0.4l-1.9,1.3l0.9-1.5L60.8,58.7
		z M61.5,63.2L61.5,63.2l-2,1l-1,0L58,62.6l0.5-0.3L61.5,63.2z M57.4,60.7l-0.2-0.1L57,60.1l0.9-0.9l0.4-0.1L57.4,60.7z M57.2,64.1
		l-0.2,0l0.1-0.2L57.2,64.1z M57.1,65.3L56,65.9l0.3-0.6L57.1,65.3z M58.1,66.3l5,12.6l-10.2-7.5l2-3.6L58.1,66.3z M63.5,80.8
		l0.2,0.1l-4.9,4.9l-0.4-0.4l-3.7-5.3L63.5,80.8z M57.5,86.2l0.4,0.6L57,87.6l-1.4-1l-1.8-4.5L57.5,86.2z M54.6,87.3l0.8,1.9l-1,1
		l-0.3-3.3L54.6,87.3z M55.9,90.5l0.8,2.1l-2,0.8l-0.2-1.5L55.9,90.5z M54.9,106.6l0.2,1.7l-0.9,0.1l-0.6-1.4l0.5-0.7L54.9,106.6z
		 M55.2,109.5l0.2,1.9l-0.7-1.8L55.2,109.5z M55.5,115l0.3,0.8l0,0.5l-1.7-0.3L55.5,115z M55.8,103.7l0.1-0.2l2.9,2.9l-2.8-0.8
		L55.8,103.7z M56.2,107l2.8,0.7l-2.7,0.4L56.2,107z M56.2,119.9l-0.2-0.2l0.2-0.2L56.2,119.9z M61.1,108.6l0.4,0.4l0,0.1l-2.5,1.8
		l-2.3,0.8l-0.3-2.4L61.1,108.6z M64.1,127.1l0.7,0.4l-0.9-0.1L64.1,127.1z M64.7,126l3.2-5.9l3.3,8l-2.9-0.3L64.7,126z M75.5,106.8
		l0.1,0l4.8,5.5l-3.1-0.8L75.5,106.8z M77,106.3l0.6-0.2l2.3-0.4l0.6,0.5l1.6,5.9L77,106.3z M82.2,121.6l0.6,0.9l-0.8,0.6l0-0.1
		L82.2,121.6z M84.3,113.2l-0.6-0.2l-0.2-0.6l0.5-3.6l2.1,1.5L84.3,113.2z M84.7,117l2.1,2.4l-1.2,0.9L84.7,117z M85.3,124l-0.8-1.2
		l0.4-0.3L85.3,124z M85.5,113.6l1.6-2.5l5.5,4l-0.4,0.3L85.5,113.6z M87.8,110l3.9-6.1l0.7-0.1l2.5,9.5l-1.2,0.9L87.8,110z
		 M99.9,109.6l-1.6,1.2l1.7-2.7L99.9,109.6z M103.9,123.3l-3.9-0.6l0.2-2.1L103.9,123.3z M99.7,103.3l-0.3-0.4l1.1-0.2l-0.1,0.7
		L99.7,103.3z M110.3,120.2l-2.6-0.7l-1.3-4.8L110.3,120.2z M106.3,119.2l-5.9-1.6l0.6-7.4l1.3-1l0.2,0.1l1.7,2.4L106.3,119.2z
		 M104.1,106.4l-0.3-1.2l1.6,0.3L104.1,106.4z M106.8,104.4l-3.3-0.5l-0.2-0.8l0.6-0.9l1.7-0.3l1.8,2.1L106.8,104.4z M106.9,101.7
		l2.6-0.4h1.4l-2.6,1.9L106.9,101.7z M109.8,104.9l-0.7-0.7l2.7-2l2.1,3.4L109.8,104.9z M118.6,110.8l-2.2-3.5l2.4,0.4L118.6,110.8z
		 M118.9,106.4l-3.4-0.5l-2.8-4.5l0.2-0.1h6.3L118.9,106.4z M119.4,100h-1.6l1.6-0.2L119.4,100z M119.5,98.5l-3.5,0.5l2.9-2.2
		l0.6,1.5L119.5,98.5z M119.4,94.9l-0.9-2.1l1,2L119.4,94.9z M119.9,92.7l-0.3-0.6l0.3-0.1L119.9,92.7z M120,90.7l-1,0.3l-3.3-6.5
		l0.6,0l3.7,5.2L120,90.7z M123.2,107.1l-3-0.5l0.4-5.3h0.2L123.2,107.1z M121.6,100l-0.2-0.5l0.5-0.1l0.3,0.6H121.6z M127.5,100
		h-3.9l-0.4-0.8l3.3-0.5L127.5,100z M125.7,97.5l-3.1,0.5l-1.5-2.9l1.8-1.4L125.7,97.5z M123.2,92l-0.6-0.8l3.1-1L123.2,92z
		 M121.8,90.1l-0.5-0.7l0.3-4.4l4.3,0.3l1.5,2.9L121.8,90.1z M129.3,88.9L129.3,88.9l0.2-0.1l0.9,2.2L129.3,88.9z M130,86.8
		l-0.5-1.2l2,0.1L130,86.8z M133.7,84l-0.7,0.5l-4-0.3l-0.7-1.8L133.7,84z M128.1,85.4l0.9,2.1l-0.2,0.2l-0.1,0l-1.2-2.4L128.1,85.4
		z M126.7,82l0.9,2.2l-0.8-0.1l-1.3-2.5L126.7,82z M127.9,77l-2.2-0.8l-0.7-1.8L127.9,77z M126.1,80.5l-1.4-0.4l-2-3.8l2,0.8
		L126.1,80.5z M124.1,75.5l-1.7-0.7l0.2-2.3l0.2-0.3l0.1,0.1L124.1,75.5z M123.4,68.9l-0.6-0.3l0-0.4l0.1-0.1l0.8,0L123.4,68.9z
		 M125.2,65.9l-1.8,0.7l2.5-1.8L125.2,65.9z M131.8,64.7l1.2,2.6L126,67l0.1-0.1L131.8,64.7z M130.4,61.7l0.9,1.9l-4,1.6l1.4-2.2
		L130.4,61.7z M126.2,48.2l-0.5-0.1l-0.7-1.7l2.8-0.5L126.2,48.2z M130.9,43.2l0.7,0.6l-1.2,0.2L130.9,43.2z M124.9,38l5,4.4l-1.3,2
		l-4.2,0.8L124.9,38z M124.2,49l0.6,0.1l0.3,0.7l-0.5,0.8l-0.5,0.4L124.2,49z M125.5,51.6l0.3-0.2l3.6,8l-1.7,2.6l-4.7,3.3l0.8-11.2
		L125.5,51.6z M123.5,35l0.4,0.1l0,0.3L123.5,35L123.5,35z M122.3,35.6l1.5,1.3l-0.4,5.9l-2.9-6.4L122.3,35.6z M121.2,34.7
		L121.2,34.7l-1.2,0.7l-0.4-0.9L121.2,34.7z M123.1,45.4l-5.6,1.1l-4.1-0.8l-1-2.4l3.4-4.6l3.5-1.7L123.1,45.4z M118.8,32.6
		L118.8,32.6l-0.1-0.1L118.8,32.6z M118.8,35.9l-1.4,0.7l1.1-1.5L118.8,35.9z M115,37.7l-3.2,1.5l3-5.6l2.8,0.5L115,37.7z M114,32.2
		l0.4-0.4l-0.2,0.4L114,32.2z M117.4,32.8l-2-0.3l1-1.9L117.4,32.8z M116.6,27.8l-1.1-2.4l2.7-0.6L116.6,27.8z M119.8,24.4l0.2-0.1
		l-0.4,0.4L119.8,24.4z M117.4,22.3l1,0.3l-2,0.4L117.4,22.3z M115.8,21.9l-1.5,1l-0.7-1.6L115.8,21.9z M114.3,25.7l0.9,2l-2-1.7
		L114.3,25.7z M113.3,23.5L111,24l-0.1-0.1l1.6-2.3L113.3,23.5z M109.2,14.3l2.2,5l-2.6-0.7L109.2,14.3z M108.7,19.8l2.8,0.8
		l-1.6,2.4l-1.4-1.2L108.7,19.8z M108.4,23.4l0.8,0.7l-0.2,0.3l-0.7,0.1L108.4,23.4z M108,28.7l3.6-2.4l0.2,0l3.4,3l-2.7,2.7
		l-4.7-0.8L108,28.7z M108.2,36.3l-0.9,0.9l0.2-2.7L108.2,36.3z M107.5,19.5l-0.1,1.3l-2.3-2L107.5,19.5z M107.2,22.3l-0.2,2.3
		L105,25l-2.9-7.1l0.3,0.1L107.2,22.3z M103.9,12.6l0.7,0l-3,2.9l-0.6-0.5l-0.7-1.7L103.9,12.6z M97.7,12.2l0.7,0l0,0.1l-0.5,0.1
		L97.7,12.2L97.7,12.2z M97.5,13.8L97.5,13.8l2.3,2l0.1,0.2l-2.6-0.8L97.5,13.8z M97.1,16.5l2.7,0.8l-3.2,3.1L97.1,16.5z M91.1,8
		l3.1,2.7l-3.8-0.3L91.1,8z M95.7,12.1l0.7,0.6l-4.8,0.9l-1.7-0.5l-0.1-0.3l0.3-1.1L95.7,12.1z M89.3,6.4L90,7.1l-0.9,3.3l-0.7,0
		l-0.7-1.3L89.3,6.4z M86.6,4l1.7,1.5l-1.2,2.2l-1.8-3.4L86.6,4z M84.1,4.6L86.4,9l-0.6,1.1L83.6,10l-2-4.7L84.1,4.6z M79.2,2.6
		l0.8,1.8l-3.3,0.8L79.2,2.6z M80.4,5.6l1.8,4.3l-4.3-0.3l-0.3-0.1l-0.4-0.8l-0.6-2.2L80.4,5.6z M77.9,16l-6.7,1.2l-1.3-5l1.7-1.8
		l4.8,0.3L77.9,16z M69.6,10.8l-0.1-0.5l0.6,0L69.6,10.8z M74.9,7l1,2l-2.3-0.7L74.9,7z M72.7,7.5L72.3,8l-0.7-0.2L72.7,7.5z
		 M69.2,8.4L71.3,9l-0.2,0.2l-2-0.1L69,8.4L69.2,8.4z M68.9,13.2l1.1,4.2l-0.5,0.1l-2-2.8L68.9,13.2z M67.7,8.7l0,0.2l-0.6,0
		L67.7,8.7z M68.1,10.2l0.4,1.6l-1.8,1.9L64,9.9L68.1,10.2z M66.8,7.7l-3.7,0.9l-0.1,0l-1.8-2.5L66.8,7.7z M59.3,5.5l2.1,3L55.1,8
		l-0.1-0.1L54,4L59.3,5.5z M53.2,9.2l0.2,0l0,0l0.3,1.7l-0.5,0.1L53.2,9.2z M53.2,12.4l0.7-0.2l1.2,7.9l-2,0.4L53.2,12.4z
		 M53.1,21.7l2.2-0.4l0.2,1.4l-2.4-0.4L53.1,21.7z M53.1,23.6l2.6,0.4l0.1,0.9L53,27.9L53.1,23.6z M53,29.7l3-3.1l1,6.6L53,31
		L53,29.7z M53,32.5l2.6,1.4L53,34.3L53,32.5z M53,35.7l4.6,0.9l0.1,0.5l-4.6,1L53,38L53,35.7z M52.9,40.1l1.3,1.9l-1.3-1.5
		L52.9,40.1z M52.9,42.3l6.6,7.5l0.1,1l-6.8-2.6L52.9,42.3z M52.9,49.5l7,2.7l0.4,3l-3,2.9l-1.1,0.2l-3.4-8.5L52.9,49.5z M52.8,53.1
		l2.2,5.5l-2.2,0.4L52.8,53.1z M52.8,60.7l1.4,0.4l-1.4,1.4L52.8,60.7z M52.7,66.2l1.5-1l0.7,0L54,66.8l-1.3,0.6L52.7,66.2z
		 M52.7,68.8l0.3-0.1l-0.3,0.5L52.7,68.8z M52.6,72.8l9,6.6l-7.8-0.6l-0.7-1l-0.5-4.6L52.6,72.8z M52.5,85.8l0.2,0.1l0.6,5.4
		l-0.8,0.8L52.5,85.8z M52.5,93.9l1-1l0.1,0.8l-1.1,0.4L52.5,93.9z M52.4,95.5l1.2-0.5l0.1,0.7L52.4,95.5L52.4,95.5z M52.4,96.8
		l1.4,0.2l0.2,2.2l-0.4,0.3l-1.3-1.3L52.4,96.8z M52.4,99.9L52.4,99.9L52.4,99.9L52.4,99.9z M52.4,101.9l0.9-0.7h0.4l0.6,0.6
		l0.2,1.5l-1.1,1.5l-0.9-0.2l-0.2-0.5L52.4,101.9z M52.8,108.6l-0.5,0.1l0.3-0.4L52.8,108.6z M52.3,110l1-0.2l1.1,2.7l-2.2,0.7
		L52.3,110z M52.3,114.5l2.7-0.9l0.1,0.2l-2.5,1.8l-0.3-0.3L52.3,114.5z M52.3,117.3L52.3,117.3l2.2,2.4l-0.5,0.7l-1.7-0.9
		L52.3,117.3z M52.2,121l1,0.5l-1,1.3L52.2,121z M56.6,126.6l-4.4-0.5l0-1.2l2.1-2.9l2.3,1.2l0.3,2.5L56.6,126.6z M57,115.5
		l-0.2-1.4l2.6-1.9l0.7-0.2l-3,4L57,115.5z M57.9,121.9l-0.3-0.3l-0.2-1.8l0.6,1.5L57.9,121.9z M58.1,125.8l0.4-1.4l1.8,2.1l0.2,0.5
		l-2.3-0.2L58.1,125.8z M59,134l-0.6-6l2.7,0.3l0.4,1L59,134z M62.5,127.2l-1.1-1.3l-0.1-0.3l1.7,0.9L62.5,127.2L62.5,127.2z
		 M65.4,135.6l-2.5-6l4.1,4.8L65.4,135.6z M63.7,128.6l4.2,0.4l3.7,1.9l-3.6,2.7L63.7,128.6z M71.3,129.4l0.1,0l0,0L71.3,129.4z
		 M69.8,135.7l-0.9-1.1l3-2.3l0,0.1L69.8,135.7z M73.2,129.8l-0.1-0.2l0.2,0L73.2,129.8z M72.6,128.3l-0.1-0.3l-1.2-8.3l1.1,0.2
		l4.6,4.7l-2.5,3.9L72.6,128.3z M79.2,133.5l-4.9-2.5l0.6-1l0.2-0.2l4.5,0.5L79.2,133.5z M79.9,129.1l-3.2-0.3l2.5-1.9l0.9,0.9
		L79.9,129.1z M80.3,126.2l-0.1-0.1l0.1-0.1L80.3,126.2z M80.6,124.2l-1.3,1l-0.7-0.7l1.6-2.5l0.5,1.3L80.6,124.2z M80.4,119.1
		L80.4,119.1L80.4,119.1L80.4,119.1z M78.4,114l-0.5-1.2l4.1,1.1l0,0l-0.5,3.6l-0.3,0.5L78.4,114z M81.1,129.2l0.1-0.4l0.4,0.4
		L81.1,129.2z M81.4,127.3l0.3-1.8l1.3,3.4L81.4,127.3z M84.9,129.6l-0.3,0l-2.1-5.3l1-0.8l2.7,3.9L84.9,129.6z M86.3,129.8l0.4-0.7
		l0.2,0.8L86.3,129.8z M87.2,126l-1.1-4l3.3,0.5L87.2,126z M90.2,121.3l-1.5-1.7l3.8-2.9l0.5,0.1L90.2,121.3z M91.5,121.5l2.7-4.3
		l1.7,0.5l1.2,4.7L91.5,121.5z M97.5,118.7l1.5,1.1l-0.2,2.8l-0.3,0L97.5,118.7z"/>
</g>
</svg>
