<?xml version="1.0" encoding="utf-8"?>
<!-- Generator: Adobe Illustrator 17.1.0, SVG Export Plug-In . SVG Version: 6.00 Build 0)  -->
<!DOCTYPE svg PUBLIC "-//W3C//DTD SVG 1.1//EN" "http://www.w3.org/Graphics/SVG/1.1/DTD/svg11.dtd">
<svg version="1.1" id="Layer_1" xmlns="http://www.w3.org/2000/svg" xmlns:xlink="http://www.w3.org/1999/xlink" x="0px" y="0px"
	 viewBox="-862 -936 3156 2900" enable-background="new -862 -936 3156 2900" xml:space="preserve">
<g transform="scale(1 -1) translate(0 -1280)">
	<path fill="#9B9B9B" d="M1215,974c0-8.7-3.3-16.3-10-23L739,485c-6.7-6.7-14.3-10-23-10s-16.3,3.3-23,10L227,951
		c-6.7,6.7-10,14.3-10,23s3.3,16.3,10,23l50,50c6.7,6.7,14.3,10,23,10s16.3-3.3,23-10l393-393l393,393c6.7,6.7,14.3,10,23,10
		s16.3-3.3,23-10l50-50C1211.7,990.3,1215,982.7,1215,974z"/>
</g>
</svg>
