<?xml version="1.0" encoding="utf-8"?>
<!-- Generator: Adobe Illustrator 17.1.0, SVG Export Plug-In . SVG Version: 6.00 Build 0)  -->
<!DOCTYPE svg PUBLIC "-//W3C//DTD SVG 1.1//EN" "http://www.w3.org/Graphics/SVG/1.1/DTD/svg11.dtd">
<svg version="1.1" id="Layer_1" xmlns="http://www.w3.org/2000/svg" xmlns:xlink="http://www.w3.org/1999/xlink" x="0px" y="0px"
	 viewBox="0 0 792 612" enable-background="new 0 0 792 612" xml:space="preserve">
<g>
	<g>
		<path fill="#FFFFFF" d="M396.5,417.5c-4.9,0-8.6-3.7-11.9-7l-0.4-0.4l-128-197.6c-4.3-4.8-4.2-13.1,0.4-17.8c3.3-3.3,7-7,11.9-7
			h258.7c4.9,0,8.6,3.7,11.9,7l1.5,1.5v2.1c0,3.3,0,9.9-3.8,14.2l-128,197.6l-0.4,0.4C405.1,413.7,401.4,417.5,396.5,417.5z"/>
		<path fill="#959595" d="M527.2,192.7c2.8,0,5.6,2.8,8.3,5.6c0,2.8,0,8.3-2.8,11.1l-128,197.5c-2.8,2.8-5.6,5.6-8.3,5.6
			s-5.6-2.8-8.3-5.6l-128-197.5c-2.8-2.8-2.8-8.3,0-11.1c2.8-2.8,5.6-5.6,8.3-5.6H527.2 M527.2,182.7H268.5
			c-6.9,0-11.8,4.9-15.4,8.5c-3.2,3.2-5,7.8-5,12.6c0,4.4,1.5,8.5,4.1,11.7l127.5,196.8l0.6,0.9l0.7,0.7c3.6,3.6,8.5,8.5,15.4,8.5
			s11.8-4.9,15.4-8.5l0.7-0.7l0.6-0.9l127.5-196.8c4.8-5.7,4.8-13.4,4.8-17.2v-4.1l-2.9-2.9C539.1,187.6,534.2,182.7,527.2,182.7
			L527.2,182.7z"/>
	</g>
</g>
</svg>
