<?xml version="1.0" encoding="utf-8"?>
<!-- Generator: Adobe Illustrator 17.1.0, SVG Export Plug-In . SVG Version: 6.00 Build 0)  -->
<svg version="1.2" baseProfile="tiny" id="Layer_1" xmlns="http://www.w3.org/2000/svg" xmlns:xlink="http://www.w3.org/1999/xlink"
	 x="0px" y="0px" viewBox="0 0 304.629 302.96" xml:space="preserve">
<path fill="#FFDE17" d="M291.461,213.432c-5.774-4.118-8.486-11.645-6.178-18.748c2.308-7.103,8.926-11.598,16.018-11.536
	c-6.504-2.828-10.722-9.626-9.941-17.054c0.781-7.427,6.32-13.2,13.27-14.614c-6.95-1.414-12.489-7.187-13.27-14.614
	c-0.781-7.427,3.437-14.226,9.941-17.054c-7.092,0.062-13.71-4.433-16.018-11.536c-2.308-7.103,0.405-14.63,6.178-18.748
	c-6.924,1.535-14.332-1.486-18.066-7.954c-3.734-6.468-2.646-14.394,2.145-19.623c-6.453,2.941-14.328,1.526-19.325-4.024
	c-4.997-5.55-5.581-13.529-1.981-19.64c-5.701,4.218-13.697,4.472-19.739,0.082c-6.042-4.39-8.272-12.073-6.022-18.799
	c-4.699,5.311-12.468,7.222-19.291,4.185c-6.823-3.038-10.601-10.09-9.799-17.136c-3.492,6.172-10.694,9.657-17.999,8.104
	C174.078,13.172,168.916,7.059,168.236,0c-2.133,6.764-8.453,11.669-15.921,11.669S138.526,6.764,136.393,0
	c-0.68,7.059-5.842,13.172-13.147,14.724c-7.305,1.553-14.507-1.932-17.999-8.104c0.803,7.046-2.976,14.098-9.798,17.136
	c-6.823,3.038-14.592,1.127-19.291-4.184c2.25,6.725,0.02,14.409-6.022,18.799c-6.042,4.39-14.038,4.136-19.739-0.082
	c3.599,6.111,3.016,14.09-1.981,19.64c-4.997,5.55-12.872,6.964-19.325,4.024c4.791,5.229,5.879,13.155,2.145,19.623
	c-3.734,6.468-11.143,9.488-18.066,7.954c5.774,4.118,8.486,11.645,6.178,18.748c-2.308,7.103-8.926,11.598-16.018,11.536
	c6.504,2.828,10.722,9.626,9.941,17.054c-0.781,7.427-6.32,13.2-13.27,14.614c6.95,1.414,12.489,7.187,13.27,14.614
	c0.781,7.427-3.437,14.226-9.941,17.054c7.092-0.062,13.71,4.433,16.018,11.536c2.308,7.103-0.405,14.63-6.178,18.748
	c6.924-1.535,14.332,1.486,18.066,7.954c3.734,6.468,2.646,14.394-2.145,19.623c6.453-2.941,14.328-1.527,19.325,4.024
	c4.997,5.55,5.581,13.529,1.981,19.64c5.701-4.218,13.697-4.472,19.739-0.082c6.042,4.39,8.272,12.073,6.022,18.799
	c4.699-5.311,12.468-7.222,19.291-4.185c6.823,3.038,10.601,10.09,9.798,17.136c3.492-6.172,10.694-9.657,17.999-8.104
	c7.305,1.553,12.467,7.665,13.147,14.724c2.133-6.764,8.453-11.669,15.921-11.669s13.788,4.905,15.921,11.669
	c0.68-7.059,5.842-13.172,13.147-14.724c7.305-1.553,14.507,1.931,17.999,8.104c-0.803-7.046,2.976-14.098,9.799-17.136
	c6.823-3.038,14.592-1.127,19.291,4.185c-2.25-6.725-0.02-14.409,6.022-18.799c6.042-4.39,14.038-4.136,19.739,0.082
	c-3.599-6.111-3.016-14.09,1.981-19.64c4.997-5.55,12.872-6.964,19.325-4.024c-4.791-5.229-5.879-13.155-2.145-19.623
	C277.129,214.918,284.537,211.897,291.461,213.432z"/>
<g>
	<path d="M85.315,151.48c0,37.003,29.997,67,67,67s67-29.997,67-67H85.315z"/>
	<g>
		<circle cx="120.481" cy="111.2" r="15.947"/>
		<circle cx="184.148" cy="111.2" r="15.947"/>
	</g>
</g>
</svg>
