<?xml version="1.0" encoding="utf-8"?>
<!-- Generator: Adobe Illustrator 17.1.0, SVG Export Plug-In . SVG Version: 6.00 Build 0)  -->
<svg version="1.2" baseProfile="tiny" id="Layer_1" xmlns="http://www.w3.org/2000/svg" xmlns:xlink="http://www.w3.org/1999/xlink"
	 x="0px" y="0px" viewBox="96.481 254.144 596.506 99.98" xml:space="preserve">
<path fill="#262261" d="M97.287,337.718c2.286,0.314,4.751,0.583,7.396,0.807c2.286,0.226,4.896,0.403,7.833,0.538
	c2.936,0.135,6.039,0.202,9.312,0.202c4.348,0,7.8-0.279,10.354-0.841c2.556-0.56,4.505-1.389,5.85-2.487s2.208-2.454,2.589-4.068
	c0.381-1.613,0.571-3.473,0.571-5.58c0-1.658-0.078-3.171-0.235-4.539c-0.157-1.366-0.527-2.588-1.109-3.664
	c-0.583-1.076-1.412-2.006-2.487-2.79c-1.076-0.784-2.555-1.423-4.438-1.917l-19.566-5.109c-3.093-0.807-5.715-1.894-7.866-3.261
	s-3.89-3.104-5.211-5.211c-1.322-2.106-2.286-4.65-2.891-7.632c-0.605-2.98-0.908-6.488-0.908-10.522
	c0-4.75,0.717-8.863,2.151-12.338c1.435-3.473,3.463-6.33,6.085-8.572c2.622-2.241,5.793-3.899,9.514-4.976
	s7.867-1.613,12.439-1.613c3.809,0,7.295,0.213,10.455,0.639s5.883,0.886,8.169,1.378c2.689,0.583,5.132,1.233,7.329,1.95v12.438
	c-2.018-0.269-4.146-0.515-6.388-0.739c-1.928-0.224-4.091-0.414-6.488-0.572c-2.398-0.156-4.875-0.235-7.43-0.235
	c-3.99,0-7.262,0.135-9.816,0.404c-2.555,0.269-4.572,0.829-6.052,1.681c-1.479,0.852-2.511,2.062-3.093,3.631
	c-0.583,1.569-0.874,3.653-0.874,6.253c0,1.435,0.078,2.712,0.235,3.832c0.158,1.121,0.518,2.107,1.078,2.959
	c0.562,0.852,1.369,1.591,2.424,2.219s2.48,1.21,4.275,1.748l18.25,5.244c2.334,0.673,4.41,1.379,6.228,2.118s3.4,1.613,4.747,2.622
	c1.348,1.009,2.503,2.186,3.469,3.53c0.964,1.345,1.738,2.947,2.322,4.807c0.584,1.861,1.011,4.046,1.279,6.556
	c0.27,2.511,0.405,5.402,0.405,8.674c0,5.11-0.438,9.492-1.313,13.145c-0.875,3.654-2.524,6.635-4.947,8.942
	c-2.424,2.31-5.756,4.013-9.996,5.11s-9.727,1.647-16.457,1.647c-5.206,0-9.524-0.235-12.958-0.706
	c-3.433-0.471-6.227-0.998-8.38-1.58c-2.469-0.673-4.421-1.435-5.856-2.286V337.718z"/>
<path fill="#262261" d="M164.736,256.093h16.002v64.144c0,3.811,0.336,6.948,1.009,9.413c0.672,2.466,1.781,4.404,3.328,5.816
	c1.546,1.412,3.552,2.398,6.018,2.958c2.465,0.562,5.49,0.841,9.077,0.841c3.227,0,6.039-0.279,8.438-0.841
	c2.397-0.56,4.404-1.546,6.018-2.958c1.614-1.412,2.812-3.351,3.598-5.816c0.783-2.465,1.177-5.603,1.177-9.413v-64.144h16.002
	v65.085c0,5.604-0.639,10.467-1.916,14.591s-3.328,7.542-6.152,10.253c-2.824,2.713-6.466,4.74-10.926,6.085
	c-4.461,1.345-9.873,2.018-16.237,2.018c-6.366,0-11.79-0.662-16.271-1.983c-4.482-1.322-8.147-3.329-10.993-6.019
	c-2.847-2.689-4.92-6.084-6.22-10.186s-1.949-8.932-1.949-14.49V256.093z"/>
<path fill="#262261" d="M248.524,256.093h26.76l34.963,80.953h0.338c-0.045-1.614-0.09-3.25-0.135-4.908
	c-0.047-1.435-0.068-2.98-0.068-4.64c0-1.658,0-3.249,0-4.773v-66.632h16.002v95.946h-26.184l-29.616-67.505
	c-0.808-1.883-1.57-3.631-2.288-5.244c-0.719-1.614-1.323-3.026-1.817-4.236c-0.628-1.434-1.189-2.757-1.683-3.967h-0.27v80.952
	h-16.002V256.093z"/>
<path fill="#1CADE3" d="M391.96,256.093h-8.348h-8.169h-10.456c0,0-10.718-0.412-14.438,0.664s-4.892,1.734-7.514,3.976
	c-2.622,2.242-4.651,5.1-6.085,8.572c-1.436,3.475-2.151,7.588-2.151,12.338c0,4.034,0.303,7.542,0.907,10.522
	c0.605,2.981,1.568,5.525,2.892,7.632c1.321,2.107,3.059,3.844,5.211,5.211c2.151,1.367,4.773,2.454,7.866,3.261l19.565,5.109
	c1.883,0.494,3.362,1.133,4.438,1.917c1.075,0.784,1.904,1.714,2.487,2.79c0.582,1.076,0.952,2.298,1.109,3.664
	c0.156,1.368,0.235,2.881,0.235,4.539c0,2.107-0.191,3.967-0.571,5.58c-0.382,1.614-1.244,2.97-2.589,4.068s-3.295,1.928-5.85,2.487
	c-2.555,0.562-6.007,0.841-10.354,0.841c-3.272,0-6.377-0.067-9.312-0.202c-2.937-0.135-5.548-0.312-7.833-0.538
	c-2.646-0.224-5.11-0.492-7.396-0.807v11.834c1.436,0.852,3.387,1.613,5.855,2.286c2.154,0.582,4.947,1.109,8.381,1.58
	s7.752,0.706,12.958,0.706c6.73,0,12.217-0.55,16.457-1.647s7.572-2.801,9.996-5.11c2.423-2.308,4.071-5.288,4.947-8.942
	c0.875-3.652,1.312-8.034,1.312-13.145c0-3.271-0.135-6.163-0.404-8.674c-0.269-2.51-0.695-4.694-1.279-6.556
	c-0.584-1.859-1.358-3.462-2.323-4.807s-2.121-2.521-3.468-3.53s-2.93-1.883-4.747-2.622s-3.894-1.445-6.229-2.118l-18.249-5.244
	c-1.795-0.538-3.221-1.12-4.275-1.748s-1.863-1.367-2.424-2.219c-0.562-0.852-0.921-1.838-1.078-2.959
	c-0.157-1.12-0.235-2.397-0.235-3.832c0-2.6,0.291-2.684,0.874-4.253c0.582-1.568,1.614-2.779,3.093-3.631
	c1.479-0.852,3.496-1.412,6.052-1.681c2.555-0.27,5.826-0.454,9.816-0.454c2.555,0,7.43,0,7.43,0h6.488h7.406h22.777v81.087h16.002
	v-81.087h29.047v-14.859H391.96z"/>
<path fill="#1CADE3" d="M474.648,256.093h21.382l31.399,95.946H509.61l-8.068-26.021h-32.677l-7.731,26.021h-17.616L474.648,256.093
	z M497.105,311.564l-11.833-40.611h-0.27l-11.833,40.611H497.105z"/>
<path fill="#1CADE3" d="M529.592,256.093h26.76l34.963,80.953h0.337c-0.045-1.614-0.09-3.25-0.135-4.908
	c-0.046-1.435-0.067-2.98-0.067-4.64c0-1.658,0-3.249,0-4.773v-66.632h16.002v95.946h-26.184l-29.616-67.505
	c-0.808-1.883-1.57-3.631-2.288-5.244c-0.719-1.614-1.324-3.026-1.817-4.236c-0.629-1.434-1.189-2.757-1.684-3.967h-0.269v80.952
	h-16.002V256.093z"/>
<path fill="#1CADE3" d="M620.842,256.093h34.425c3.54,0,6.936,0.247,10.187,0.74c3.249,0.493,6.263,1.367,9.043,2.622
	c2.778,1.255,5.312,3.003,7.598,5.244c2.286,2.242,4.236,5.11,5.85,8.606s2.857,7.71,3.731,12.641s1.312,10.714,1.312,17.347
	c0,6.858-0.403,12.832-1.211,17.919c-0.807,5.088-1.973,9.436-3.496,13.043c-1.524,3.609-3.385,6.567-5.58,8.876
	c-2.197,2.309-4.696,4.124-7.497,5.445c-2.802,1.323-5.873,2.23-9.212,2.724c-3.339,0.494-6.914,0.739-10.724,0.739h-34.425V256.093
	z M650.897,337.046c2.286,0,4.505-0.056,6.656-0.168c2.151-0.111,4.157-0.505,6.018-1.177c1.859-0.673,3.563-1.691,5.109-3.06
	c1.547-1.367,2.868-3.305,3.968-5.816c1.098-2.51,1.949-5.681,2.555-9.514c0.605-3.832,0.907-8.549,0.907-14.153
	c0-5.199-0.292-9.603-0.874-13.212c-0.583-3.607-1.412-6.6-2.487-8.976c-1.076-2.376-2.365-4.225-3.866-5.547
	c-1.502-1.322-3.193-2.309-5.076-2.959c-1.883-0.649-3.911-1.042-6.085-1.177c-2.175-0.134-4.449-0.201-6.824-0.201h-13.918v65.959
	H650.897z"/>
</svg>
