<?xml version="1.0" encoding="utf-8"?>
<!-- Generator: Adobe Illustrator 17.1.0, SVG Export Plug-In . SVG Version: 6.00 Build 0)  -->
<!DOCTYPE svg PUBLIC "-//W3C//DTD SVG 1.1//EN" "http://www.w3.org/Graphics/SVG/1.1/DTD/svg11.dtd">
<svg version="1.1" id="Layer_1" xmlns="http://www.w3.org/2000/svg" xmlns:xlink="http://www.w3.org/1999/xlink" x="0px" y="0px"
	 viewBox="9.8 164.5 771.4 282.5" enable-background="new 9.8 164.5 771.4 282.5" xml:space="preserve">
<path fill="#FFFFFF" d="M334.1,293.4c0-4.9,1.7-9,5.2-12.5c3.5-3.4,8.8-5.1,16-5.1c5.2,0,10.4,1.2,15.5,3.7c0.2,0.1,0.3,0.3,0.3,0.5
	v8.2c0,0.4-0.4,0.6-0.7,0.5c-4.8-2.1-9.4-3.2-13.7-3.2c-7.8,0-11.7,2.5-11.7,7.5c0,1.7,1,3,3.1,4.1c2.1,1.1,4.6,2.1,7.5,2.9
	c2.9,0.8,5.9,1.8,8.8,3s5.4,3.1,7.5,5.9c2.1,2.8,3.1,6.2,3.1,10.3c0,4.8-1.8,8.9-5.4,12.3c-3.6,3.4-9.1,5.2-16.6,5.2
	c-6.2,0-11.8-1.3-16.8-4c-0.2-0.1-0.3-0.3-0.3-0.5v-8.7c0-0.4,0.4-0.6,0.8-0.4c4.9,2.6,10.1,3.9,15.6,3.9c0.1,0,0.2,0,0.2,0
	c3.8,0,6.7-0.7,8.6-2c2-1.4,3-3.1,3-5.2c0-2.4-1-4.4-3.1-5.8c-2.1-1.5-4.6-2.6-7.5-3.5s-5.9-1.7-8.9-2.8c-2.9-1-5.5-2.7-7.5-5.1
	C335.1,300.2,334.1,297.2,334.1,293.4z"/>
<path fill="#FFFFFF" d="M385.8,310.9v-33.7c0-0.3,0.2-0.5,0.5-0.5h9.8c0.3,0,0.5,0.2,0.5,0.5v34.5c0,5.4,1.1,9.3,3.4,11.8
	c2.3,2.5,5.9,3.8,10.8,3.8c4.9,0,8.4-1.2,10.7-3.7c2.2-2.5,3.4-6.4,3.4-11.8v-34.5c0-0.3,0.2-0.5,0.5-0.5h9.8c0.3,0,0.5,0.2,0.5,0.5
	v33.7c0,8.2-2.2,14.6-6.5,19.1c-4.4,4.5-10.5,6.8-18.3,6.8c-7.9,0-14-2.3-18.4-6.8C388,325.5,385.8,319.1,385.8,310.9z"/>
<path fill="#FFFFFF" d="M450.6,335.2v-59c0-0.3,0.2-0.5,0.5-0.5h24.6c7.5,0,13.3,1.9,17.6,5.8c4.2,3.9,6.4,9.3,6.4,16.2v37.5
	c0,0.3-0.2,0.5-0.5,0.5h-10c-0.3,0-0.5-0.2-0.5-0.5v-38.4c0-3.5-0.9-6.2-2.7-8.2c-1.8-2-5.3-3-10.7-3h-13.4c-0.3,0-0.5,0.2-0.5,0.5
	v49.1c0,0.3-0.2,0.5-0.5,0.5h-9.8C450.8,335.8,450.6,335.5,450.6,335.2z"/>
<path fill="#FFFFFF" d="M512,293.4c0-4.9,1.7-9,5.2-12.5c3.5-3.4,8.8-5.1,16-5.1c5.2,0,10.4,1.2,15.5,3.7c0.2,0.1,0.3,0.3,0.3,0.5
	v8.2c0,0.4-0.4,0.6-0.7,0.5c-4.8-2.1-9.4-3.2-13.7-3.2c-7.8,0-11.7,2.5-11.7,7.5c0,1.7,1,3,3.1,4.1c2.1,1.1,4.6,2.1,7.5,2.9
	c2.9,0.8,5.9,1.8,8.8,3c2.9,1.2,5.4,3.1,7.5,5.9c2.1,2.8,3.1,6.2,3.1,10.3c0,4.8-1.8,8.9-5.4,12.3c-3.6,3.4-9.1,5.2-16.6,5.2
	c-6.2,0-11.8-1.3-16.8-4c-0.2-0.1-0.3-0.3-0.3-0.5v-8.7c0-0.4,0.4-0.6,0.8-0.4c4.9,2.6,10.1,3.9,15.6,3.9c0.1,0,0.2,0,0.2,0
	c3.8,0,6.7-0.7,8.6-2c2-1.4,3-3.1,3-5.2c0-2.4-1-4.4-3.1-5.8c-2.1-1.5-4.6-2.6-7.5-3.5s-5.9-1.7-8.9-2.8c-2.9-1-5.5-2.7-7.5-5.1
	C513.1,300.2,512,297.2,512,293.4z"/>
<path fill="#FFFFFF" d="M561,285.4v-8.2c0-0.3,0.2-0.5,0.5-0.5h9.2c0.3,0,0.5-0.2,0.5-0.5v-16.5c0-0.3,0.2-0.5,0.5-0.5h9.8
	c0.3,0,0.5,0.2,0.5,0.5v16.5c0,0.3,0.2,0.5,0.5,0.5h14.7c0.3,0,0.5,0.2,0.5,0.5v8.2c0,0.3-0.2,0.5-0.5,0.5h-14.7
	c-0.3,0-0.5,0.2-0.5,0.5v33.6c0,4.6,2.9,6.9,8.7,6.9c0,0,0.1,0,0.1,0c2.3,0,4.4-0.4,6.1-1.3c0.4-0.2,0.8,0.1,0.8,0.4v8.6
	c0,0.2-0.1,0.4-0.3,0.5c-2.6,1-5.2,1.5-7.7,1.5c-0.1,0-0.2,0-0.3,0c-1.4,0-2.9-0.2-4.6-0.5c-1.6-0.3-3.6-1-5.8-2
	c-2.3-1-4.1-2.8-5.6-5.3c-1.5-2.5-2.2-5.6-2.2-9.4v-33c0-0.3-0.2-0.5-0.5-0.5h-9.2C561.3,286,561,285.7,561,285.4z"/>
<path fill="#FFFFFF" d="M656,300.5c0-8-2.2-14.1-6.7-18.3c-4.5-4.3-10.8-6.4-19.1-6.4c-6.2,0-12,1-17.5,3c-0.2,0.1-0.3,0.3-0.3,0.5
	v8.2c0,0.4,0.3,0.6,0.7,0.5c5.5-1.8,10.7-2.7,15.7-2.7c5.6,0,9.7,1.1,12.2,3.2c2.4,2.1,3.7,5.4,4,10c0,0.3-0.3,0.6-0.6,0.6
	c-3.3-0.4-6.6-0.6-10.1-0.6c-8.7,0-15.5,1.6-20.4,4.9c-4.9,3.3-7.4,7.8-7.4,13.7c0,1.3,0.1,2.6,0.3,3.9c0.2,1.3,0.8,3,1.8,5
	c1,2,2.3,3.7,4,5.2c1.7,1.5,4.1,2.8,7.4,3.9c3.3,1.1,7.1,1.7,11.5,1.7c0.4,0,0.8,0,1.2,0c0.5,0,0.9,0,1.4,0c7.5,0,13-1.7,16.6-5.2
	c3.6-3.4,5.4-7.5,5.4-12.3c0-0.2,0-0.5,0-0.7c0-0.3,0-0.6,0-0.9V300.5z M619.2,311.9c1.3-1.4,3-2.4,5-3s3.9-1.1,5.6-1.3
	c1.7-0.3,3.4-0.4,5-0.4c3.8,0,7.1,0.3,9.8,0.7c0.3,0,0.4,0.3,0.4,0.5v9.1c0,6.4-4.5,9.6-13.4,9.6c-0.1,0-0.1,0-0.2,0
	c-9.5,0-14.2-3.3-14.2-10C617.2,315,617.9,313.3,619.2,311.9z"/>
<path fill="#FFFFFF" d="M669.2,335.2v-59c0-0.3,0.2-0.5,0.5-0.5h24.6c7.5,0,13.3,1.9,17.6,5.8c4.2,3.9,6.4,9.3,6.4,16.2v37.5
	c0,0.3-0.2,0.5-0.5,0.5h-10c-0.3,0-0.5-0.2-0.5-0.5v-38.4c0-3.5-0.9-6.2-2.7-8.2c-1.8-2-5.3-3-10.7-3h-13.4c-0.3,0-0.5,0.2-0.5,0.5
	v49.1c0,0.3-0.2,0.5-0.5,0.5h-9.8C669.5,335.8,669.2,335.5,669.2,335.2z"/>
<path fill="#FFFFFF" d="M780.7,259.2h-9.8c-0.3,0-0.5,0.2-0.5,0.5v17.1c0,0.3-0.3,0.6-0.6,0.5c-3.9-1.1-7.9-1.6-12-1.6
	c-3.4,0-6.6,0.4-9.5,1.2s-5.8,2.3-8.6,4.3c-2.8,2-5,5.1-6.6,9.2c-1.6,4.1-2.4,9.1-2.4,14.9c0,5.2,0.6,9.8,1.8,13.7
	c1.2,3.9,2.7,6.9,4.5,9.1c1.8,2.2,3.9,3.9,6.4,5.3c2.5,1.3,4.8,2.2,6.9,2.6c2.1,0.4,4.3,0.6,6.6,0.6c0.4,0,0.7,0,1.1,0
	c0.4,0,0.9,0,1.3,0c7.5,0,13-1.7,16.6-5.2c3.6-3.4,5.4-7.5,5.4-12.3c0-0.2,0-0.5,0-0.7c0-0.3,0-0.6,0-0.9v-57.9
	C781.2,259.4,781,259.2,780.7,259.2z M742.7,294.9c0.9-2.8,2.1-4.8,3.8-6.1c1.7-1.3,3.4-2.2,5.1-2.6c1.7-0.5,3.8-0.7,6.1-0.7
	c4.3,0,8.4,0.8,12.3,2.3c0.2,0.1,0.3,0.3,0.3,0.5v29.9c0,5.9-4.5,8.8-13.5,8.8c-2.2,0-4-0.2-5.6-0.7c-1.6-0.5-3.2-1.4-4.8-2.8
	c-1.6-1.4-2.9-3.6-3.7-6.6c-0.9-3-1.3-6.8-1.3-11.3C741.4,301.2,741.9,297.7,742.7,294.9z"/>
<g>
	<polygon fill="#FFFFFF" points="117,268.3 116.1,265.9 113.9,265.1 116.1,286.8 116.9,287.1 	"/>
	<polygon fill="#FFFFFF" points="113.5,404.1 115.4,404.4 114.8,403.7 	"/>
	<polygon fill="#FFFFFF" points="116.6,318.3 115.8,319.7 116.6,320.8 	"/>
	<polygon fill="#FFFFFF" points="116.5,330.4 110.1,329.9 102.8,342.9 108.3,356.1 116.2,357.5 	"/>
	<polygon fill="#FFFFFF" points="116.8,290.1 116.5,290.1 116.8,293.4 	"/>
	<polygon fill="#FFFFFF" points="117.2,249.5 115.4,247.4 112.1,248.1 112.2,249.2 117.1,261.4 	"/>
	<polygon fill="#FFFFFF" points="117.3,238.9 116.8,239 117.3,239.8 	"/>
	<polygon fill="#FFFFFF" points="117.7,190.8 106.5,193.6 108.1,209 108.5,209.1 117.6,207.5 	"/>
	<polygon fill="#FFFFFF" points="117.6,210.1 116.2,210.4 117.6,210.6 	"/>
	<polygon fill="#FFFFFF" points="117.4,228.9 112.9,233.6 115.1,236.7 117.3,236.3 	"/>
	<polygon fill="#FFFFFF" points="116.2,362.2 114.4,364 115,364.7 116.2,364.5 	"/>
	<polygon fill="#FFFFFF" points="117.5,213.2 108.5,211.7 108.3,211.8 110.2,229.9 111.3,231.5 117.4,225.1 	"/>
	<polygon fill="#FFFFFF" points="93.2,403.7 94.6,407.7 99.5,406 95.7,404.1 	"/>
	<polygon fill="#FFFFFF" points="94.5,415.6 92.9,410.9 91.6,411.4 92,418.2 	"/>
	<polygon fill="#FFFFFF" points="95.7,419.1 95.4,418.4 92.7,421.3 93.4,422.4 	"/>
	<polygon fill="#FFFFFF" points="116,383.8 110,382.2 103.6,386.6 111.6,396 116,389.6 	"/>
	<polygon fill="#FFFFFF" points="99.1,418.8 109.6,411.2 105.6,409.2 	"/>
	<polygon fill="#FFFFFF" points="101.4,408.1 95.4,410.1 96.5,413.4 	"/>
	<polygon fill="#FFFFFF" points="117.8,183.4 105.3,182.5 106.2,191 117.8,188.1 	"/>
	<polygon fill="#FFFFFF" points="92.1,408.5 91.4,406.3 91.5,408.7 	"/>
	<polygon fill="#FFFFFF" points="141.9,391.7 141.8,391.5 141.8,391.5 	"/>
	<polygon fill="#FFFFFF" points="115.8,410 114.6,410.9 115.8,411.5 	"/>
	<polygon fill="#FFFFFF" points="115.9,396.3 113.8,398.5 115.6,400.6 115.9,400.6 	"/>
	<polygon fill="#FFFFFF" points="98.3,427 96.4,426.8 100.1,432.3 	"/>
	<polygon fill="#FFFFFF" points="98.3,415.2 97.4,416.2 97.5,416.4 	"/>
	<polygon fill="#FFFFFF" points="97.1,423.4 96,424.2 97.4,424.3 	"/>
	<polygon fill="#FFFFFF" points="117.3,244.2 116.3,242.9 113.6,241.4 116.3,244.5 117.3,244.3 	"/>
	<polygon fill="#FFFFFF" points="208.4,406 208,404.2 207.1,405.7 	"/>
	<polygon fill="#FFFFFF" points="259.8,343.1 260,340.8 254.9,340.5 257.1,343.5 	"/>
	<polygon fill="#FFFFFF" points="186.1,402.7 185.6,403.4 192.4,411 198.8,406.1 	"/>
	<polygon fill="#FFFFFF" points="190.7,415.5 193.3,415.9 192,414.5 	"/>
	<polygon fill="#FFFFFF" points="218.9,351.8 217.5,354 219.5,361.5 219.9,362 220.8,351.5 	"/>
	<polygon fill="#FFFFFF" points="220.4,389.9 220.2,389.7 220.2,390 	"/>
	<polygon fill="#FFFFFF" points="211.9,393.2 206.6,388.7 209,397.8 	"/>
	<polygon fill="#FFFFFF" points="170.5,402.6 166.9,397.5 160.8,395.9 156.4,403.9 156.9,406.7 161.3,411.2 174.6,413.1 	"/>
	<polygon fill="#FFFFFF" points="172.5,426.1 171.6,425.2 169.6,428.2 	"/>
	<polygon fill="#FFFFFF" points="150.6,382.1 149.5,374.8 142.1,374.8 139.6,379.1 143,387.5 	"/>
	<path fill="#FFFFFF" d="M117.9,175.6l-3.1-5l-2.5-0.7c-0.7,0.2-1.3,0.4-2,0.6l7.6,6.9L117.9,175.6z"/>
	<polygon fill="#FFFFFF" points="164.4,414.2 171.2,421.1 174.6,415.7 	"/>
	<polygon fill="#FFFFFF" points="183.1,407.3 181.7,409.5 181.1,413.4 181.7,414.2 185.1,414.7 	"/>
	<polygon fill="#FFFFFF" points="184.2,417.2 183.7,417.1 183.9,417.4 	"/>
	<polygon fill="#FFFFFF" points="148.5,192.9 152.2,189.1 151.3,185.7 142.8,185.1 	"/>
	<polygon fill="#FFFFFF" points="260.7,331.4 252.8,333.4 251.4,335.6 252.9,337.7 260.2,338.2 	"/>
	<polygon fill="#FFFFFF" points="149.4,182.9 150.7,183 150.6,182.6 	"/>
	<path fill="#FFFFFF" d="M109.6,170.7c-0.4,0.1-0.8,0.3-1.3,0.4C108.7,170.9,109.2,170.8,109.6,170.7z"/>
	<polygon fill="#FFFFFF" points="157.8,200.3 171.7,197.8 168.7,186.8 158.6,186.2 155.1,189.8 	"/>
	<path fill="#FFFFFF" d="M113.7,169.5c0.9-0.3,1.8-0.5,2.8-0.7C115.6,169,114.6,169.2,113.7,169.5z"/>
	<path fill="#FFFFFF" d="M117.9,168.4c-0.3,0.1-0.6,0.1-0.9,0.2l0.8,0.2L117.9,168.4z"/>
	<polygon fill="#FFFFFF" points="258.2,308.6 257.6,309 261,315.6 261.8,314.3 262,312.1 	"/>
	<polygon fill="#FFFFFF" points="261.3,358.9 263.7,357.1 261.9,354.6 261.6,354.7 	"/>
	<polygon fill="#FFFFFF" points="271.4,299.2 269.4,300.6 270.5,300.6 	"/>
	<polygon fill="#FFFFFF" points="160.9,180 158.6,180.6 160,181 	"/>
	<polygon fill="#FFFFFF" points="278.6,287.9 271.1,271.2 270.5,271.6 267,277 265.4,300.3 275.1,293.4 	"/>
	<polygon fill="#FFFFFF" points="115.7,418.8 111.5,425.8 115.6,426.2 	"/>
	<path fill="#FFFFFF" d="M78.5,184.5c-0.4,0.2-0.8,0.5-1.2,0.7C77.7,185,78.1,184.7,78.5,184.5z"/>
	<path fill="#FFFFFF" d="M75.3,198l1.9-6.1l-0.2-4l-1.2-1.7c-2.3,1.5-4.6,3-6.8,4.6L75.3,198z"/>
	<path fill="#FFFFFF" d="M67.3,200.7l5.7-1.4l-6.1-7c-0.8,0.6-1.5,1.2-2.2,1.7L67.3,200.7z"/>
	<path fill="#FFFFFF" d="M79.4,184.7l0.2-0.8c-0.1,0.1-0.2,0.1-0.3,0.2L79.4,184.7z"/>
	<path fill="#FFFFFF" d="M102.4,179.7l-0.7-6.4c-4.3,1.6-8.6,3.4-12.7,5.5L102.4,179.7z"/>
	<path fill="#FFFFFF" d="M83.9,181.4c-0.1,0.1-0.3,0.2-0.4,0.2C83.6,181.6,83.8,181.5,83.9,181.4z"/>
	<path fill="#FFFFFF" d="M56.3,201c-0.3,0.3-0.6,0.6-0.9,0.8C55.7,201.6,56,201.3,56.3,201z"/>
	<polygon fill="#FFFFFF" points="70.2,214.7 66.2,204.9 63.2,204.4 54.3,206.6 70,215.1 	"/>
	<path fill="#FFFFFF" d="M46.4,220.3l2.3-0.4l-3.3-7.9c-0.9,1-1.8,2-2.7,3.1L46.4,220.3z"/>
	<path fill="#FFFFFF" d="M37.7,221.8l6-1.1l-2.5-3.6c-1.2,1.4-2.3,2.9-3.4,4.4L37.7,221.8z"/>
	<path fill="#FFFFFF" d="M103,172.9c-0.2,0.1-0.5,0.2-0.7,0.3C102.5,173,102.7,173,103,172.9z"/>
	<path fill="#FFFFFF" d="M63.1,201.8l1.7-0.4l-2.3-5.6c-2,1.6-4,3.3-5.9,5L63.1,201.8z"/>
	<path fill="#FFFFFF" d="M56.7,203.4l-2.5-0.4c-0.5,0.5-1,0.9-1.5,1.4L56.7,203.4z"/>
	<path fill="#FFFFFF" d="M47,210.2c-0.4,0.4-0.7,0.8-1.1,1.2C46.3,211,46.6,210.6,47,210.2z"/>
	<polygon fill="#FFFFFF" points="91,256.3 90.2,257.2 100.4,282.3 113.4,286.1 111.2,264 	"/>
	<polygon fill="#FFFFFF" points="110.8,235.7 111,237.1 111.5,237.3 112.2,237.2 111,235.5 	"/>
	<polygon fill="#FFFFFF" points="111.6,243.1 111.8,245.5 113.4,245.1 	"/>
	<polygon fill="#FFFFFF" points="114.8,262.6 113.2,258.7 113.6,262.2 	"/>
	<polygon fill="#FFFFFF" points="104.5,292.4 107.5,300 110.6,302.6 110.6,302.6 114.8,298.7 113.9,290.6 	"/>
	<polygon fill="#FFFFFF" points="114.6,305.2 114,305.6 115.2,306.6 115.6,306.4 115.4,305.2 	"/>
	<polygon fill="#FFFFFF" points="101.5,222.2 105.5,232.3 107.9,235 108.1,234.8 107.7,230.9 	"/>
	<polygon fill="#FFFFFF" points="91.6,197.3 95.5,207 105.4,208.6 103.9,194.3 	"/>
	<polygon fill="#FFFFFF" points="98.5,213.5 107.2,225.6 105.8,212.2 	"/>
	<polygon fill="#FFFFFF" points="109.3,248.7 95.3,251.9 93,254.2 110.8,261.1 109.7,249.8 	"/>
	<polygon fill="#FFFFFF" points="105.7,241 98.5,248.5 108.3,246.3 106.1,240.9 	"/>
	<path fill="#FFFFFF" d="M107.4,171.4c-1.1,0.3-2.1,0.7-3.2,1.1l0.8,7.4l12.7,0.9L107.4,171.4z"/>
	<polygon fill="#FFFFFF" points="114.3,367.6 113.2,367.9 113.6,368.8 115,368.3 	"/>
	<polygon fill="#FFFFFF" points="111.7,372.2 112.2,372.2 112.1,372.1 	"/>
	<polygon fill="#FFFFFF" points="110.6,401.9 110.3,402.4 113,401.5 112,400.4 	"/>
	<polygon fill="#FFFFFF" points="109.4,358.9 109.5,359.2 112.6,362.2 114.8,359.9 	"/>
	<polygon fill="#FFFFFF" points="114.9,378.8 112.8,380.3 115.9,381.1 	"/>
	<polygon fill="#FFFFFF" points="104.8,370 95.7,372.2 102.5,372.2 	"/>
	<polygon fill="#FFFFFF" points="93.8,375.2 95,375.5 96.8,374.8 93.5,374.8 	"/>
	<polygon fill="#FFFFFF" points="106.7,381.3 99.2,379.3 98.2,380.3 101.9,384.6 	"/>
	<polygon fill="#FFFFFF" points="91.7,399.1 96.5,401.6 106.1,403 108.6,400.3 110.1,398.2 101.4,388.1 90.8,395.4 90.8,396.5 	"/>
	<polygon fill="#FFFFFF" points="107.9,406 107.1,407 112,409.6 115.6,407 108.1,405.9 	"/>
	<path fill="#FFFFFF" d="M42.5,215.4c-0.3,0.4-0.6,0.8-1,1.2C41.8,216.2,42.2,215.8,42.5,215.4z"/>
	<polygon fill="#FFFFFF" points="90.7,377 89.8,376.8 89.8,377.3 	"/>
	<polygon fill="#FFFFFF" points="111.1,369.7 110.6,368.5 109.7,368.8 107.4,371 	"/>
	<polygon fill="#FFFFFF" points="94.7,380.2 93.5,378.8 89.9,380.1 90.2,384.6 	"/>
	<polygon fill="#FFFFFF" points="99.7,386.1 96.3,382.1 90.4,388.1 90.6,392.4 	"/>
	<polygon fill="#FFFFFF" points="54.4,379.8 59.8,378.4 58.5,375.7 53.6,376.5 54,379.6 	"/>
	<polygon fill="#FFFFFF" points="62.7,387 54.4,382.7 55.4,389.7 	"/>
	<polygon fill="#FFFFFF" points="61.2,350.2 51,348.3 49.9,349.1 50.4,353.3 52.8,358.2 	"/>
	<polygon fill="#FFFFFF" points="69.1,397.5 65,389 55.7,392.3 56.1,395.6 	"/>
	<polygon fill="#FFFFFF" points="51,376.8 49.2,377.1 51.2,378.1 	"/>
	<polygon fill="#FFFFFF" points="44.8,377.8 36.2,379 36.1,384.3 50.5,380.7 	"/>
	<polygon fill="#FFFFFF" points="104.5,374.8 103.1,375.3 101.3,377.2 109.5,379.4 113.9,376.3 113.3,374.8 	"/>
	<polygon fill="#FFFFFF" points="83,411.5 78.1,404.2 76,405.6 79.5,412.7 	"/>
	<polygon fill="#FFFFFF" points="71.8,403 70.6,400.4 65.7,409.2 	"/>
	<polygon fill="#FFFFFF" points="109.3,365.4 107.3,360.6 104.8,358.1 95.3,356.4 89.2,367.1 89.3,368.5 109.2,365.5 	"/>
	<polygon fill="#FFFFFF" points="79.3,395.6 74.6,393.2 74.3,393.9 77,397.9 	"/>
	<polygon fill="#FFFFFF" points="76.6,402 76.6,402 76.3,402.2 	"/>
	<polygon fill="#FFFFFF" points="138.5,356.9 131.6,346.8 128,350.4 132,360.4 132.5,360.5 136.8,359.4 	"/>
	<polygon fill="#FFFFFF" points="152.5,336.7 154.8,333.2 146.7,332.6 151.2,335.9 	"/>
	<polygon fill="#FFFFFF" points="153.4,366.9 154.4,368 154.6,367.1 	"/>
	<polygon fill="#FFFFFF" points="151.5,359.2 153.1,359 152.8,358.1 152,358.3 	"/>
	<polygon fill="#FFFFFF" points="156.6,345.7 152.1,341.8 150.2,344.6 152.3,349.9 155.3,347.8 	"/>
	<polygon fill="#FFFFFF" points="164.4,372.2 168.1,369.6 159.5,368 161.2,372.2 	"/>
	<polygon fill="#FFFFFF" points="154.1,387.8 159,386.2 155.8,381.6 154,382.8 153.6,384.9 	"/>
	<polygon fill="#FFFFFF" points="170.6,372.2 171.7,370.2 171.7,370.2 168.8,372.2 	"/>
	<polygon fill="#FFFFFF" points="150.1,340.1 147.5,337.8 149,341.7 	"/>
	<polygon fill="#FFFFFF" points="116.3,313.5 116.3,313.5 112.5,310.7 112,311 112.4,311.9 116,314.1 	"/>
	<polygon fill="#FFFFFF" points="134,292 137.2,292.9 136.8,290.1 	"/>
	<polygon fill="#FFFFFF" points="138.2,274.4 137,274 137.3,276 	"/>
	<polygon fill="#FFFFFF" points="127.6,377.3 128.8,378.5 132.2,374.8 129.3,374.8 	"/>
	<polygon fill="#FFFFFF" points="132.9,369.6 131.1,372.2 134,372.2 	"/>
	<polygon fill="#FFFFFF" points="226.5,339.9 224.4,343.1 227.4,347.9 241.9,345.7 245.7,339.8 231.1,338.7 	"/>
	<polygon fill="#FFFFFF" points="213.7,340.4 218.9,339.1 218.1,337.8 217.3,337.7 213.7,340.3 	"/>
	<polygon fill="#FFFFFF" points="248.3,335.7 247.5,334.7 247.5,334.7 248.1,336 	"/>
	<polygon fill="#FFFFFF" points="143.8,282.3 144.3,281.9 140.9,277.2 138.2,279.8 138,280.2 138.4,283.3 	"/>
	<polygon fill="#FFFFFF" points="245.3,345.2 248,344.8 247,342.6 	"/>
	<polygon fill="#FFFFFF" points="198.6,195.6 206.4,210.6 207.5,209.6 209.1,198 200,195.3 	"/>
	<polygon fill="#FFFFFF" points="170,359.1 158.5,360.8 157.9,364 158.4,365.2 171,367.5 172.1,366.7 	"/>
	<polygon fill="#FFFFFF" points="209.7,193.6 205.8,194.3 209.5,195.4 	"/>
	<polygon fill="#FFFFFF" points="215.7,335 216.4,335.1 216.3,334.8 	"/>
	<polygon fill="#FFFFFF" points="180.5,354 182.2,350.8 177.3,352 	"/>
	<polygon fill="#FFFFFF" points="179.4,361.5 180.6,360.7 180.1,360.3 	"/>
	<polygon fill="#FFFFFF" points="182.8,359.1 183.3,358.8 181.5,357.7 181.3,358 	"/>
	<polygon fill="#FFFFFF" points="189.2,338 189.5,335.7 185.8,335.4 188.5,339.2 	"/>
	<polygon fill="#FFFFFF" points="188.2,345.4 187.3,346.9 188,346.7 	"/>
	<polygon fill="#FFFFFF" points="190.4,222.4 192.9,222.8 194,222.6 195.7,220.9 189.9,207 187.8,217.2 	"/>
	<polygon fill="#FFFFFF" points="231.5,265.4 231.9,265.4 231.7,265 	"/>
	<polygon fill="#FFFFFF" points="229.5,279 240.6,289.1 243.3,287.2 233.8,269 230,273.1 	"/>
	<polygon fill="#FFFFFF" points="202.4,299.1 202.3,299 202.3,299.1 	"/>
	<polygon fill="#FFFFFF" points="241.5,256.9 239.2,251.3 233.2,262.2 234.4,264.5 	"/>
	<polygon fill="#FFFFFF" points="230.4,268.9 231,268.2 230.4,268.3 	"/>
	<polygon fill="#FFFFFF" points="231.2,258.4 231.8,259.4 235.9,251.8 231.6,253.9 	"/>
	<polygon fill="#FFFFFF" points="208.5,292.4 199.1,287.4 201.5,295.9 204.3,297 	"/>
	<polygon fill="#FFFFFF" points="206.7,342.1 210.7,339.2 210.1,337.2 209.7,337.2 200.8,340.3 203.2,343 	"/>
	<polygon fill="#FFFFFF" points="193.2,336 193.1,336.3 194,340 196.4,339.2 193.6,336 	"/>
	<polygon fill="#FFFFFF" points="141.9,214.5 137.7,207.8 132.9,212.8 133,213.1 	"/>
	<polygon fill="#FFFFFF" points="195.3,344.9 200.3,343.7 198.2,341.3 194.7,342.5 	"/>
	<polygon fill="#FFFFFF" points="196.4,349.4 200.9,346.2 195.9,347.4 	"/>
	<polygon fill="#FFFFFF" points="199,338.2 203.3,336.7 197.3,336.3 	"/>
	<polygon fill="#FFFFFF" points="173.5,322.7 168.1,331.6 172,331.8 176.5,327 	"/>
	<polygon fill="#FFFFFF" points="148,257 157.6,239.9 156.5,238.2 140.7,241.7 144.4,255 	"/>
	<polygon fill="#FFFFFF" points="180.8,220.8 184.3,221.4 185.1,217.6 179.4,206.3 177.6,209.4 	"/>
	<polygon fill="#FFFFFF" points="180.6,198.8 178.6,199.2 179.5,200.8 	"/>
	<polygon fill="#FFFFFF" points="230.1,228.8 230,228.7 229.9,228.8 	"/>
	<polygon fill="#FFFFFF" points="151.6,230.2 143.7,217.4 133.7,215.8 138.3,232.5 	"/>
	<polygon fill="#FFFFFF" points="132.1,209.9 134.9,207 131.5,207.6 	"/>
	<polygon fill="#FFFFFF" points="155.1,235.8 153,232.5 138.9,235.1 140.1,239.2 	"/>
	<polygon fill="#FFFFFF" points="231.2,221.4 230,221.7 230.4,222.8 	"/>
	<polygon fill="#FFFFFF" points="185.4,229 187.8,228.5 189.7,226.7 189.4,226 185.9,226.7 	"/>
	<polygon fill="#FFFFFF" points="188.6,197.4 189,198.3 189.2,197.3 	"/>
	<polygon fill="#FFFFFF" points="186.9,221.8 187.3,221.8 187,221.3 	"/>
	<polygon fill="#FFFFFF" points="192.5,194 194.4,193.7 192.7,193.2 	"/>
	<polygon fill="#FFFFFF" points="118.4,409.3 118.9,408.5 118.6,408.1 118.4,408.2 	"/>
	<polygon fill="#FFFFFF" points="257.2,320.1 245.8,324.2 254.1,326.6 258,320.4 	"/>
	<polygon fill="#FFFFFF" points="279.7,252.6 269.4,243.4 268.3,258.4 277,256.7 	"/>
	<polygon fill="#FFFFFF" points="267.5,270.6 268.6,269.8 269.7,268.1 267.9,264.1 	"/>
	<polygon fill="#FFFFFF" points="242,246 256.7,239 255.1,235.4 248.4,234.4 	"/>
	<polygon fill="#FFFFFF" points="174.5,334.6 173.1,334.5 170.4,337.4 	"/>
	<polygon fill="#FFFFFF" points="266,234.6 267.4,233.9 267.5,232.5 265.7,234.5 	"/>
	<polygon fill="#FFFFFF" points="246.6,262.6 265.6,258.9 258.3,242.6 244.5,257.4 	"/>
	<polygon fill="#FFFFFF" points="267.2,238 267.2,237.4 266.4,237.3 266.3,237.3 	"/>
	<polygon fill="#FFFFFF" points="233.7,229.4 243.5,230.9 249,225.4 241.9,219.1 241.5,219.1 234.1,224.2 	"/>
	<polygon fill="#FFFFFF" points="264.7,314.7 264.8,314.7 264.7,314.6 	"/>
	<polygon fill="#FFFFFF" points="247.6,265 253.7,280.1 264.8,272.4 265.5,261.6 	"/>
	<polygon fill="#FFFFFF" points="259,237.9 259,237.9 260.5,236.3 258.2,235.9 	"/>
	<polygon fill="#FFFFFF" points="190.8,202.5 197.7,219 204.5,212.5 195.9,196.1 192,196.8 	"/>
	<polygon fill="#FFFFFF" points="275.1,259.7 269.3,260.8 271.4,265.5 	"/>
	<polygon fill="#FFFFFF" points="170.2,182.6 171.1,184.3 171.7,184.4 180.6,185.1 176.9,176.1 169,178 	"/>
	<polygon fill="#FFFFFF" points="169.1,175.3 175.8,173.6 174.3,169.9 	"/>
	<polygon fill="#FFFFFF" points="120.8,183.6 120.4,183.5 120.4,187.5 121.4,187.2 120.9,183.7 	"/>
	<polygon fill="#FFFFFF" points="212.4,193.1 212,196.1 217.4,197.7 217.3,197.3 212.5,193.1 	"/>
	<polygon fill="#FFFFFF" points="120.2,207 124.3,206.3 121.8,189.8 120.3,190.2 	"/>
	<polygon fill="#FFFFFF" points="122.9,401.8 123.5,400.7 118.4,402.4 118.4,403.9 119,404.6 	"/>
	<polygon fill="#FFFFFF" points="235.3,209.8 237.2,211.5 239.9,206.9 235.7,205.7 	"/>
	<polygon fill="#FFFFFF" points="214.3,190 212.9,189.9 212.9,189.9 213.3,190.3 214.4,190.1 	"/>
	<polygon fill="#FFFFFF" points="234.9,215.3 234.9,215.2 235.8,213.7 235,213 	"/>
	<polygon fill="#FFFFFF" points="236.6,194.2 235.9,203 241.3,204.6 	"/>
	<polygon fill="#FFFFFF" points="210.5,206.7 217.2,200.3 211.6,198.7 	"/>
	<polygon fill="#FFFFFF" points="209.2,215.9 211,219.5 225.3,217 219.2,202 209.9,210.9 	"/>
	<polygon fill="#FFFFFF" points="260.6,240 260.2,240.5 266.1,253.6 266.9,241.3 263.8,238.5 	"/>
	<polygon fill="#FFFFFF" points="121,358.4 120.9,357.5 120.2,358.2 	"/>
	<polygon fill="#FFFFFF" points="135.4,329.2 119.5,319.4 120.2,326 121.7,328.2 	"/>
	<polygon fill="#FFFFFF" points="124,387.5 122.2,389.5 124.9,396 	"/>
	<polygon fill="#FFFFFF" points="121.1,386.8 121.1,386.9 122.3,385.5 122,385.5 	"/>
	<polygon fill="#FFFFFF" points="153.8,403.4 152.3,393.6 151.9,393.5 150.5,400.3 153.7,403.5 	"/>
	<polygon fill="#FFFFFF" points="149.7,404 151.3,407.9 152.4,405.9 149.9,403.3 	"/>
	<polygon fill="#FFFFFF" points="184.7,369.8 179.1,365 176.6,366.7 175.7,368.3 184.7,370 	"/>
	<polygon fill="#FFFFFF" points="180.9,203.6 185.9,213.5 188.1,202.8 186,197.8 183.9,198.2 	"/>
	<polygon fill="#FFFFFF" points="186.6,188.1 184.7,187.9 184.8,188.2 186.3,188.7 	"/>
	<polygon fill="#FFFFFF" points="165.7,230.7 166.4,233.3 173.3,231.7 172.4,230.6 171,229.3 166,230.2 	"/>
	<polygon fill="#FFFFFF" points="174.7,197.2 173.7,195.1 174.3,197.3 	"/>
	<polygon fill="#FFFFFF" points="167.6,227.3 168.6,227.1 168,226.5 	"/>
	<polygon fill="#FFFFFF" points="182.2,195.9 183.9,192.8 182.9,190.4 172.7,187.4 177.4,196.7 	"/>
	<polygon fill="#FFFFFF" points="203.1,371.5 203.3,371.1 201.8,370.2 202.2,371.8 	"/>
	<polygon fill="#FFFFFF" points="221.1,348.4 220.7,348.9 221,348.9 	"/>
	<polygon fill="#FFFFFF" points="220.3,341.4 214.4,342.9 216.2,349.6 217.3,349.4 221.4,343.1 	"/>
	<polygon fill="#FFFFFF" points="208.8,353.3 199.6,354.7 207.1,365.2 212.3,357.2 	"/>
	<polygon fill="#FFFFFF" points="232.4,360.9 226.1,350.7 223.4,351.1 222.3,364.7 222.6,365 231.6,362 	"/>
	<polygon fill="#FFFFFF" points="207.4,370.1 207.2,369.8 207,370.2 	"/>
	<polygon fill="#FFFFFF" points="229.4,365.5 224.5,367.1 226.8,369.7 	"/>
	<polygon fill="#FFFFFF" points="176.3,372.2 182.7,372.2 175.9,371 	"/>
	<polygon fill="#FFFFFF" points="184,374.8 177,374.8 178.3,379.8 183.5,378 	"/>
	<polygon fill="#FFFFFF" points="183.1,380.9 179,382.3 181.6,391.7 	"/>
	<polygon fill="#FFFFFF" points="256.1,329.9 255.2,329.6 254.9,330.2 	"/>
	<polygon fill="#FFFFFF" points="205.6,367.6 198.6,357.8 200.9,366.6 204.7,369 	"/>
	<polygon fill="#FFFFFF" points="200.6,380.1 202,381.3 201.4,378.9 	"/>
	<polygon fill="#FFFFFF" points="249.7,231.9 253.8,232.6 251.8,228 	"/>
	<polygon fill="#FFFFFF" points="36.3,362.4 36.2,370.4 38.8,371.7 45.8,364.9 	"/>
	<polygon fill="#FFFFFF" points="40.9,375.7 39.2,374.9 37.9,376.2 	"/>
	<polygon fill="#FFFFFF" points="76.2,203.9 77.1,204 76.4,203.2 	"/>
	<polygon fill="#FFFFFF" points="72.9,214.6 73.3,215.4 78.4,214.5 78,206.8 75.4,206.4 	"/>
	<polygon fill="#FFFFFF" points="49.5,365.9 48.7,365.7 42,372.2 50.4,372.2 	"/>
	<polygon fill="#FFFFFF" points="46.8,374.8 44.8,374.8 45.2,375.1 	"/>
	<polygon fill="#FFFFFF" points="71.4,210.8 72.8,206 69.2,205.4 	"/>
	<polygon fill="#FFFFFF" points="68.8,245 79.9,243 79.7,238.1 71.9,219 71.6,218.9 64.1,243.2 	"/>
	<polygon fill="#FFFFFF" points="71.2,394 68.5,390 68.3,389.9 70.7,394.8 	"/>
	<polygon fill="#FFFFFF" points="90.3,215 100.4,226.5 95.5,214.1 	"/>
	<polygon fill="#FFFFFF" points="73.6,203.5 74.2,201.7 69.6,202.8 	"/>
	<polygon fill="#FFFFFF" points="78.8,222.8 75.5,221 79.2,230.2 	"/>
	<polygon fill="#FFFFFF" points="96.6,209.8 97.1,211.2 100.8,210.5 	"/>
	<polygon fill="#FFFFFF" points="75,217.8 78.7,219.7 78.5,217.1 	"/>
	<polygon fill="#FFFFFF" points="17.6,306.5 17.6,306.4 15.5,306.4 15.7,306.8 	"/>
	<polygon fill="#FFFFFF" points="17.7,309.1 17.3,309.1 17.8,309.8 	"/>
	<path fill="#FFFFFF" d="M12.9,276.5c-0.3,1.2-0.5,2.5-0.7,3.8C12.4,279,12.6,277.7,12.9,276.5z"/>
	<polygon fill="#FFFFFF" points="81.3,376.1 81.2,375.8 64.8,379.9 68.3,385 78.2,381.5 	"/>
	<path fill="#FFFFFF" d="M16,282.8l-0.8-13l-0.8,0.2c-0.6,2.1-1,4.3-1.5,6.4L16,282.8z"/>
	<path fill="#FFFFFF" d="M15.3,266.9c0.5-1.9,1.1-3.8,1.7-5.7C16.4,263.1,15.8,265,15.3,266.9z"/>
	<polygon fill="#FFFFFF" points="17.2,261 17.6,266.6 28.2,264.2 	"/>
	<polygon fill="#FFFFFF" points="34.9,237.5 34.7,236.9 34.8,237.4 	"/>
	<path fill="#FFFFFF" d="M35,225.2c-0.3,0.5-0.7,1-1,1.5l1,3L35,225.2z"/>
	<path fill="#FFFFFF" d="M51.4,219.4l15.9-2.8l-16.7-8.9l-1.4,0.3c-0.6,0.6-1.2,1.3-1.8,1.9L51.4,219.4z"/>
	<path fill="#FFFFFF" d="M17.9,258.5l5.9,1.7l-5.3-3.3C18.3,257.5,18.1,258,17.9,258.5z"/>
	<polygon fill="#FFFFFF" points="34.7,256.6 34.4,253.8 21.9,256 33,262.9 33.5,263 34.7,262.8 	"/>
	<polygon fill="#FFFFFF" points="34.6,266.9 32.9,265.8 19.6,268.8 34.5,283.7 	"/>
	<polygon fill="#FFFFFF" points="79.5,329 81.3,330.8 84.2,328.1 81.1,327.8 	"/>
	<polygon fill="#FFFFFF" points="86.6,371.8 86.9,371.7 86.9,371.5 86.8,371.5 	"/>
	<polygon fill="#FFFFFF" points="84.9,280.5 85.9,281.4 85.4,280.7 	"/>
	<polygon fill="#FFFFFF" points="86.1,309.7 86.7,320.1 89.9,318.6 	"/>
	<polygon fill="#FFFFFF" points="84.9,287.3 91.7,292.2 93.3,291.9 91.9,290 84.7,283.8 	"/>
	<polygon fill="#FFFFFF" points="44.6,249.3 40.4,245.6 41.8,249.8 	"/>
	<polygon fill="#FFFFFF" points="38.3,253.1 40.7,254.8 40,252.8 	"/>
	<polygon fill="#FFFFFF" points="47.6,259.9 54,258.4 50,253.9 47.2,251.5 42.6,252.3 44.3,257.5 	"/>
	<polygon fill="#FFFFFF" points="83.2,332.6 84.9,334.4 84.7,331.2 	"/>
	<polygon fill="#FFFFFF" points="85.5,298.4 85.7,301.9 86.2,303 92.8,302.9 	"/>
	<polygon fill="#FFFFFF" points="60.5,305.9 62.5,311.9 75.4,324.8 76.7,324.9 84.2,321.4 83.3,305.6 	"/>
	<path fill="#FFFFFF" d="M24.3,243.5c-0.3,0.5-0.5,1.1-0.8,1.6C23.7,244.5,24,244,24.3,243.5z"/>
	<polygon fill="#FFFFFF" points="86.4,295.9 88,296.8 87,295.8 	"/>
	<polygon fill="#FFFFFF" points="103,309.9 103.3,309.7 103.5,309.5 101.5,308.3 	"/>
	<polygon fill="#FFFFFF" points="88,293 88.2,292.9 87.5,292.4 	"/>
	<polygon fill="#FFFFFF" points="84.5,399.8 88.4,400.4 88.4,400.3 85.7,398.9 	"/>
	<polygon fill="#FFFFFF" points="88.1,397.2 88.3,397.3 88.3,397.1 	"/>
	<polygon fill="#FFFFFF" points="86.6,391.9 83.6,394.9 85.5,395.9 87.4,394.6 	"/>
	<polygon fill="#FFFFFF" points="85.8,381.5 87.7,387.1 87.7,387.1 87.4,381 	"/>
	<polygon fill="#FFFFFF" points="66.7,348.5 67.7,348.7 67.1,348 	"/>
	<polygon fill="#FFFFFF" points="101.8,305.4 103.3,306.3 102.6,305.3 	"/>
	<polygon fill="#FFFFFF" points="105.4,301.6 99.8,296.8 101.9,299.7 105.8,302.6 	"/>
	<polygon fill="#FFFFFF" points="68.1,336.7 63.5,339.8 67.3,344.3 69.8,341.9 	"/>
	<polygon fill="#FFFFFF" points="84.6,375.4 84.1,376.3 85,379.1 87.3,378.3 87.1,376.1 	"/>
	<polygon fill="#FFFFFF" points="82.6,379.9 82.4,379.4 81.9,380.2 	"/>
	<polygon fill="#FFFFFF" points="85.2,369.1 79.4,362.4 81.8,369.6 85.2,369.1 	"/>
	<polygon fill="#FFFFFF" points="82.9,372.2 83.4,372.2 83.6,372 82.7,372.1 82.7,372.2 	"/>
	<path fill="#FFFFFF" d="M10,298.3c-0.1,1.4-0.1,2.8-0.1,4.2C9.9,301.1,9.9,299.7,10,298.3z"/>
	<polygon fill="#FFFFFF" points="115.4,414.3 112.2,412.6 99.3,421.8 100.2,424.6 108.7,425.5 	"/>
	<polygon fill="#FFFFFF" points="88.4,426 87.3,427.1 88.9,426 	"/>
	<polygon fill="#FFFFFF" points="107.2,428 101.1,427.3 103.4,434.2 	"/>
	<polygon fill="#FFFFFF" points="116.1,374.8 116.1,374.8 116.1,374.8 	"/>
	<polygon fill="#FFFFFF" points="162.2,433.8 161.8,433.7 161.9,434.1 	"/>
	<polygon fill="#FFFFFF" points="116.1,370.7 114.6,371.2 115,372.2 116.1,372.2 	"/>
	<polygon fill="#FFFFFF" points="69.8,387.3 70.3,388 73.6,389.7 76.3,384.9 	"/>
	<polygon fill="#FFFFFF" points="169.7,423.3 160.1,413.6 157.9,413.3 160.4,430.5 160.7,431 164.5,431.4 	"/>
	<polygon fill="#FFFFFF" points="74,400.9 73.6,400.8 73.8,401.1 	"/>
	<polygon fill="#FFFFFF" points="53,366.9 52.2,366.7 53,372.2 56.6,372.2 	"/>
	<polygon fill="#FFFFFF" points="72.8,396.4 72.1,397.7 72.3,398 74.1,398.2 	"/>
	<polygon fill="#FFFFFF" points="84.5,413.8 80.6,415 84.5,422.9 87.4,423.2 89.4,421.1 	"/>
	<polygon fill="#FFFFFF" points="88.6,429.4 87.9,429.9 88,430.2 	"/>
	<polygon fill="#FFFFFF" points="190.4,434.2 190,432.6 189.1,434 	"/>
	<polygon fill="#FFFFFF" points="257.6,374.8 244.5,374.8 244.2,375.1 248.2,381.5 257,383.1 	"/>
	<polygon fill="#FFFFFF" points="256.9,385.7 250,384.5 256.3,394.6 	"/>
	<polygon fill="#FFFFFF" points="218.4,380.5 217.8,380.1 218.3,380.9 	"/>
	<polygon fill="#FFFFFF" points="218.8,374.8 214.2,374.8 215.4,375.5 218.7,376.2 	"/>
	<polygon fill="#FFFFFF" points="259,355.6 258.2,355.9 258.9,357.1 	"/>
	<polygon fill="#FFFFFF" points="259.3,351 255.9,346.3 253.6,346.6 257.1,353.5 259.2,352.8 	"/>
	<polygon fill="#FFFFFF" points="195.6,418.9 188.7,417.8 191,426.2 	"/>
	<polygon fill="#FFFFFF" points="216.9,397.6 215.8,396.6 210.1,400.9 209.9,401.2 211.3,406.8 216,408.1 	"/>
	<polygon fill="#FFFFFF" points="177.5,420.3 176.4,417.7 173,422.9 174.6,424.5 177.2,422.5 	"/>
	<polygon fill="#FFFFFF" points="53.5,395.2 53.2,393.2 49.4,394.6 	"/>
	<polygon fill="#FFFFFF" points="114,316 114.4,316.9 114.7,316.4 	"/>
	<polygon fill="#FFFFFF" points="215.1,419.1 215.8,410.7 212.1,409.7 214.5,419 	"/>
	<path fill="#FFFFFF" d="M31.8,234.8l-0.2-1.4l-1.6-0.6c-0.1,0.1-0.1,0.2-0.2,0.3L31.8,234.8z"/>
	<polygon fill="#FFFFFF" points="34.1,325.7 33.4,324.4 27.3,323.9 33.7,333.5 34,332.5 	"/>
	<polygon fill="#FFFFFF" points="33.9,348.2 31.6,349.3 29,357.7 31.5,358.4 33.8,356.8 	"/>
	<polygon fill="#FFFFFF" points="34.2,309.6 31.5,306.4 27.9,307.1 31.4,314.3 34.2,311.4 	"/>
	<polygon fill="#FFFFFF" points="33.9,345.2 32.9,345 32.6,346 33.9,345.4 	"/>
	<polygon fill="#FFFFFF" points="34.4,287.4 17.9,270.7 19,287.8 32.5,303.6 34.3,303.2 	"/>
	<polygon fill="#FFFFFF" points="33.9,341.6 33.7,342.5 33.9,342.6 	"/>
	<polygon fill="#FFFFFF" points="34.2,315.2 32.6,316.8 34.1,319.9 	"/>
	<path fill="#FFFFFF" d="M30.6,231.9c-0.1,0.2-0.3,0.5-0.4,0.7C30.3,232.4,30.5,232.1,30.6,231.9z"/>
	<path fill="#FFFFFF" d="M33.8,249.8l-1.5-11.1l-3.8-3.3c-1.4,2.5-2.8,5-4,7.5L33.8,249.8z"/>
	<path fill="#FFFFFF" d="M31.9,251.6l-8.5-6.2c-1.3,2.8-2.5,5.6-3.6,8.4L31.9,251.6z"/>
	<path fill="#FFFFFF" d="M10.7,303.9l-0.8-1.2c0,0.4,0,0.8,0,1.2L10.7,303.9z"/>
	<path fill="#FFFFFF" d="M17.4,303.8l-0.9-14.2l-0.8-1.7l-4-4.7c-0.8,4.9-1.3,9.9-1.6,15l3.8,5.6L17.4,303.8z"/>
	<polygon fill="#FFFFFF" points="72,327.2 67.5,326.9 68.2,329 	"/>
	<polygon fill="#FFFFFF" points="30.7,318.8 28.2,321.4 32.1,321.7 	"/>
	<polygon fill="#FFFFFF" points="19.4,355.1 20.7,355.5 20.6,354.5 	"/>
	<polygon fill="#FFFFFF" points="20,303.8 23.4,303.8 19.5,295.8 	"/>
	<polygon fill="#FFFFFF" points="29.1,303.7 22.4,295.8 26.2,303.7 	"/>
	<polygon fill="#FFFFFF" points="29.5,316.3 25.3,307.6 20.3,308.6 20.6,314.1 25.2,320.8 	"/>
	<polygon fill="#FFFFFF" points="28.4,350.9 23.2,353.3 23.4,356.2 26.5,357 	"/>
	<polygon fill="#FFFFFF" points="24.6,363 25.7,359.5 23.5,358.9 23.8,363.6 	"/>
	<polygon fill="#FFFFFF" points="33.7,361.7 31.9,361.2 26.9,364.7 26.6,365.4 33.7,369.1 	"/>
	<polygon fill="#FFFFFF" points="29.4,347.5 30.3,344.5 22.5,343.1 23,350.5 	"/>
	<polygon fill="#FFFFFF" points="28.1,360.7 28.6,360.3 28.2,360.2 	"/>
	<polygon fill="#FFFFFF" points="31.1,342 32.7,336.7 24.8,324.9 21.6,328.3 22.3,340.5 	"/>
	<polygon fill="#FFFFFF" points="22.1,321 21,319.3 21.1,320.9 	"/>
	<polygon fill="#FFFFFF" points="22.5,323.6 21.3,323.5 21.3,324.8 	"/>
	<polygon fill="#FFFFFF" points="176.7,426.1 176.4,426.3 176.6,426.6 	"/>
	<polygon fill="#FFFFFF" points="102.7,182.3 85.2,181.1 90.6,194.9 103.6,191.7 	"/>
	<polygon fill="#FFFFFF" points="80.8,188.8 86,196.1 88.1,195.5 82.8,182.3 	"/>
	<polygon fill="#FFFFFF" points="81.1,216.7 81.3,221.2 102.1,232.3 87.3,215.6 	"/>
	<polygon fill="#FFFFFF" points="79.8,192.2 80.1,197.5 83.3,196.7 79.9,192 	"/>
	<polygon fill="#FFFFFF" points="83.9,207.8 88.3,212.7 94,211.7 92.1,209.1 	"/>
	<polygon fill="#FFFFFF" points="86.5,366.7 86.6,366.5 86,354.7 76.2,352.9 77.2,355.8 	"/>
	<polygon fill="#FFFFFF" points="59.6,239.1 61.7,242.2 68.9,218.9 52.4,221.8 	"/>
	<polygon fill="#FFFFFF" points="37.3,256.4 38.1,262 42.8,261 42.1,259.1 37.4,255.6 	"/>
	<polygon fill="#FFFFFF" points="48.1,222.6 52.6,229.1 49.8,222.3 	"/>
	<polygon fill="#FFFFFF" points="37.1,286.3 39,288.3 37.2,274.5 	"/>
	<polygon fill="#FFFFFF" points="37.4,250.6 39.2,250.3 37.5,245.1 	"/>
	<polygon fill="#FFFFFF" points="37.5,235.9 48.7,248.6 59.9,246.6 58.8,243.9 37.5,235.7 	"/>
	<polygon fill="#FFFFFF" points="37.7,224.5 37.6,233 57.4,240.6 57.3,240.3 45.3,223.1 	"/>
	<polygon fill="#FFFFFF" points="112,288.4 101.6,285.4 103.5,290 	"/>
	<polygon fill="#FFFFFF" points="105,238 104.4,236.5 81.5,224.2 82.2,237.6 84.1,242.2 104.5,238.6 	"/>
	<polygon fill="#FFFFFF" points="94.5,294.3 95.4,294.9 94.9,294.3 	"/>
	<polygon fill="#FFFFFF" points="95.6,305.4 87.2,305.5 92.1,317.3 100.8,311.4 	"/>
	<polygon fill="#FFFFFF" points="100,301.5 91.1,295 90,295.2 95.6,301.5 97.6,302.8 100.8,302.8 	"/>
	<polygon fill="#FFFFFF" points="92.1,324 90.2,325.9 93,326.1 	"/>
	<polygon fill="#FFFFFF" points="90.9,321.2 86.9,323.9 87,325.4 91.1,321.5 	"/>
	<polygon fill="#FFFFFF" points="103.2,296.3 101.9,292.9 99.8,293.3 	"/>
	<polygon fill="#FFFFFF" points="101.4,241.8 85.1,244.7 87.6,250.9 93.9,249.5 	"/>
	<polygon fill="#FFFFFF" points="36.9,302.7 40.9,302 39.6,292.6 37,290 	"/>
	<polygon fill="#FFFFFF" points="90.7,252.9 89.9,253.1 90.3,253.2 	"/>
	<polygon fill="#FFFFFF" points="89.4,281.8 93.9,288.2 97.3,291.2 100.9,290.5 98.4,284.4 	"/>
	<polygon fill="#FFFFFF" points="83.7,263.9 84.2,274.4 87,278.5 97.2,281.4 88.2,259.2 	"/>
	<polygon fill="#FFFFFF" points="87.6,198.3 91.2,203.4 89.1,198 	"/>
	<polygon fill="#FFFFFF" points="96.2,349.4 87.8,341 88.5,352.5 93.9,353.5 	"/>
	<polygon fill="#FFFFFF" points="36.8,308.7 36.8,308.7 39.3,306.1 36.9,306.2 	"/>
	<polygon fill="#FFFFFF" points="99.9,342.8 94.1,328.8 87.7,328.3 87.2,328.8 87.6,337.1 97.5,347.1 	"/>
	<polygon fill="#FFFFFF" points="88.9,409.5 88.6,403 81.3,401.9 80.2,402.7 85.5,410.7 	"/>
	<polygon fill="#FFFFFF" points="98.1,351.3 96.6,354 101.6,354.9 	"/>
	<polygon fill="#FFFFFF" points="89.1,412.2 87,412.9 89.3,416.3 	"/>
	<polygon fill="#FFFFFF" points="106.5,306.3 106.6,306.5 106.7,306.5 	"/>
	<polygon fill="#FFFFFF" points="83.1,397.6 81.7,396.8 79.5,399 80.7,399.2 	"/>
	<polygon fill="#FFFFFF" points="101.2,345.8 99.4,349 104.7,354.3 	"/>
	<polygon fill="#FFFFFF" points="112.9,325 111.5,327.4 115.3,327.7 	"/>
	<polygon fill="#FFFFFF" points="112.8,319.9 107.9,312.9 106.3,313.7 112.4,320.5 	"/>
	<polygon fill="#FFFFFF" points="97,329 101.5,339.9 107.2,329.7 	"/>
	<polygon fill="#FFFFFF" points="66.6,324.2 71.4,324.5 64.4,317.5 	"/>
	<polygon fill="#FFFFFF" points="88.6,355.1 89,362.3 92.6,355.9 	"/>
	<polygon fill="#FFFFFF" points="36.4,355.1 42.3,351 39,346.1 38.5,346 36.5,347 	"/>
	<polygon fill="#FFFFFF" points="36.5,343 37,343.1 36.5,342.4 	"/>
	<polygon fill="#FFFFFF" points="81.2,393.6 85.6,389.2 83.4,382.4 80,383.6 75.9,390.9 	"/>
	<polygon fill="#FFFFFF" points="36.3,359.7 48,362.8 49,361.9 48.8,360.7 43.8,353.2 36.4,358.2 	"/>
	<polygon fill="#FFFFFF" points="36.7,322 37.2,322.1 39.2,315.5 36.8,312.6 	"/>
	<polygon fill="#FFFFFF" points="36.6,337.8 39.8,342.5 41.8,341.6 37,331.6 36.6,332.9 	"/>
	<polygon fill="#FFFFFF" points="59.6,339.3 57.6,336.9 48.8,341.1 49.4,345.4 50.4,345.6 	"/>
	<polygon fill="#FFFFFF" points="57.9,381.6 62.6,384 61,380.8 	"/>
	<polygon fill="#FFFFFF" points="74.4,374.8 64.4,374.8 61.7,375.2 63.3,377.6 	"/>
	<polygon fill="#FFFFFF" points="56.2,365 76.2,370.4 79.2,370 74.9,357.1 70.4,351.8 64.4,350.7 54,360.6 	"/>
	<polygon fill="#FFFFFF" points="59.7,372.2 64.2,372.2 69.8,371.4 57.7,368.1 59.7,372.2 	"/>
	<polygon fill="#FFFFFF" points="65.5,346.1 61.3,341.3 54.1,346.2 63.5,347.9 	"/>
	<polygon fill="#FFFFFF" points="111,322.9 103.9,314.8 99.6,316.9 94.1,322.1 95.9,326.3 108.6,327.2 	"/>
	<polygon fill="#FFFFFF" points="46.1,262.9 47.5,267.1 53.6,268.8 53.9,267.7 47,262.7 	"/>
	<polygon fill="#FFFFFF" points="51.8,274.5 52.8,271.3 48.5,270.1 49.6,273.1 	"/>
	<polygon fill="#FFFFFF" points="51,277.1 50.8,276.9 51,277.3 	"/>
	<polygon fill="#FFFFFF" points="50.4,261.9 54.7,265.1 56,260.7 56,260.7 	"/>
	<polygon fill="#FFFFFF" points="70.8,273.5 71,273.3 70.2,271.3 64.5,266.4 	"/>
	<polygon fill="#FFFFFF" points="69.4,257.7 67.5,258.1 72.3,269.7 73.5,270.7 76.4,267.7 	"/>
	<polygon fill="#FFFFFF" points="47.9,297.2 53.1,291.9 51.1,285.8 47.6,296.9 	"/>
	<polygon fill="#FFFFFF" points="77.9,269.9 75.5,272.4 80.2,276.5 81.8,276.9 81.7,275.3 	"/>
	<polygon fill="#FFFFFF" points="78.9,278.8 75.7,277.9 76.7,280.1 79.4,283.2 82.2,285.3 82,281.5 	"/>
	<polygon fill="#FFFFFF" points="58.9,301.2 59.7,303.3 83.2,303 83.1,302.5 80.8,297 	"/>
	<polygon fill="#FFFFFF" points="50.4,303.4 49.9,302.9 47,303.5 	"/>
	<polygon fill="#FFFFFF" points="82.9,250.4 84.9,251.2 82.7,245.6 	"/>
	<polygon fill="#FFFFFF" points="86.3,254.5 85.3,254.1 83.2,254.6 83.5,260.4 87.1,256.6 	"/>
	<polygon fill="#FFFFFF" points="79.7,287.5 82.1,293.2 82.7,293.6 82.5,290.7 	"/>
	<polygon fill="#FFFFFF" points="56.1,269.5 56.5,269.7 56.1,269.4 	"/>
	<polygon fill="#FFFFFF" points="85.8,352 85.1,338.3 81.3,334.4 72.8,342.6 75.3,350.1 	"/>
	<polygon fill="#FFFFFF" points="54.1,275.9 63.1,281.5 67,277.4 62.6,274.1 55.3,272 	"/>
	<polygon fill="#FFFFFF" points="49,322.9 63.8,324 60.3,313.3 53,306 44.8,306.1 44.3,307.8 45.8,319.2 	"/>
	<polygon fill="#FFFFFF" points="43.5,301.5 44.7,297.7 42.6,295.6 43.4,301.5 	"/>
	<polygon fill="#FFFFFF" points="75.4,328.6 75.3,328.5 69.1,331.4 69.5,332.6 	"/>
	<polygon fill="#FFFFFF" points="57.8,305.9 56.6,305.9 58.4,307.8 	"/>
	<polygon fill="#FFFFFF" points="63.5,284.8 56.1,292.5 58.1,298.7 79.4,294.6 	"/>
	<polygon fill="#FFFFFF" points="69.2,278.9 65.4,282.9 78.3,290.9 75.2,283.4 	"/>
	<polygon fill="#FFFFFF" points="56.9,303.3 56.4,301.7 53,302.3 54,303.4 	"/>
	<polygon fill="#FFFFFF" points="50.8,300.1 55.5,299.2 54,294.6 49.7,299.1 	"/>
	<polygon fill="#FFFFFF" points="53.3,278.5 52.4,281.5 55.1,289.7 61.3,283.4 	"/>
	<polygon fill="#FFFFFF" points="42.1,314.9 42.7,315.6 42.5,313.8 	"/>
	<polygon fill="#FFFFFF" points="43,343.9 42.5,344.1 43.1,344.2 	"/>
	<polygon fill="#FFFFFF" points="38.1,328 44.2,340.4 46,339.6 44,325.2 39.1,324.8 	"/>
	<polygon fill="#FFFFFF" points="45.4,348.9 44.5,347.1 42.6,346.8 44.5,349.6 	"/>
	<polygon fill="#FFFFFF" points="45.6,294.9 49.6,281.5 47.4,274.8 39.1,269.7 42.1,291.3 	"/>
	<polygon fill="#FFFFFF" points="40.1,312.5 41.6,307.6 41.6,307.5 38.5,310.7 	"/>
	<polygon fill="#FFFFFF" points="43.4,320.3 41.2,317.8 39.9,322.2 43.7,322.5 	"/>
	<polygon fill="#FFFFFF" points="46.7,344.9 46.3,342.3 45.3,342.8 46.3,344.8 	"/>
	<polygon fill="#FFFFFF" points="47.9,354 46.6,351.3 45.9,351.7 48,354.8 	"/>
	<polygon fill="#FFFFFF" points="67.2,334.1 66.7,332.6 60,335.8 61.8,337.8 	"/>
	<polygon fill="#FFFFFF" points="77.3,330.4 70.3,335.2 71.9,339.9 79.5,332.6 	"/>
	<polygon fill="#FFFFFF" points="72.4,349.5 70.7,344.6 69,346.2 71.7,349.4 	"/>
	<polygon fill="#FFFFFF" points="55.8,334.9 47.8,325.4 46.7,325.3 48.4,338.4 	"/>
	<polygon fill="#FFFFFF" points="65.9,330.1 64.7,326.7 51.4,325.7 58.3,333.7 	"/>
	<polygon fill="#FFFFFF" points="79.7,268 81.4,270.4 81.2,266.5 	"/>
	<polygon fill="#FFFFFF" points="84.9,199 80.2,200.2 80.4,203.8 81.2,204.7 90,206.1 	"/>
	<polygon fill="#FFFFFF" points="73.5,246.8 80.3,249.4 80.1,245.6 	"/>
	<polygon fill="#FFFFFF" points="65.9,248.1 70.5,254.7 80.4,252.5 80.4,252.2 68.6,247.7 	"/>
	<polygon fill="#FFFFFF" points="72.1,257.1 78.2,265.8 81,262.9 80.6,255.2 	"/>
	<polygon fill="#FFFFFF" points="44.5,266.2 43.6,263.4 38.7,264.5 	"/>
	<polygon fill="#FFFFFF" points="66.5,255.7 67.8,255.4 64.3,250.3 	"/>
	<polygon fill="#FFFFFF" points="80.6,208 81,214.1 85.3,213.3 	"/>
	<polygon fill="#FFFFFF" points="46.1,271 45.5,269.2 41.2,267.9 	"/>
	<polygon fill="#FFFFFF" points="51.9,252.1 57.3,256.7 59.6,249.3 50.7,250.8 	"/>
	<polygon fill="#FFFFFF" points="59.9,257.1 63.9,256.2 61.7,251 	"/>
	<polygon fill="#FFFFFF" points="67.9,265.9 64.9,258.7 60.6,259.6 	"/>
	<polygon fill="#FFFFFF" points="56.9,266.7 63.7,271.7 66.5,272.5 58,263 	"/>
	<polygon fill="#FFFFFF" points="155.8,232 157.7,235.2 160.5,234.6 162.6,230.8 	"/>
	<polygon fill="#FFFFFF" points="119.5,286.9 124.1,286 119.6,274.7 	"/>
	<polygon fill="#FFFFFF" points="119.7,264.5 133.8,269.9 133.5,267.9 119.8,252.4 	"/>
	<polygon fill="#FFFFFF" points="119.9,235.8 128.5,234.3 126.3,219.7 120,226.2 	"/>
	<polygon fill="#FFFFFF" points="147.1,275.1 146.3,272 144.2,274 	"/>
	<polygon fill="#FFFFFF" points="119.8,248.5 122.6,251.6 119.8,247.8 	"/>
	<polygon fill="#FFFFFF" points="119.9,241.9 122.3,243.2 129.6,241.5 128.9,236.9 119.9,238.5 	"/>
	<polygon fill="#FFFFFF" points="124.6,289.3 125.2,288.7 125.1,288.5 123.1,288.9 	"/>
	<polygon fill="#FFFFFF" points="119.2,316.1 123.4,318.7 119.2,315.7 	"/>
	<polygon fill="#FFFFFF" points="119.4,294.2 122.4,291.4 119.4,290.5 	"/>
	<polygon fill="#FFFFFF" points="119.3,308.2 119.8,307.2 119.3,307.5 	"/>
	<polygon fill="#FFFFFF" points="118.9,355.9 120.5,354.2 119,339.6 	"/>
	<polygon fill="#FFFFFF" points="119.4,298.8 127.1,293.6 126.7,292.6 125.3,292.2 119.4,297.9 	"/>
	<polygon fill="#FFFFFF" points="119.3,302.5 122.5,302.5 124.9,298.2 119.3,302 	"/>
	<polygon fill="#FFFFFF" points="118.8,363.9 121.5,363.2 121.2,361.1 118.8,360.6 	"/>
	<polygon fill="#FFFFFF" points="187.1,173.5 190.8,180.6 193.3,176.1 189.7,172.9 	"/>
	<polygon fill="#FFFFFF" points="179.4,175.4 183.5,185.3 188,185.6 189.3,183.3 184.5,174.2 	"/>
	<polygon fill="#FFFFFF" points="160.1,209 167,218.6 169.3,218.9 174.8,209.1 172.4,200.3 158.5,202.8 	"/>
	<polygon fill="#FFFFFF" points="120,222.4 125.8,216.5 125.5,214.5 120.1,213.6 	"/>
	<polygon fill="#FFFFFF" points="195,188.6 196.5,191.6 200.1,192.7 210.1,190.9 208.6,189.6 	"/>
	<polygon fill="#FFFFFF" points="194.2,186 205.4,186.7 195.8,178.2 	"/>
	<polygon fill="#FFFFFF" points="194.1,173.3 194.5,171.7 192.8,172.1 	"/>
	<polygon fill="#FFFFFF" points="122,172.7 124.2,181 124.4,181.2 137.5,182.1 133,175.9 	"/>
	<polygon fill="#FFFFFF" points="120.1,211 125.1,211.8 124.7,208.9 120.2,209.7 	"/>
	<polygon fill="#FFFFFF" points="137.1,177.1 140.8,182.3 141,182.3 148.6,180.4 	"/>
	<polygon fill="#FFFFFF" points="129.4,187.9 142.2,199.5 146.6,194.8 139.8,185.3 	"/>
	<polygon fill="#FFFFFF" points="153.1,203.8 147.9,204.7 158.9,214.7 157.7,210.2 	"/>
	<polygon fill="#FFFFFF" points="144.1,201.3 145.4,202.5 151.4,201.4 148.2,197 	"/>
	<polygon fill="#FFFFFF" points="176.5,383.1 169.7,385.4 180.5,397.5 	"/>
	<polygon fill="#FFFFFF" points="193.5,377.4 185.9,380 183.3,398 183.7,399.4 184.9,399.7 197.2,380.6 	"/>
	<polygon fill="#FFFFFF" points="187.1,422 186.3,418.9 185.4,419.5 	"/>
	<polygon fill="#FFFFFF" points="118.8,367 119.9,366.6 118.8,366.7 	"/>
	<polygon fill="#FFFFFF" points="190.3,412.6 185.9,407.6 187.8,414.5 	"/>
	<polygon fill="#FFFFFF" points="225.6,190.7 218,192.1 219.4,195.7 220.7,196.9 227,190.8 	"/>
	<polygon fill="#FFFFFF" points="145.1,426.7 151.7,430.1 157.7,430.7 151,414 145.7,423.7 	"/>
	<polygon fill="#FFFFFF" points="167,386.3 166.8,386.3 170.6,395.8 177.1,397.6 	"/>
	<polygon fill="#FFFFFF" points="219.2,370.2 218.9,369 211.6,371.4 212.2,372.2 219.1,372.2 	"/>
	<polygon fill="#FFFFFF" points="206.9,400 203.2,385.7 199.2,382.3 187.5,400.4 201.4,404.1 	"/>
	<polygon fill="#FFFFFF" points="223.2,374.8 223.3,375.2 223.5,374.8 	"/>
	<polygon fill="#FFFFFF" points="223.9,387.2 222.8,383.2 221.7,382.5 220.7,384.1 223.2,387.7 	"/>
	<polygon fill="#FFFFFF" points="217.6,384.2 212.9,377.7 206.7,376.6 217.4,384.5 	"/>
	<polygon fill="#FFFFFF" points="216,386.7 203.8,377.7 205.5,384.3 213.3,391 	"/>
	<polygon fill="#FFFFFF" points="180.2,420.2 181.9,419 180.6,417.1 180.2,420 	"/>
	<polygon fill="#FFFFFF" points="120.7,410.5 119.1,413.2 126.1,416.8 	"/>
	<polygon fill="#FFFFFF" points="148.1,411.8 147.5,414.9 149.1,412 	"/>
	<polygon fill="#FFFFFF" points="124.9,349.8 121.9,342.3 122.9,351.8 	"/>
	<polygon fill="#FFFFFF" points="131.2,387.9 126.5,386.7 127.3,394.4 	"/>
	<polygon fill="#FFFFFF" points="118.7,372.2 118.9,372.2 118.7,372.1 	"/>
	<polygon fill="#FFFFFF" points="118.6,381 119,382 120.9,382.5 123.1,379.3 122.8,376.2 121.5,374.8 120.7,374.8 118.7,376.2 	"/>
	<polygon fill="#FFFFFF" points="118.5,399.7 123,398.2 120.2,391.6 118.5,393.4 	"/>
	<polygon fill="#FFFFFF" points="148.3,398.1 149.3,392.8 148.2,392.5 145.4,393.5 146.6,396.4 	"/>
	<polygon fill="#FFFFFF" points="149.1,409.3 148.8,408.6 148.6,409.3 	"/>
	<polygon fill="#FFFFFF" points="150.1,389.2 150.9,385 145.3,389 148.2,389.8 	"/>
	<polygon fill="#FFFFFF" points="137.9,381.8 135.7,385.5 137.1,386.8 140.3,387.7 	"/>
	<polygon fill="#FFFFFF" points="137.8,391.2 135.7,389.1 133.8,388.6 129.4,396.1 132.3,395.1 	"/>
	<polygon fill="#FFFFFF" points="164.8,388.4 164.3,389.3 166.3,392 	"/>
	<polygon fill="#FFFFFF" points="149.8,355.9 151.2,354.3 151.1,353.9 149.2,355.2 149.3,356 	"/>
	<polygon fill="#FFFFFF" points="150.6,363.8 155.1,364.6 155.2,364.2 154.1,361.5 150.2,362 150.4,363.5 	"/>
	<polygon fill="#FFFFFF" points="152.5,377.4 152.6,377 152.4,376.7 	"/>
	<polygon fill="#FFFFFF" points="221.9,201.7 227.9,216.5 232.2,215.7 232.6,210.9 222.4,201.8 	"/>
	<polygon fill="#FFFFFF" points="148,365.9 148.2,366.1 148.2,366 	"/>
	<polygon fill="#FFFFFF" points="148.4,347.1 148,347.6 148.7,352.3 150.1,351.4 	"/>
	<polygon fill="#FFFFFF" points="152.4,372.2 153.5,372.2 153.8,371.2 151.1,368.2 151.5,370.9 	"/>
	<polygon fill="#FFFFFF" points="163.3,384.7 161.4,379.9 160.1,378.4 157.9,380 161.6,385.3 	"/>
	<polygon fill="#FFFFFF" points="161.3,389.5 160.6,388.4 154.4,390.4 154.6,391.5 159.5,392.8 	"/>
	<polygon fill="#FFFFFF" points="163,391.9 162,393.5 164.6,394.2 	"/>
	<polygon fill="#FFFFFF" points="154.4,407.9 154.3,407.8 153.1,409.9 154.8,410.2 	"/>
	<polygon fill="#FFFFFF" points="225.3,372 222,368.2 221.9,370 222.5,372.2 225.1,372.2 	"/>
	<polygon fill="#FFFFFF" points="155.2,412.9 153.2,412.6 156.3,420.2 	"/>
	<polygon fill="#FFFFFF" points="155,394.3 155.8,399.6 158.2,395.2 	"/>
	<polygon fill="#FFFFFF" points="125.8,405 125.1,403.4 124.9,403.6 123.7,405.6 125.9,405.9 	"/>
	<polygon fill="#FFFFFF" points="126.2,374.8 125.3,374.8 125.3,375 125.8,375.4 	"/>
	<polygon fill="#FFFFFF" points="124,362.6 126.3,362 123.9,361.6 	"/>
	<polygon fill="#FFFFFF" points="128.6,366.2 124.5,367.7 124.7,368.9 	"/>
	<polygon fill="#FFFFFF" points="129,359.8 126,352.4 123.2,355.2 123.6,358.9 	"/>
	<polygon fill="#FFFFFF" points="127,380.4 126.1,379.5 125.8,379.9 126,381.6 	"/>
	<polygon fill="#FFFFFF" points="138.4,376 139.1,374.8 137.9,374.8 	"/>
	<polygon fill="#FFFFFF" points="137.2,364 136.7,364.1 134.7,367 136.2,370.6 141.5,364.8 	"/>
	<polygon fill="#FFFFFF" points="144.6,365.6 144.5,365.4 138.2,372.2 140.6,372.2 	"/>
	<polygon fill="#FFFFFF" points="136.7,378.8 135.3,375.3 130.6,380.4 133.8,383.6 	"/>
	<polygon fill="#FFFFFF" points="131.1,367.6 125,371.9 125,372.2 127.9,372.2 	"/>
	<polygon fill="#FFFFFF" points="128.9,382.3 127.1,384.1 132.1,385.5 	"/>
	<polygon fill="#FFFFFF" points="149,371.9 146.3,367.9 143.7,372.2 149.1,372.2 	"/>
	<polygon fill="#FFFFFF" points="222.3,334.2 220.6,335.4 222.1,335.5 	"/>
	<polygon fill="#FFFFFF" points="252.6,299.4 253.2,300.6 253.5,300.8 259.3,300.8 256.4,293.6 	"/>
	<polygon fill="#FFFFFF" points="255.4,310.6 252.1,312.9 258.4,316.3 	"/>
	<polygon fill="#FFFFFF" points="252.6,328.9 245,326.7 248.6,331.7 251.2,331.1 	"/>
	<polygon fill="#FFFFFF" points="223.4,320.5 207.6,315.9 217.4,331.7 222.6,329.8 	"/>
	<polygon fill="#FFFFFF" points="240.1,348.6 228.9,350.3 233.9,358.4 	"/>
	<polygon fill="#FFFFFF" points="249,347.3 243.5,348.1 235.5,360.7 252.3,355.1 	"/>
	<polygon fill="#FFFFFF" points="232.6,241.8 234.6,239.9 233.1,236.3 	"/>
	<polygon fill="#FFFFFF" points="246.6,231.4 246.9,231.5 247.4,230.6 	"/>
	<polygon fill="#FFFFFF" points="232.9,207.6 233.1,204.9 228.2,203.5 	"/>
	<polygon fill="#FFFFFF" points="256.9,233.1 257.9,233.3 256.3,231.9 	"/>
	<polygon fill="#FFFFFF" points="264.5,275.7 254.7,282.5 256.9,288 264.5,276.2 	"/>
	<polygon fill="#FFFFFF" points="260.5,303.8 260.3,303.4 256.3,303.4 258.4,305.3 	"/>
	<polygon fill="#FFFFFF" points="187.6,349.5 185.7,350 183.2,354.5 186.9,353.9 	"/>
	<polygon fill="#FFFFFF" points="185.1,356.8 185.6,357.1 186.2,356.7 	"/>
	<polygon fill="#FFFFFF" points="165.2,374.8 162.9,376.5 163.7,378.5 165.9,381 169.2,374.8 	"/>
	<polygon fill="#FFFFFF" points="221.9,338.3 221.9,338.1 221.3,338 221.5,338.4 	"/>
	<polygon fill="#FFFFFF" points="186,360.5 185.7,360.3 185,360.7 185.9,361.4 	"/>
	<polygon fill="#FFFFFF" points="175.9,380.6 174.3,374.8 172.2,374.8 167.7,383.1 167.9,383.2 	"/>
	<polygon fill="#FFFFFF" points="185.5,364.3 182.8,362.3 181.2,363.4 185.1,366.8 	"/>
	<polygon fill="#FFFFFF" points="190.5,374.8 186.6,374.8 186.3,377.1 191.2,375.5 	"/>
	<polygon fill="#FFFFFF" points="218.2,366.5 217.2,362.8 214.1,359.2 208.8,367.5 210,369.2 	"/>
	<polygon fill="#FFFFFF" points="215.5,357 215.6,357.1 215.6,356.9 	"/>
	<polygon fill="#FFFFFF" points="187.9,366 187.5,368.8 190,370.9 196.1,372 	"/>
	<polygon fill="#FFFFFF" points="200.5,375.5 199.8,375.3 196.4,376.5 198.6,378.4 	"/>
	<polygon fill="#FFFFFF" points="198.6,368.3 188.4,362 188.3,363.1 199.4,371.3 	"/>
	<polygon fill="#FFFFFF" points="126.2,408.6 122.2,408 122.1,408.2 126.7,413.5 	"/>
	<polygon fill="#FFFFFF" points="179.4,425.2 178.9,428.9 182.2,432.2 	"/>
	<polygon fill="#FFFFFF" points="186.2,433.7 189,429.3 183.3,421.1 181.2,422.7 185.6,433.7 	"/>
	<polygon fill="#FFFFFF" points="203,407.2 202,407 194.1,412.9 197.2,416.4 	"/>
	<polygon fill="#FFFFFF" points="178.5,432.1 178.3,432.9 179.4,433 	"/>
	<polygon fill="#FFFFFF" points="176.2,429.8 174.3,427.9 169.1,431.9 175.8,432.6 	"/>
	<polygon fill="#FFFFFF" points="179.2,408.6 180.2,401.2 180.2,401.1 171.8,398.8 172.8,401.4 178.5,409.6 	"/>
	<polygon fill="#FFFFFF" points="177,411.9 177,412 177,412 	"/>
	<polygon fill="#FFFFFF" points="223,391.8 222.5,391.5 219.9,393.5 219.6,396.5 228.6,404.2 226.6,396.8 	"/>
	<polygon fill="#FFFFFF" points="226.1,385.2 226.1,385.5 226.3,385.4 	"/>
	<polygon fill="#FFFFFF" points="231.8,381.2 224.6,379.9 225,381.5 228.5,383.7 	"/>
	<polygon fill="#FFFFFF" points="209.2,408.9 205.6,408 199.9,416.9 211.7,418.6 	"/>
	<polygon fill="#FFFFFF" points="217.6,388.9 215.3,392.7 215.9,393.2 217.4,392.1 	"/>
	<polygon fill="#FFFFFF" points="229.8,408.7 219.4,399.6 218.6,408.8 230.8,412 	"/>
	<polygon fill="#FFFFFF" points="140,428.8 140.8,427.3 137.1,425.5 137.4,426 139.8,428.8 	"/>
	<polygon fill="#FFFFFF" points="129.3,413.3 129.7,417 131.9,419.6 	"/>
	<polygon fill="#FFFFFF" points="140.9,434.1 140.6,433.8 140.9,434.4 	"/>
	<polygon fill="#FFFFFF" points="175.4,435.2 166,434.2 165.6,434.5 164.3,436.6 174.5,441.8 	"/>
	<polygon fill="#FFFFFF" points="137.6,433.2 136.7,431.1 131.1,430.5 132.3,442.9 	"/>
	<polygon fill="#FFFFFF" points="129.2,406.4 146.1,408.9 147,404.3 144.4,397.9 141.4,394.8 133.5,397.4 128,401.3 128.3,404.3 	
		"/>
	<polygon fill="#FFFFFF" points="135.5,428.3 135.1,427.4 130.6,422.1 130.2,421.9 130.8,427.8 	"/>
	<polygon fill="#FFFFFF" points="234.5,382.4 230.9,385.1 244.1,393.3 	"/>
	<polygon fill="#FFFFFF" points="159.2,439.6 159.1,439.4 152.9,444.1 154.8,446.4 	"/>
	<polygon fill="#FFFFFF" points="143.2,422.8 145.5,411.4 130.4,409.2 135.6,421.8 142,425.1 	"/>
	<polygon fill="#FFFFFF" points="158,433.3 158.2,433.5 158.2,433.4 	"/>
	<polygon fill="#FFFFFF" points="149.1,443.7 143.1,436.6 142.6,438.7 145.8,446.2 	"/>
	<polygon fill="#FFFFFF" points="158.6,436.6 150.9,432.6 144,431.9 143.7,433.4 151.2,442.1 	"/>
	<polygon fill="#FFFFFF" points="258.1,368.7 256.7,365.6 248,372.2 257.8,372.2 	"/>
	<path fill="#FFFFFF" d="M152.3,178.8l1.3,0.4l10.6-2.7l-6-11.9c-2.4-0.1-4.8-0.2-7.2-0.2c-0.8,0-1.7,0-2.5,0.1L152.3,178.8z"/>
	<path fill="#FFFFFF" d="M51.4,205.6c-0.3,0.3-0.6,0.6-0.8,0.9C50.9,206.2,51.2,205.9,51.4,205.6z"/>
	<path fill="#FFFFFF" d="M245.7,205.9l7.2,2.1c-1.7-1.7-3.4-3.5-5.2-5.1L245.7,205.9z"/>
	<path fill="#FFFFFF" d="M290.8,285.3c-0.1-0.9-0.3-1.7-0.4-2.6C290.5,283.5,290.7,284.4,290.8,285.3z"/>
	<polygon fill="#FFFFFF" points="231.3,374.8 234.9,378.9 240.2,374.8 	"/>
	<path fill="#FFFFFF" d="M292.2,300.4c-0.2-5.1-0.6-10.1-1.3-15l-8,5.7l4.2,9.4L292.2,300.4z"/>
	<path fill="#FFFFFF" d="M292.2,307.6l-1.7,0.6l1.6,3.6c-0.1,1.9-0.2,3.7-0.4,5.5l-3.7-8.3l-18.3,6.6l9.4,8.5l12.3-3
		c-0.1,0.9-0.2,1.8-0.4,2.8l-9.7,2.4l0.7,0.7l8,3.1c-0.2,0.9-0.3,1.7-0.5,2.6l-2.3-0.9l0.4,0.3l1.8,1c-0.2,0.9-0.4,1.8-0.6,2.7
		c-0.1,0.3-0.1,0.6-0.2,0.8l-2.6-2.3l-11.7-6.3l-1.4,0.3l1.8,4.3l13.8,4c-0.2,0.7-0.3,1.5-0.5,2.2c-0.1,0.5-0.2,1-0.3,1.4
		c-0.2,0.9-0.5,1.7-0.7,2.6l-0.4,0l-1.9,1.4l2.1-0.7c-0.3,1-0.6,2-0.9,3l-4.9,1.6l2.4,6c-0.4,1-0.8,2-1.2,3
		c-0.4,1.1-0.8,2.1-1.3,3.2l-5-9.6l-9.1,6.8l9.3,12.8c-0.3,0.6-0.6,1.2-0.9,1.8c-0.5,0.9-1,1.7-1.4,2.6h-6.3l2.9,5.7
		c-0.5,0.9-1.1,1.7-1.6,2.5l-4.2-8.3h-1.5l4.3,10.2l0.1,0c-0.5,0.8-1.1,1.6-1.7,2.3c-0.1,0.1-0.1,0.2-0.2,0.2l-0.1-0.3l-6.5-1.2
		l-0.8,10.9c-0.9,1.1-1.9,2.2-2.8,3.3l0.1-1.4l-9.4-15.2l-8.7-1.6l13.9,15.8l4,2.5c-0.3,0.3-0.6,0.7-0.9,1c-0.6,0.6-1.2,1.3-1.8,1.9
		l-3-3.4l-21.4-13.2l-1.8,1.4l1.1,4.1l20.9,15.3c-0.6,0.6-1.3,1.2-1.9,1.8l-17.3-12.7l12.2,17.1c-0.4,0.3-0.7,0.6-1.1,0.9
		c-0.7,0.6-1.4,1.1-2.1,1.6c-0.2,0.1-0.3,0.3-0.5,0.4l-3.8-1l0.9,3.3c-0.7,0.6-1.5,1.1-2.3,1.6l-1.6-5.7l-13.2-3.5l-0.7,8.1
		l14.1,2.1c-1,0.7-2.1,1.5-3.2,2.2l-11.1-1.6l-0.5,6.4l0.5,1.9c-0.8,0.4-1.6,0.8-2.4,1.2c-0.3,0.2-0.7,0.4-1,0.5l0.3-3.4l-1.9-7.4
		l-12.5-1.8l12.1,13.6c-0.8,0.4-1.7,0.7-2.5,1.1l-12-13.6l-5.4,8.5l3.9,5.6l10,1.1c-1.7,0.7-3.5,1.4-5.2,2.1l-2.8-0.3l0.8,1.1
		c-0.8,0.3-1.7,0.6-2.6,0.9l-1.6-2.3l-0.6-0.1l0.8,2.9c-0.8,0.3-1.6,0.5-2.5,0.8l-1.1-4l-3.6-0.4l-0.4,0.6l4,4
		c-0.8,0.2-1.5,0.4-2.3,0.7c-0.8,0.2-1.7,0.5-2.5,0.7l-1-2.5l-2,3.2c-1.2,0.3-2.4,0.6-3.6,0.8l4.1-6.6l-1.6-1.6l-4.3-0.5l-1.1,7.6
		l2.1,1.1c-1.4,0.3-2.8,0.5-4.2,0.8c-0.3,0-0.5,0.1-0.8,0.1l0.1-0.5l-10-5.2l2.7,6.7c-0.9,0.1-1.8,0.2-2.7,0.3l-2-4.9l0.7,5
		c-0.9,0.1-1.7,0.1-2.6,0.2l-0.5-3.1l-2.1,3.2c-1,0-2.1,0.1-3.1,0.1c-0.9,0-1.8,0.1-2.7,0.1l-1-1.2l-1.6,1.2c-1.1,0-2.1,0-3.2-0.1
		c-1,0-1.9-0.1-2.9-0.1l-1.4-3.5l-0.7,3.3c-0.9-0.1-1.7-0.1-2.6-0.2l1.5-7.4l-1.1-2.6l-5.2,9.5c-0.3,0-0.7-0.1-1-0.1
		c-0.9-0.1-1.8-0.2-2.6-0.3l-1.6-15.2l-10.2-1.1l-0.1,13.9c-0.9-0.2-1.7-0.4-2.6-0.6l0.1-13.6l-5.6-0.6l-5.5,9.2l0.6,1.8
		c-0.2-0.1-0.3-0.1-0.5-0.2c-0.3-0.1-0.6-0.2-0.9-0.3c-0.8-0.3-1.7-0.6-2.5-0.9c-0.3-0.1-0.5-0.2-0.8-0.3L93.4,427l-0.8,1.2l0.3,6.2
		c-0.9-0.4-1.8-0.8-2.7-1.2l-0.1-1.5l-0.7,1.1c-0.1,0-0.1-0.1-0.2-0.1c-1.3-0.6-2.6-1.3-3.9-2c-0.3-0.2-0.6-0.3-0.9-0.5
		c-0.8-0.4-1.6-0.9-2.3-1.3l1.6-1.7l-0.9-1.9l-8-0.8c-1.6-1-3.1-2-4.6-3.1l11.3,1.2l-3.3-6.7l-10.8,3.6c-0.8-0.6-1.7-1.3-2.5-1.9
		l12.1-4l-3.1-6.4l-7.6,5.2l-3.5,3.5c-0.2-0.2-0.5-0.4-0.8-0.6c-0.7-0.6-1.4-1.1-2.1-1.7l0.6-0.4l7.4-13.2l-11.4-1.7l1.9,14
		c-1-0.9-2-1.7-3-2.6l-1.6-11.7l-9.6-1.4l-1,0.4c-0.6-0.7-1.2-1.4-1.8-2.1c-0.4-0.5-0.8-1-1.1-1.5l3.7,0.5l8.9-3.2l-1-7.5L36.1,387
		l0,0.7c-0.1-0.2-0.3-0.4-0.4-0.6c-0.5-0.8-1.1-1.5-1.6-2.3c-0.2-0.3-0.4-0.5-0.5-0.8l0-3.7l-1.5,1.4c-0.4-0.6-0.8-1.3-1.2-1.9
		c-0.5-0.8-1-1.6-1.4-2.4l4-0.6l0.1-0.1l0-1.9h-5.7c-0.5-0.9-1-1.7-1.4-2.6h7.2l0-0.3l-7.8-4l-0.6,1.9c-0.4-0.8-0.8-1.5-1.2-2.3
		c-0.1-0.3-0.3-0.5-0.4-0.7c-0.6-1.3-1.2-2.5-1.7-3.8c-0.3-0.7-0.6-1.4-0.9-2l-0.2-2.8l-1-0.3c-0.3-0.8-0.7-1.7-1-2.5
		c-0.3-0.8-0.6-1.6-0.9-2.5l2.5-1.2l-0.6-9.1l-5.4-1c-0.2-0.9-0.5-1.8-0.7-2.8l5.9,1.1l-0.6-9.2l-5.8,6c-0.2-1-0.5-2-0.7-3l6.3-6.5
		l-0.3-4l-7.8-0.6c-0.1-0.9-0.2-1.7-0.3-2.6l7.9,0.6l-0.4-5.7l-3.6-5.3l-4.6,0.9c0-0.9-0.1-1.8-0.1-2.6l3.1-0.6l-0.6-0.8l-2.6,0
		c0-0.3,0-0.5,0-0.8c0,0,0,0,0,0C9.8,383.7,73,447,151.1,447s141.2-63.2,141.2-141.2c0,0,0,0,0,0C292.3,306.3,292.3,307,292.2,307.6
		z"/>
	<polygon fill="#FFFFFF" points="276.3,335.7 277.8,339.5 281.8,339.8 287.5,338.9 	"/>
	<polygon fill="#FFFFFF" points="278.6,349.1 278.4,349.2 280.7,353.6 278.9,349 	"/>
	<polygon fill="#FFFFFF" points="277.2,346.8 277.3,346.8 277.8,346.4 276.5,343.2 275.4,343.4 	"/>
	<polygon fill="#FFFFFF" points="230.9,402.9 232.1,407.2 237,411.4 	"/>
	<polygon fill="#FFFFFF" points="235.1,413.2 233.4,411.7 233.7,412.8 	"/>
	<polygon fill="#FFFFFF" points="281.9,342.4 279.2,342.8 280,344.8 283,342.5 	"/>
	<path fill="#FFFFFF" d="M292.3,304.8c0-0.6,0-1.2,0-1.9l-4,0.1l1.3,2.8L292.3,304.8z"/>
	<polygon fill="#FFFFFF" points="259.7,345.7 258.8,345.9 259.6,346.9 	"/>
	<polygon fill="#FFFFFF" points="260.6,374.8 260.2,374.8 259.6,383.6 264.7,384.5 	"/>
	<polygon fill="#FFFFFF" points="256,357.2 257.8,361.5 258.1,361.3 	"/>
	<polygon fill="#FFFFFF" points="127.4,420.4 118.3,415.8 118.2,426.5 128.1,427.6 	"/>
	<polygon fill="#FFFFFF" points="242.1,376.7 238.1,379.7 244.7,380.9 	"/>
	<polygon fill="#FFFFFF" points="260.8,366.6 260.7,368.3 262.3,372.2 263.6,372.2 	"/>
	<polygon fill="#FFFFFF" points="273.1,334.8 270.6,334.1 273.2,339.2 274.9,339.3 	"/>
	<polygon fill="#FFFFFF" points="269.4,318.9 271,322.7 275.5,324.4 	"/>
	<polygon fill="#FFFFFF" points="285.4,303 271.9,303.2 266.5,311.7 267.2,313.3 267.6,313.7 287,306.7 	"/>
	<polygon fill="#FFFFFF" points="274.6,372.2 265.2,359.2 261.4,362.1 266.6,372.2 	"/>
	<polygon fill="#FFFFFF" points="264.5,353.8 265.8,355.5 270.9,351.7 	"/>
	<polygon fill="#FFFFFF" points="272.7,343.8 262.3,345.3 261.9,350.2 262.9,351.6 274.7,347.6 	"/>
	<path fill="#FFFFFF" d="M167.6,173.1l5.6-5.8l-0.5-1.2c-2.4-0.4-4.8-0.7-7.2-0.9L167.6,173.1z"/>
	<path fill="#FFFFFF" d="M278.6,259.1l-4.5,6.9l10.2-7c-0.1-0.3-0.2-0.6-0.3-0.9L278.6,259.1z"/>
	<path fill="#FFFFFF" d="M273.3,269.7l7,15.5l8.1-12.8c-0.9-3.7-1.9-7.4-3.1-11L273.3,269.7z"/>
	<polygon fill="#FFFFFF" points="265.7,303.3 265.2,303.6 264.9,307.7 265.3,308.8 268.8,303.2 	"/>
	<polygon fill="#FFFFFF" points="280.7,292.6 277,295.2 273.6,300.6 284.2,300.5 	"/>
	<path fill="#FFFFFF" d="M283.9,257.8c-0.2-0.6-0.4-1.2-0.7-1.8C283.5,256.6,283.7,257.2,283.9,257.8z"/>
	<path fill="#FFFFFF" d="M289.1,276l-7.6,12l0.2,0.5l8.6-6.1C290,280.3,289.6,278.2,289.1,276z"/>
	<path fill="#FFFFFF" d="M253.9,224.2l-0.6,1l0.4,1l8.9,7.9l5.2-5.6l0.1-2c-2.2-3.2-4.5-6.4-7-9.4L253.9,224.2z"/>
	<path fill="#FFFFFF" d="M282.4,253.9c-0.5-1.2-0.9-2.3-1.4-3.5C281.5,251.6,282,252.7,282.4,253.9z"/>
	<path fill="#FFFFFF" d="M121.5,169.9l9.1,2.6l-4.2-5.8c-1.7,0.3-3.5,0.6-5.2,1L121.5,169.9z"/>
	<path fill="#FFFFFF" d="M272.4,233.4c-0.2-0.4-0.5-0.8-0.7-1.2C271.9,232.6,272.1,233,272.4,233.4z"/>
	<path fill="#FFFFFF" d="M270.1,232.6l1.4-0.7c-0.4-0.6-0.8-1.2-1.2-1.9L270.1,232.6z"/>
	<path fill="#FFFFFF" d="M270.5,235.3l3.3,0.5c-0.3-0.6-0.6-1.1-0.9-1.7L270.5,235.3z"/>
	<path fill="#FFFFFF" d="M269.8,237.8l-0.2,2.4l11.4,10.1c-1.7-3.9-3.5-7.8-5.5-11.5L269.8,237.8z"/>
	<polygon fill="#FFFFFF" points="280.5,256 283.1,255.6 281.7,254.3 	"/>
	<polygon fill="#FFFFFF" points="264.1,281.5 258.1,290.9 262.1,300.7 262.8,300.7 	"/>
	<polygon fill="#FFFFFF" points="261.3,321.9 261.2,321.7 260.4,321.4 256.7,327.3 260.9,328.6 	"/>
	<polygon fill="#FFFFFF" points="262.3,308.1 261.5,306.2 260.3,307.1 262.2,308.8 	"/>
	<polygon fill="#FFFFFF" points="251.5,340.2 250.2,340.1 252.3,344.2 254.2,343.9 	"/>
	<polygon fill="#FFFFFF" points="234.2,363.9 233.3,364.2 228.5,371.7 229,372.2 239.4,372.2 	"/>
	<polygon fill="#FFFFFF" points="243.7,372.2 255.7,363.1 253.3,357.5 236.7,363 242.4,372.2 	"/>
	<polygon fill="#FFFFFF" points="263.6,326.3 263.5,328.1 264.4,327.8 	"/>
	<polygon fill="#FFFFFF" points="270.7,328.9 268.2,329.6 268.9,330.9 271.8,331.7 	"/>
	<polygon fill="#FFFFFF" points="267.2,324 264.9,323.1 267,327.2 269.7,326.5 269.1,325 	"/>
	<polygon fill="#FFFFFF" points="267.1,333.1 263.2,331.9 262.8,338.4 270.2,339 	"/>
	<polygon fill="#FFFFFF" points="264.2,317.6 264.1,319.4 267.6,321.2 265.9,317 	"/>
	<polygon fill="#FFFFFF" points="262.6,341 262.5,342.7 270,341.6 	"/>
	<path fill="#FFFFFF" d="M275.3,238.5c-0.2-0.4-0.4-0.8-0.7-1.2C274.9,237.8,275.1,238.1,275.3,238.5z"/>
	<path fill="#FFFFFF" d="M185.4,168.7c1.2,0.3,2.3,0.6,3.5,0.9C187.7,169.3,186.6,169,185.4,168.7z"/>
	<path fill="#FFFFFF" d="M176.2,167.9l2.1,5.1l4.9-1.2l-2.1-4.1c-1.3-0.3-2.7-0.6-4-0.8L176.2,167.9z"/>
	<path fill="#FFFFFF" d="M185.9,171.1l1.5-0.4l-2.5-2.2c-0.1,0-0.2-0.1-0.4-0.1L185.9,171.1z"/>
	<path fill="#FFFFFF" d="M196.6,175.5l13,11.5l1,0.1l0.6-4.5l-2.3-5.7c-3.5-1.6-7.1-3-10.8-4.3L196.6,175.5z"/>
	<polygon fill="#FFFFFF" points="227.8,374.8 226.6,374.8 225,377.3 230.9,378.4 	"/>
	<path fill="#FFFFFF" d="M193.9,171.1c-0.8-0.3-1.7-0.5-2.5-0.8C192.3,170.6,193.1,170.9,193.9,171.1z"/>
	<polygon fill="#FFFFFF" points="154.3,186.9 155.3,185.9 154.1,185.8 	"/>
	<polygon fill="#FFFFFF" points="150,195.1 154.2,200.9 155.3,200.7 153,192 	"/>
	<polygon fill="#FFFFFF" points="153.1,182 153.4,183.2 157.6,183.5 157.9,183.1 153.6,181.9 	"/>
	<path fill="#FFFFFF" d="M164.3,171l-1.6-6c-0.5,0-1-0.1-1.4-0.1L164.3,171z"/>
	<path fill="#FFFFFF" d="M129.2,166.2l5.4,7.5l14.8,4.3l-3.5-13.4C140.2,164.8,134.6,165.3,129.2,166.2z"/>
	<path fill="#FFFFFF" d="M214,182.2l2.1,5.2l9.4,0.6l3-0.5c-4.5-3-9.2-5.7-14.1-8.1L214,182.2z"/>
	<polygon fill="#FFFFFF" points="167.7,183.3 165.5,179 162.8,181.9 	"/>
	<path fill="#FFFFFF" d="M260.5,216.5c-0.3-0.3-0.5-0.7-0.8-1C260,215.8,260.3,216.2,260.5,216.5z"/>
	<polygon fill="#FFFFFF" points="247.4,212 250.4,209.9 245.9,208.6 	"/>
	<polygon fill="#FFFFFF" points="252,222.2 255.3,216 249.8,217.3 	"/>
	<path fill="#FFFFFF" d="M231,189.3c-0.6-0.4-1.2-0.8-1.9-1.3C229.7,188.4,230.3,188.8,231,189.3z"/>
	<path fill="#FFFFFF" d="M253.8,208.9c0.8,0.8,1.6,1.7,2.3,2.5C255.4,210.5,254.6,209.7,253.8,208.9z"/>
	<polygon fill="#FFFFFF" points="258.3,216.1 259.2,215.2 258.7,215.3 	"/>
	<path fill="#FFFFFF" d="M268.2,226.8C268.2,226.8,268.2,226.7,268.2,226.8C268.2,226.7,268.2,226.8,268.2,226.8z"/>
	<polygon fill="#FFFFFF" points="255.8,211.5 253.7,210.9 251.7,212.2 	"/>
	<path fill="#FFFFFF" d="M236.2,193c-0.4-0.3-0.9-0.6-1.3-1C235.3,192.4,235.7,192.7,236.2,193z"/>
	<polygon fill="#FFFFFF" points="249,222 247.2,217.9 245,218.4 	"/>
	<path fill="#FFFFFF" d="M230.5,191.1l-7.8,7.5l1,0.9l9.7,2.8l0.9-10.7c-0.1-0.1-0.3-0.2-0.4-0.3L230.5,191.1z"/>
	<polygon fill="#FFFFFF" points="240.1,214 240.4,214.3 245.2,213.4 243.4,209.3 	"/>
	<path fill="#FFFFFF" d="M242.9,201.9l1.4-2.3c-1.3-1.1-2.6-2.2-3.9-3.3L242.9,201.9z"/>
	<polygon fill="#FFFFFF" points="119.6,267.8 126.7,285.5 128.9,285.1 135.2,279.1 134.2,272.9 119.6,267.3 	"/>
	<polygon fill="#FFFFFF" points="175,315 172.5,312.1 170.8,314.6 173.3,317.9 	"/>
	<polygon fill="#FFFFFF" points="186.2,320.3 184.7,322 187.5,325.2 	"/>
	<polygon fill="#FFFFFF" points="193.4,308.8 194,304.2 184.8,304.3 185.4,306.8 193.1,309 	"/>
	<polygon fill="#FFFFFF" points="179.4,307.8 176.2,306.8 174,309.9 176.4,312.7 	"/>
	<polygon fill="#FFFFFF" points="185.5,317.3 183.3,308.9 181.9,308.5 178.2,314.7 182.9,320.1 	"/>
	<polygon fill="#FFFFFF" points="178.3,279.3 180.5,287.9 184.9,289.6 186.7,287 181.1,278 	"/>
	<polygon fill="#FFFFFF" points="191.2,311.2 186.2,309.7 187.6,315.1 	"/>
	<polygon fill="#FFFFFF" points="197.4,304.4 197.3,304.2 196.6,304.2 196.5,305.5 	"/>
	<polygon fill="#FFFFFF" points="188.3,248.1 190.2,250.8 192.7,249.1 187.1,244 	"/>
	<polygon fill="#FFFFFF" points="195,272.4 197,272.1 198.7,269.6 194.7,271.5 	"/>
	<polygon fill="#FFFFFF" points="198.4,294.8 198.1,293.7 198,294.6 	"/>
	<polygon fill="#FFFFFF" points="196.5,278 197.9,276.6 198.2,274.9 196.4,277.5 	"/>
	<polygon fill="#FFFFFF" points="196.4,287.4 195.9,285.7 195.7,285.6 192.3,291.2 193.3,292.8 195.5,293.7 	"/>
	<polygon fill="#FFFFFF" points="197.6,297.2 197.3,299.3 198.7,301.5 200.1,301.5 200.3,301.4 199.3,297.9 	"/>
	<polygon fill="#FFFFFF" points="166.7,307.9 167.1,306 165.8,304.5 163.7,304.6 166.3,308.3 	"/>
	<polygon fill="#FFFFFF" points="166,282.3 171.8,279.5 163.1,281.2 	"/>
	<polygon fill="#FFFFFF" points="169,309.2 168.6,311.4 169.2,312.3 170.7,310.1 169.5,308.8 	"/>
	<polygon fill="#FFFFFF" points="171.5,284.4 171.9,282.4 169.3,283.6 	"/>
	<polygon fill="#FFFFFF" points="171.4,306.9 172.3,307.9 173.5,306.1 172.5,305.8 	"/>
	<polygon fill="#FFFFFF" points="176.5,301.7 176.4,301.8 176.5,301.8 	"/>
	<polygon fill="#FFFFFF" points="165.8,343.7 164.9,344.4 166.2,345.2 	"/>
	<polygon fill="#FFFFFF" points="166.1,350 163.4,348.1 165.8,350.1 	"/>
	<polygon fill="#FFFFFF" points="169.3,316.8 166.7,320.5 164.8,330.1 165.1,331.3 165.2,331.3 171.8,320.4 	"/>
	<polygon fill="#FFFFFF" points="164.3,338 162.6,340.7 162.3,342.4 164.7,339.7 	"/>
	<polygon fill="#FFFFFF" points="161.9,331.1 162.1,330.1 161.6,328 159.6,330.9 	"/>
	<polygon fill="#FFFFFF" points="164.3,319.5 165.7,312.6 161.3,317 162.6,322 	"/>
	<polygon fill="#FFFFFF" points="160.3,352.1 163,351.1 160.9,349.3 	"/>
	<polygon fill="#FFFFFF" points="194.6,299.8 191.6,294.9 190.4,294.5 186,301.7 194.4,301.6 	"/>
	<polygon fill="#FFFFFF" points="154.5,302.1 154.1,300.5 141.5,296.9 140.5,297.3 141.3,302.3 	"/>
	<polygon fill="#FFFFFF" points="167,354.6 159.4,356.5 159.1,358.1 169.3,356.6 	"/>
	<polygon fill="#FFFFFF" points="164.5,310.1 160.5,304.6 157.9,304.6 160.5,314.2 	"/>
	<polygon fill="#FFFFFF" points="159.4,341 160.2,339.7 161.4,333.7 157.8,333.4 154.7,338 	"/>
	<polygon fill="#FFFFFF" points="161.8,300 154.5,291.7 160.1,299.5 	"/>
	<polygon fill="#FFFFFF" points="158.7,302 158.5,301.7 157,301.3 157.2,302.1 	"/>
	<polygon fill="#FFFFFF" points="156.6,330.7 160.7,324.8 159.1,319.2 148.2,330.1 	"/>
	<polygon fill="#FFFFFF" points="189.5,333.1 188.9,330.8 187.3,328.9 183.2,331.8 183.8,332.7 	"/>
	<polygon fill="#FFFFFF" points="191.3,323 192.7,313.3 188.3,318.1 189.9,324 	"/>
	<polygon fill="#FFFFFF" points="185.6,327 182.9,323.9 179.9,327.2 181.7,329.7 	"/>
	<polygon fill="#FFFFFF" points="176.8,317 174.9,320.2 178.3,325 181.2,322 	"/>
	<polygon fill="#FFFFFF" points="166.6,334.1 166.1,334.9 166.8,337.5 169.8,334.3 	"/>
	<polygon fill="#FFFFFF" points="179.5,331.1 178.1,329.1 175.3,332.1 177.9,332.3 	"/>
	<polygon fill="#FFFFFF" points="140,293.7 141.3,294.1 150,289.9 146.1,284.5 144.8,284.7 139.2,288.5 	"/>
	<polygon fill="#FFFFFF" points="181.8,224.7 183.7,224.4 183.8,223.9 181.5,223.6 	"/>
	<polygon fill="#FFFFFF" points="179.1,233.1 181.1,234.9 181.7,234.4 181.7,234.1 181.3,232.6 	"/>
	<polygon fill="#FFFFFF" points="173.5,260.6 174.1,261.7 176.4,260.1 180.2,241.4 179.4,240.2 170.4,248.8 	"/>
	<polygon fill="#FFFFFF" points="183.1,240.3 183,240.8 183.9,242.1 183.5,240.7 	"/>
	<polygon fill="#FFFFFF" points="182.5,227.3 182.9,228.5 183.1,227.2 	"/>
	<polygon fill="#FFFFFF" points="182.3,244.3 179.5,258.1 186.9,253 185.9,249.3 	"/>
	<polygon fill="#FFFFFF" points="146.9,264.3 147.7,267.1 152.6,262.4 149,260.5 	"/>
	<polygon fill="#FFFFFF" points="147.4,279.8 148.3,279.2 148,278.2 145,277 	"/>
	<polygon fill="#FFFFFF" points="177.6,267.3 182.1,274.6 191.6,270.1 187.7,255.6 178.7,261.7 	"/>
	<polygon fill="#FFFFFF" points="148.4,269.9 150.1,276.2 151.8,276.8 164,268.5 155,263.7 	"/>
	<polygon fill="#FFFFFF" points="154.7,278 158.5,279.4 173,276.6 173.6,273.7 166.6,269.9 	"/>
	<polygon fill="#FFFFFF" points="173.3,270.6 172.2,266.1 169,268.3 	"/>
	<polygon fill="#FFFFFF" points="175.5,263.9 175.6,264.1 175.7,263.8 	"/>
	<polygon fill="#FFFFFF" points="222.2,277.1 222.7,276.3 221.4,275.2 	"/>
	<polygon fill="#FFFFFF" points="242.3,310.6 234.6,306.5 235.7,309.1 241.8,311.4 	"/>
	<polygon fill="#FFFFFF" points="216.2,293.6 219,295.1 216.9,292.3 	"/>
	<polygon fill="#FFFFFF" points="212.7,291.7 213.9,292.4 215.3,289.9 214.9,289.4 	"/>
	<polygon fill="#FFFFFF" points="228.9,303.8 228.4,303.8 229.9,305.8 	"/>
	<polygon fill="#FFFFFF" points="236.2,324.9 237.4,324.5 236.6,324.3 	"/>
	<polygon fill="#FFFFFF" points="240.3,313.7 237.1,312.4 238.7,316.2 	"/>
	<polygon fill="#FFFFFF" points="223.9,273.9 226.6,269 219.9,270.3 	"/>
	<polygon fill="#FFFFFF" points="223.6,279.9 223.5,280.1 226.3,286.6 226.8,280.1 225,278.4 	"/>
	<polygon fill="#FFFFFF" points="216.7,270.9 215.2,271.2 219.8,280.2 220.5,279.5 216.9,271 	"/>
	<polygon fill="#FFFFFF" points="221.6,283.7 225.3,290.9 221.9,283.1 	"/>
	<polygon fill="#FFFFFF" points="233.1,323.3 226,321.2 225.3,328.8 225.4,328.8 	"/>
	<polygon fill="#FFFFFF" points="227.1,276.8 227.1,276.2 226.8,276.5 	"/>
	<polygon fill="#FFFFFF" points="225.3,298.5 225.4,296.9 220.1,286.5 218.3,289.8 224.2,297.9 	"/>
	<polygon fill="#FFFFFF" points="205.5,223.1 200.7,224 204.8,224.7 205.3,224.6 	"/>
	<polygon fill="#FFFFFF" points="203.7,254.3 203.6,255.4 204.9,256.7 	"/>
	<polygon fill="#FFFFFF" points="203,268.5 203.8,267.2 203.4,267.3 202.8,268.2 	"/>
	<polygon fill="#FFFFFF" points="202.3,264.3 205.1,260.3 203.1,258.5 	"/>
	<polygon fill="#FFFFFF" points="226.2,318.6 235.5,321.2 236.6,319.5 229.3,309.4 227,308.5 	"/>
	<polygon fill="#FFFFFF" points="145.3,258.5 145.9,260.7 146.7,259.2 	"/>
	<polygon fill="#FFFFFF" points="204.9,227.3 204.9,227.3 201.6,228.1 204,233.8 	"/>
	<polygon fill="#FFFFFF" points="214.3,268.7 213.7,268.1 214,268.8 	"/>
	<polygon fill="#FFFFFF" points="206.2,272.9 215.1,285.3 217.9,282.3 212.6,271.7 	"/>
	<polygon fill="#FFFFFF" points="214,264.2 213.6,264.5 214.5,265.3 	"/>
	<polygon fill="#FFFFFF" points="202.3,245.8 202.3,245.7 202.3,245.7 	"/>
	<polygon fill="#FFFFFF" points="200.4,277.8 199.4,284.6 210.3,290.5 213.3,287.3 203.9,274.2 200.4,277.8 	"/>
	<polygon fill="#FFFFFF" points="191.3,280.3 193.5,277 193.1,275.4 185.2,277 	"/>
	<polygon fill="#FFFFFF" points="192.6,344.9 192.2,343.4 191.7,343.6 	"/>
	<polygon fill="#FFFFFF" points="170.5,301.9 172.7,301.9 179.6,294.9 178.3,289.8 173.4,287.9 	"/>
	<polygon fill="#FFFFFF" points="198.5,266.8 190.3,255.3 194,268.9 	"/>
	<polygon fill="#FFFFFF" points="177.5,275.8 177.4,275.7 177.4,275.8 	"/>
	<polygon fill="#FFFFFF" points="176.8,271 176.6,272.3 178.2,273.2 	"/>
	<polygon fill="#FFFFFF" points="185.5,280.1 188.3,284.6 189.8,282.4 	"/>
	<polygon fill="#FFFFFF" points="192.4,272.9 192.3,272.6 191.1,273.2 	"/>
	<polygon fill="#FFFFFF" points="187.9,293.5 185.9,292.7 182.9,297.1 183.8,300.4 	"/>
	<polygon fill="#FFFFFF" points="182.9,291.6 181.3,291 181.8,292.8 	"/>
	<polygon fill="#FFFFFF" points="190.8,288.7 192.8,285.4 190.3,287.9 	"/>
	<polygon fill="#FFFFFF" points="189.3,291.2 188.4,289.8 187.6,290.6 189.3,291.3 	"/>
	<polygon fill="#FFFFFF" points="180.9,299.9 179.6,301.8 181.4,301.8 	"/>
	<polygon fill="#FFFFFF" points="177.7,304.6 180.7,305.5 181.4,304.4 177.8,304.4 	"/>
	<polygon fill="#FFFFFF" points="195.9,309.8 201.9,311.6 198.9,306.7 	"/>
	<polygon fill="#FFFFFF" points="201.3,271.2 201.5,270.9 201.4,270.7 	"/>
	<polygon fill="#FFFFFF" points="211.4,269.3 210.5,267.6 208.3,269.9 	"/>
	<polygon fill="#FFFFFF" points="191.7,252.9 199.7,264 200.8,256.4 194.7,250.9 	"/>
	<polygon fill="#FFFFFF" points="196.9,249.4 201.2,253.3 201.7,250.2 200.1,247.2 	"/>
	<polygon fill="#FFFFFF" points="173.9,285.4 177.5,286.7 175.9,280.4 174.8,281 	"/>
	<polygon fill="#FFFFFF" points="208,265.1 205.9,268.6 209.3,265.2 209,264.7 	"/>
	<polygon fill="#FFFFFF" points="211.8,258.9 210.4,261.1 212.3,260.2 	"/>
	<polygon fill="#FFFFFF" points="162.8,283.8 158.3,282.1 152.1,283.3 152.8,285.8 154.5,287.8 	"/>
	<polygon fill="#FFFFFF" points="167.9,301.8 170.9,287 166.1,285.1 156.3,289.8 166.4,301.3 	"/>
	<polygon fill="#FFFFFF" points="152.1,279.8 151.3,280.3 151.4,280.8 153.7,280.4 	"/>
	<polygon fill="#FFFFFF" points="200.7,304.7 201.6,306.1 201.1,304.3 	"/>
	<polygon fill="#FFFFFF" points="153.3,297.5 151.9,292.6 151.5,292.1 145,295.2 	"/>
	<polygon fill="#FFFFFF" points="136.4,235.5 131.4,236.4 132.1,241 137.5,239.8 	"/>
	<polygon fill="#FFFFFF" points="241.2,249.3 243.4,254.8 254.3,243 	"/>
	<polygon fill="#FFFFFF" points="188.8,189.4 190.7,189.9 191,188.4 189.5,188.3 	"/>
	<polygon fill="#FFFFFF" points="236.5,237.9 241.2,233.2 234.2,232.1 	"/>
	<polygon fill="#FFFFFF" points="238.3,264.1 244,263.1 242.5,259.5 	"/>
	<polygon fill="#FFFFFF" points="235.9,267.3 245.5,285.7 251.5,281.6 245,265.5 	"/>
	<polygon fill="#FFFFFF" points="231.9,250.9 237.9,248 235.6,242.5 232.3,245.8 	"/>
	<polygon fill="#FFFFFF" points="229,219.3 232,218.6 232,218.4 228.9,219 	"/>
	<polygon fill="#FFFFFF" points="195.3,355.3 191.9,355.8 189,357.9 188.8,359.2 197.7,364.6 	"/>
	<polygon fill="#FFFFFF" points="212.3,221.9 212.8,222.9 226.4,219.9 226.3,219.4 	"/>
	<polygon fill="#FFFFFF" points="208.2,222.7 208,224 210.2,223.5 209.6,222.4 	"/>
	<polygon fill="#FFFFFF" points="222.3,241.3 226,248.4 229.8,244.6 230.9,231.5 228.4,231.1 	"/>
	<polygon fill="#FFFFFF" points="214,225.3 214.5,226.3 224.1,227.8 228.5,224.8 227.4,222.3 	"/>
	<polygon fill="#FFFFFF" points="252.5,284 246.7,288.1 251.2,296.8 255.2,290.6 	"/>
	<polygon fill="#FFFFFF" points="244.4,233.7 237.6,240.5 239.5,245.2 245.6,233.9 	"/>
	<polygon fill="#FFFFFF" points="212.9,337.4 212.9,337.6 213.2,337.4 	"/>
	<polygon fill="#FFFFFF" points="214.6,353.6 214.3,352.5 211.9,352.8 213.7,355 	"/>
	<polygon fill="#FFFFFF" points="211.8,333.6 214.9,332.6 208.9,322.9 	"/>
	<polygon fill="#FFFFFF" points="202.9,318.2 194.7,333.3 194.8,333.5 209.3,334.5 209.4,334.5 204.6,317 	"/>
	<polygon fill="#FFFFFF" points="206.8,351 203.7,347.4 197.5,351.8 197.9,352.3 	"/>
	<polygon fill="#FFFFFF" points="213.6,350 211.9,343.5 207.8,344.5 205.8,345.9 209.8,350.5 	"/>
	<polygon fill="#FFFFFF" points="224.5,307.6 220.5,306.1 209.4,313.7 223.6,317.8 	"/>
	<polygon fill="#FFFFFF" points="239.3,336.7 244.7,337.1 244.1,335.5 	"/>
	<polygon fill="#FFFFFF" points="247.3,316.3 240.8,321 242.1,322.8 253.5,318.7 	"/>
	<polygon fill="#FFFFFF" points="223.8,347 223.7,348.5 224.6,348.3 	"/>
	<polygon fill="#FFFFFF" points="215,303.9 210.6,304 206,312.5 206.1,312.8 206.2,312.8 217.6,304.9 	"/>
	<polygon fill="#FFFFFF" points="251.7,303.5 250,303.5 246,309.6 249.6,311.6 254.2,308.2 	"/>
	<polygon fill="#FFFFFF" points="206,238.5 206.5,239.7 215.5,233.7 212.8,228.6 207.5,227.8 	"/>
	<polygon fill="#FFFFFF" points="121.5,371.1 122.2,370.6 122,368.6 119.7,369.4 	"/>
	<polygon fill="#FFFFFF" points="121.7,246 132.5,261 130.9,250.8 121.9,245.9 	"/>
	<polygon fill="#FFFFFF" points="141.2,253.3 138.2,242.3 132.5,243.5 133.3,249.1 	"/>
	<polygon fill="#FFFFFF" points="139.5,270.8 140,271.3 144.1,263.9 142.2,256.8 133.8,252.3 135.8,265.6 	"/>
	<polygon fill="#FFFFFF" points="130.5,247.5 129.9,244.1 125.8,245 	"/>
	<polygon fill="#FFFFFF" points="135.7,233 130.9,215.4 130.5,215.3 128.6,217.3 131,233.8 	"/>
	<polygon fill="#FFFFFF" points="130.3,294.5 131.9,298.6 137.7,295.8 137.7,295.7 131.2,293.9 	"/>
	<polygon fill="#FFFFFF" points="129.5,299.7 128.5,297.1 126.1,301.3 	"/>
	<polygon fill="#FFFFFF" points="128.2,289.4 128.6,290.4 129.2,290.6 131,287.4 130.1,287.5 	"/>
	<polygon fill="#FFFFFF" points="123.9,305.3 120.6,311.2 138,326.2 140.9,328.4 131.6,305 124.3,305.1 	"/>
	<polygon fill="#FFFFFF" points="129.6,212.5 130,212.1 128.9,208.1 127.2,208.4 127.8,212.2 	"/>
	<polygon fill="#FFFFFF" points="186.8,193 187.6,194.9 189.8,194.5 190.2,192.5 187.5,191.7 	"/>
	<polygon fill="#FFFFFF" points="132.5,289.9 136.4,287.3 136.3,286.3 134.3,286.7 	"/>
	<polygon fill="#FFFFFF" points="130.6,302.4 130.5,302.1 129.9,302.4 	"/>
	<polygon fill="#FFFFFF" points="164.8,227.1 166,224.8 163.6,222.5 	"/>
	<polygon fill="#FFFFFF" points="170.1,222.9 172.6,226.4 179.3,225.2 178.7,223.1 170.7,221.8 	"/>
	<polygon fill="#FFFFFF" points="126.8,205.8 128.2,205.6 125.1,194 	"/>
	<polygon fill="#FFFFFF" points="177.9,220.3 175.8,212.6 172,219.4 	"/>
	<polygon fill="#FFFFFF" points="162.4,217.8 163.3,218 161.9,216 	"/>
	<polygon fill="#FFFFFF" points="177.9,203.5 176,199.6 175,199.8 176.6,205.9 	"/>
	<polygon fill="#FFFFFF" points="160.6,239.8 166.3,249.1 167.5,248 164.5,236.4 162.2,236.9 	"/>
	<polygon fill="#FFFFFF" points="130.8,205.1 135.6,204.3 126.6,189.8 	"/>
	<polygon fill="#FFFFFF" points="126,183.9 127.2,185.8 132.8,184.4 	"/>
	<polygon fill="#FFFFFF" points="147.1,218 154.3,229.7 162.4,228.2 160.3,220.1 	"/>
	<polygon fill="#FFFFFF" points="139.8,206.1 145.3,215.1 157.6,217.1 144.6,205.3 	"/>
	<polygon fill="#FFFFFF" points="138.2,203.6 140.4,201.4 132.3,194 	"/>
	<polygon fill="#FFFFFF" points="184.8,346.1 174,350 174.2,350.1 183.9,347.7 	"/>
	<polygon fill="#FFFFFF" points="228.4,291.8 230.3,296.2 238.4,290.6 229.2,282.3 	"/>
	<polygon fill="#FFFFFF" points="228.2,252.6 229.1,252.2 229.4,248.7 227.3,250.8 	"/>
	<polygon fill="#FFFFFF" points="242.5,290.9 247.6,295.5 244.5,289.5 	"/>
	<polygon fill="#FFFFFF" points="249,300.3 240.3,292.4 231.3,298.6 232.4,301.1 248.6,300.9 	"/>
	<polygon fill="#FFFFFF" points="234.9,303.7 243.7,308.4 246.9,303.5 	"/>
	<polygon fill="#FFFFFF" points="247.2,313.2 244.6,311.8 244.3,312.4 247,313.4 	"/>
	<polygon fill="#FFFFFF" points="217.6,260.6 216,262.2 218.4,268 228,266.1 228.6,258.9 227.1,256 	"/>
	<polygon fill="#FFFFFF" points="223.1,255.1 225.9,253.7 225.4,252.7 	"/>
	<polygon fill="#FFFFFF" points="187.1,341.8 182.4,335.2 178.6,334.9 168.1,342.2 169.5,347.2 171.1,348.2 186.7,342.6 	"/>
	<polygon fill="#FFFFFF" points="205.2,243.7 204.4,249.8 207.7,256.4 209.6,253.7 205.3,243.7 	"/>
	<polygon fill="#FFFFFF" points="217.6,232.2 221,229.9 216,229.1 	"/>
	<polygon fill="#FFFFFF" points="224.7,230.5 218.8,234.5 220.5,237.8 225.5,230.7 	"/>
	<polygon fill="#FFFFFF" points="213.4,256.1 214.7,259.1 216.1,258.4 224.1,250.3 220.8,243.9 	"/>
	<polygon fill="#FFFFFF" points="243,333.1 240.1,326.3 233.9,328.5 229,336 230.9,336.1 	"/>
	<polygon fill="#FFFFFF" points="202,314.3 195.5,312.4 194.3,321 200.9,316.4 	"/>
	<polygon fill="#FFFFFF" points="205,300.1 203.7,301.5 208.5,301.4 	"/>
	<polygon fill="#FFFFFF" points="193.8,324.5 192.8,331.2 192.8,331.3 198.2,321.4 	"/>
	<polygon fill="#FFFFFF" points="190.8,326.5 190.6,326.7 190.7,327.3 	"/>
	<polygon fill="#FFFFFF" points="193.9,351.2 191.9,348.4 190.3,348.8 189.6,353.5 190.9,353.4 	"/>
	<polygon fill="#FFFFFF" points="242.8,314.6 240.7,317.9 244.4,315.2 	"/>
	<polygon fill="#FFFFFF" points="205,308.8 207.6,304 203.7,304.1 	"/>
	<polygon fill="#FFFFFF" points="229.9,329.9 226.6,331.1 225,332.2 224.7,335.7 226.1,335.8 	"/>
	<polygon fill="#FFFFFF" points="205.7,214.9 198.8,221.5 198.9,221.7 205.9,220.4 206.5,216.4 	"/>
	<polygon fill="#FFFFFF" points="212.7,294.7 210.9,293.7 206.9,298 210.2,299.3 	"/>
	<polygon fill="#FFFFFF" points="223,301.2 223.2,301 222.5,299.9 215,295.9 212.6,300.2 215.5,301.3 	"/>
	<polygon fill="#FFFFFF" points="224.8,303.8 223.8,303.8 223.1,304.3 224.7,304.9 	"/>
	<polygon fill="#FFFFFF" points="211.3,251.2 218.9,240.2 216.7,236 207.5,242.2 	"/>
	<polygon fill="#FFFFFF" points="157.9,350.9 155.1,354 157.4,353.1 	"/>
	<polygon fill="#FFFFFF" points="146.8,356.9 146.8,356.8 146.6,357 	"/>
	<polygon fill="#FFFFFF" points="158.1,372.2 158.4,372.2 156.9,368.6 156.6,370.5 	"/>
	<polygon fill="#FFFFFF" points="201.1,243.4 202.8,242.2 203.3,238.8 199,228.6 194.2,229.7 	"/>
	<polygon fill="#FFFFFF" points="155.2,304.7 141.6,304.9 145.3,329.4 158.4,316.3 	"/>
	<polygon fill="#FFFFFF" points="156.3,358.5 156.6,357.2 155.3,357.5 155.7,358.6 	"/>
	<polygon fill="#FFFFFF" points="177.9,358.8 177,358.1 175.3,358.3 177.3,360 	"/>
	<polygon fill="#FFFFFF" points="177.5,355.2 177.7,355.3 177.7,355.3 	"/>
	<polygon fill="#FFFFFF" points="191.6,340.9 191.5,340.6 191.4,341 	"/>
	<polygon fill="#FFFFFF" points="145.3,347 143.5,334.9 143.5,334.8 133.7,344.7 141.2,353.1 	"/>
	<polygon fill="#FFFFFF" points="174.6,365 176,362.3 172.8,359.6 174.3,365.1 	"/>
	<polygon fill="#FFFFFF" points="157,374.8 155.7,374.8 155.3,376.4 156.4,377.9 158.4,376.5 	"/>
	<polygon fill="#FFFFFF" points="174,355.9 171.3,353.9 171.6,355.2 172.7,356.1 	"/>
	<polygon fill="#FFFFFF" points="146.4,354 145.9,350.8 142.9,355.1 143.6,355.9 	"/>
	<polygon fill="#FFFFFF" points="156.9,261.8 166.4,266.9 171.5,263.5 171,261.7 165.8,253.2 	"/>
	<polygon fill="#FFFFFF" points="169.6,246 177.8,238.1 174.9,234 167,235.8 	"/>
	<polygon fill="#FFFFFF" points="132,342.7 141.6,333 140.2,332.1 123.6,330.9 131.3,341.9 	"/>
	<polygon fill="#FFFFFF" points="174.4,228.8 176.7,231 180.6,230.1 180,227.7 174.3,228.7 	"/>
	<polygon fill="#FFFFFF" points="194.5,225.7 192.9,227.2 193,227.3 198,226.2 198,226.2 	"/>
	<polygon fill="#FFFFFF" points="185.8,239.3 195,247.6 198.9,244.9 191.6,230.3 189.1,230.9 184.7,235.1 	"/>
	<polygon fill="#FFFFFF" points="168.2,250.9 167.7,251.4 168.8,253.2 	"/>
	<polygon fill="#FFFFFF" points="139,304.9 134.4,304.9 141.8,323.6 	"/>
	<polygon fill="#FFFFFF" points="150.3,258.2 154.5,260.5 164.4,251 159.1,242.4 	"/>
	<polygon fill="#FFFFFF" points="126.9,347.8 130,344.7 129.2,343.5 121.7,335 	"/>
	<polygon fill="#FFFFFF" points="145.5,269.1 145.1,267.5 142.6,272 	"/>
	<polygon fill="#FFFFFF" points="133.4,302.4 138.6,302.3 138.1,298.5 132.8,301 	"/>
</g>
</svg>
