<?xml version="1.0" encoding="utf-8"?>
<!-- Generator: Adobe Illustrator 17.1.0, SVG Export Plug-In . SVG Version: 6.00 Build 0)  -->
<!DOCTYPE svg PUBLIC "-//W3C//DTD SVG 1.1//EN" "http://www.w3.org/Graphics/SVG/1.1/DTD/svg11.dtd">
<svg version="1.1" id="Layer_1" xmlns="http://www.w3.org/2000/svg" xmlns:xlink="http://www.w3.org/1999/xlink" x="0px" y="0px"
	 viewBox="0 0 246.4 172" enable-background="new 0 0 246.4 172" xml:space="preserve">
<g>
	<path fill="#FFFFFF" d="M31.1,151.1c0-2.4,0.8-4.4,2.5-6c1.7-1.6,4.2-2.5,7.7-2.5c2.5,0,5,0.6,7.5,1.8c0.1,0,0.1,0.1,0.1,0.2v4
		c0,0.2-0.2,0.3-0.4,0.2c-2.3-1-4.5-1.5-6.6-1.5c-3.8,0-5.6,1.2-5.6,3.6c0,0.8,0.5,1.5,1.5,2c1,0.5,2.2,1,3.6,1.4
		c1.4,0.4,2.8,0.9,4.2,1.4s2.6,1.5,3.6,2.8c1,1.3,1.5,3,1.5,4.9c0,2.3-0.9,4.3-2.6,5.9c-1.7,1.7-4.4,2.5-8,2.5c-3,0-5.7-0.6-8.1-1.9
		c-0.1,0-0.1-0.1-0.1-0.2v-4.2c0-0.2,0.2-0.3,0.4-0.2c2.4,1.3,4.9,1.9,7.5,1.9c0,0,0.1,0,0.1,0c1.8,0,3.2-0.3,4.2-1s1.4-1.5,1.4-2.5
		c0-1.2-0.5-2.1-1.5-2.8c-1-0.7-2.2-1.3-3.6-1.7s-2.9-0.8-4.3-1.3c-1.4-0.5-2.6-1.3-3.6-2.4C31.6,154.4,31.1,152.9,31.1,151.1z"/>
	<path fill="#FFFFFF" d="M56,159.6v-16.2c0-0.1,0.1-0.2,0.2-0.2h4.7c0.1,0,0.2,0.1,0.2,0.2V160c0,2.6,0.5,4.5,1.7,5.7
		c1.1,1.2,2.8,1.8,5.2,1.8c2.4,0,4.1-0.6,5.1-1.8c1.1-1.2,1.6-3.1,1.6-5.7v-16.6c0-0.1,0.1-0.2,0.2-0.2h4.7c0.1,0,0.2,0.1,0.2,0.2
		v16.2c0,3.9-1,7-3.1,9.2c-2.1,2.2-5,3.3-8.8,3.3c-3.8,0-6.7-1.1-8.9-3.3C57.1,166.6,56,163.5,56,159.6z"/>
	<path fill="#FFFFFF" d="M87.2,171.3v-28.4c0-0.1,0.1-0.2,0.2-0.2h11.9c3.6,0,6.4,0.9,8.5,2.8c2,1.9,3.1,4.5,3.1,7.8v18.1
		c0,0.1-0.1,0.2-0.2,0.2h-4.8c-0.1,0-0.2-0.1-0.2-0.2v-18.5c0-1.7-0.4-3-1.3-4c-0.9-1-2.6-1.4-5.2-1.4h-6.4c-0.1,0-0.2,0.1-0.2,0.2
		v23.6c0,0.1-0.1,0.2-0.2,0.2h-4.7C87.3,171.5,87.2,171.4,87.2,171.3z"/>
	<path fill="#FFFFFF" d="M116.8,151.1c0-2.4,0.8-4.4,2.5-6c1.7-1.6,4.2-2.5,7.7-2.5c2.5,0,5,0.6,7.5,1.8c0.1,0,0.1,0.1,0.1,0.2v4
		c0,0.2-0.2,0.3-0.4,0.2c-2.3-1-4.5-1.5-6.6-1.5c-3.8,0-5.6,1.2-5.6,3.6c0,0.8,0.5,1.5,1.5,2c1,0.5,2.2,1,3.6,1.4
		c1.4,0.4,2.8,0.9,4.2,1.4s2.6,1.5,3.6,2.8c1,1.3,1.5,3,1.5,4.9c0,2.3-0.9,4.3-2.6,5.9c-1.7,1.7-4.4,2.5-8,2.5c-3,0-5.7-0.6-8.1-1.9
		c-0.1,0-0.1-0.1-0.1-0.2v-4.2c0-0.2,0.2-0.3,0.4-0.2c2.4,1.3,4.9,1.9,7.5,1.9c0,0,0.1,0,0.1,0c1.8,0,3.2-0.3,4.2-1s1.4-1.5,1.4-2.5
		c0-1.2-0.5-2.1-1.5-2.8c-1-0.7-2.2-1.3-3.6-1.7s-2.9-0.8-4.3-1.3c-1.4-0.5-2.6-1.3-3.6-2.4C117.3,154.4,116.8,152.9,116.8,151.1z"
		/>
	<path fill="#FFFFFF" d="M140.4,147.3v-4c0-0.1,0.1-0.2,0.2-0.2h4.5c0.1,0,0.2-0.1,0.2-0.2v-7.9c0-0.1,0.1-0.2,0.2-0.2h4.7
		c0.1,0,0.2,0.1,0.2,0.2v7.9c0,0.1,0.1,0.2,0.2,0.2h7.1c0.1,0,0.2,0.1,0.2,0.2v4c0,0.1-0.1,0.2-0.2,0.2h-7.1c-0.1,0-0.2,0.1-0.2,0.2
		V164c0,2.2,1.4,3.3,4.2,3.3c0,0,0,0,0.1,0c1.1,0,2.1-0.2,2.9-0.6c0.2-0.1,0.4,0,0.4,0.2v4.1c0,0.1-0.1,0.2-0.2,0.2
		c-1.2,0.5-2.5,0.7-3.7,0.7c0,0-0.1,0-0.1,0c-0.7,0-1.4-0.1-2.2-0.2c-0.8-0.2-1.7-0.5-2.8-1c-1.1-0.5-2-1.3-2.7-2.6
		c-0.7-1.2-1.1-2.7-1.1-4.5v-15.9c0-0.1-0.1-0.2-0.2-0.2h-4.5C140.5,147.5,140.4,147.4,140.4,147.3z"/>
	<path fill="#FFFFFF" d="M186.1,154.6c0-3.8-1.1-6.8-3.2-8.8c-2.2-2-5.2-3.1-9.2-3.1c-3,0-5.8,0.5-8.4,1.5c-0.1,0-0.2,0.1-0.2,0.2
		v3.9c0,0.2,0.2,0.3,0.3,0.2c2.7-0.9,5.2-1.3,7.5-1.3c2.7,0,4.7,0.5,5.9,1.6c1.1,1,1.8,2.6,1.9,4.8c0,0.2-0.1,0.3-0.3,0.3
		c-1.6-0.2-3.2-0.3-4.9-0.3c-4.2,0-7.5,0.8-9.8,2.4c-2.4,1.6-3.6,3.8-3.6,6.6c0,0.6,0.1,1.2,0.2,1.9c0.1,0.6,0.4,1.4,0.9,2.4
		c0.5,1,1.1,1.8,1.9,2.5c0.8,0.7,2,1.3,3.6,1.9c1.6,0.5,3.4,0.8,5.5,0.8c0.2,0,0.4,0,0.6,0c0.2,0,0.5,0,0.7,0c3.6,0,6.3-0.8,8-2.5
		c1.7-1.7,2.6-3.6,2.6-5.9c0-0.1,0-0.2,0-0.3c0-0.2,0-0.3,0-0.5V154.6z M168.4,160c0.6-0.7,1.4-1.2,2.4-1.5s1.9-0.5,2.7-0.6
		c0.8-0.1,1.6-0.2,2.4-0.2c1.8,0,3.4,0.1,4.7,0.3c0.1,0,0.2,0.1,0.2,0.2v4.4c0,3.1-2.1,4.6-6.4,4.6c0,0-0.1,0-0.1,0
		c-4.6,0-6.8-1.6-6.8-4.8C167.4,161.5,167.8,160.7,168.4,160z"/>
	<path fill="#FFFFFF" d="M192.5,171.3v-28.4c0-0.1,0.1-0.2,0.2-0.2h11.9c3.6,0,6.4,0.9,8.5,2.8c2,1.9,3.1,4.5,3.1,7.8v18.1
		c0,0.1-0.1,0.2-0.2,0.2h-4.8c-0.1,0-0.2-0.1-0.2-0.2v-18.5c0-1.7-0.4-3-1.3-4c-0.9-1-2.6-1.4-5.2-1.4h-6.4c-0.1,0-0.2,0.1-0.2,0.2
		v23.6c0,0.1-0.1,0.2-0.2,0.2h-4.7C192.6,171.5,192.5,171.4,192.5,171.3z"/>
	<path fill="#FFFFFF" d="M246.1,134.7h-4.7c-0.1,0-0.2,0.1-0.2,0.2v8.3c0,0.2-0.2,0.3-0.3,0.2c-1.9-0.5-3.8-0.8-5.8-0.8
		c-1.6,0-3.2,0.2-4.6,0.6s-2.8,1.1-4.1,2.1s-2.4,2.5-3.2,4.4c-0.8,2-1.2,4.4-1.2,7.2c0,2.5,0.3,4.7,0.9,6.6c0.6,1.9,1.3,3.3,2.2,4.4
		c0.9,1,1.9,1.9,3.1,2.5c1.2,0.6,2.3,1.1,3.3,1.3c1,0.2,2.1,0.3,3.2,0.3c0.2,0,0.4,0,0.5,0c0.2,0,0.4,0,0.6,0c3.6,0,6.3-0.8,8-2.5
		c1.7-1.7,2.6-3.6,2.6-5.9c0-0.1,0-0.2,0-0.3c0-0.1,0-0.3,0-0.4v-27.9C246.4,134.8,246.3,134.7,246.1,134.7z M227.9,151.9
		c0.4-1.3,1-2.3,1.8-2.9c0.8-0.6,1.6-1.1,2.5-1.3c0.8-0.2,1.8-0.3,3-0.3c2.1,0,4,0.4,5.9,1.1c0.1,0,0.2,0.1,0.2,0.2v14.4
		c0,2.8-2.2,4.2-6.5,4.2c-1,0-1.9-0.1-2.7-0.4c-0.8-0.2-1.5-0.7-2.3-1.4c-0.8-0.7-1.4-1.7-1.8-3.2c-0.4-1.4-0.6-3.3-0.6-5.5
		C227.2,154.9,227.4,153.2,227.9,151.9z"/>
	<g>
		<polygon fill="#FFFFFF" points="51.6,50 51.2,48.8 50.1,48.4 51.2,58.9 51.5,59 		"/>
		<polygon fill="#FFFFFF" points="49.9,115.3 50.8,115.5 50.5,115.1 		"/>
		<polygon fill="#FFFFFF" points="51.4,74.1 51,74.7 51.4,75.3 		"/>
		<polygon fill="#FFFFFF" points="51.4,79.9 48.3,79.7 44.8,85.9 47.4,92.2 51.2,92.9 		"/>
		<polygon fill="#FFFFFF" points="51.5,60.5 51.4,60.5 51.5,62.1 		"/>
		<polygon fill="#FFFFFF" points="51.7,40.9 50.8,39.9 49.3,40.3 49.3,40.8 51.7,46.7 		"/>
		<polygon fill="#FFFFFF" points="51.8,35.8 51.5,35.9 51.7,36.3 		"/>
		<polygon fill="#FFFFFF" points="52,12.7 46.5,14 47.3,21.4 47.5,21.5 51.9,20.7 		"/>
		<polygon fill="#FFFFFF" points="51.9,22 51.2,22.1 51.9,22.2 		"/>
		<polygon fill="#FFFFFF" points="51.8,31 49.6,33.3 50.7,34.8 51.8,34.6 		"/>
		<polygon fill="#FFFFFF" points="51.2,95.2 50.4,96.1 50.7,96.4 51.2,96.3 		"/>
		<polygon fill="#FFFFFF" points="51.9,23.5 47.5,22.8 47.4,22.8 48.3,31.5 48.9,32.2 51.8,29.2 		"/>
		<polygon fill="#FFFFFF" points="40.2,115.2 40.8,117.1 43.2,116.3 41.3,115.3 		"/>
		<polygon fill="#FFFFFF" points="40.8,120.9 40,118.7 39.4,118.9 39.6,122.2 		"/>
		<polygon fill="#FFFFFF" points="41.3,122.6 41.2,122.2 39.9,123.7 40.2,124.2 		"/>
		<polygon fill="#FFFFFF" points="51.1,105.6 48.2,104.8 45.1,106.9 49,111.4 51.1,108.4 		"/>
		<polygon fill="#FFFFFF" points="43,122.4 48,118.8 46.1,117.8 		"/>
		<polygon fill="#FFFFFF" points="44.1,117.3 41.2,118.3 41.7,119.8 		"/>
		<polygon fill="#FFFFFF" points="52,9.1 46,8.7 46.4,12.8 52,11.4 		"/>
		<polygon fill="#FFFFFF" points="39.6,117.5 39.3,116.4 39.3,117.6 		"/>
		<polygon fill="#FFFFFF" points="63.6,109.4 63.6,109.3 63.5,109.3 		"/>
		<polygon fill="#FFFFFF" points="51,118.2 50.4,118.6 51,118.9 		"/>
		<polygon fill="#FFFFFF" points="51.1,111.6 50.1,112.7 50.9,113.7 51.1,113.7 		"/>
		<polygon fill="#FFFFFF" points="42.6,126.4 41.7,126.3 43.5,128.9 		"/>
		<polygon fill="#FFFFFF" points="42.6,120.7 42.2,121.2 42.2,121.3 		"/>
		<polygon fill="#FFFFFF" points="42,124.6 41.5,125 42.2,125.1 		"/>
		<polygon fill="#FFFFFF" points="51.7,38.4 51.3,37.8 50,37 51.3,38.5 51.7,38.4 		"/>
		<polygon fill="#FFFFFF" points="95.6,116.3 95.4,115.4 95,116.1 		"/>
		<polygon fill="#FFFFFF" points="120.4,86 120.5,84.9 118,84.7 119,86.2 		"/>
		<polygon fill="#FFFFFF" points="84.9,114.7 84.7,115 87.9,118.7 91,116.3 		"/>
		<polygon fill="#FFFFFF" points="87.1,120.9 88.3,121 87.7,120.4 		"/>
		<polygon fill="#FFFFFF" points="100.6,90.2 100,91.2 101,94.9 101.2,95.1 101.6,90 		"/>
		<polygon fill="#FFFFFF" points="101.4,108.5 101.3,108.4 101.3,108.6 		"/>
		<polygon fill="#FFFFFF" points="97.3,110.1 94.8,107.9 95.9,112.3 		"/>
		<polygon fill="#FFFFFF" points="77.3,114.6 75.6,112.2 72.7,111.4 70.6,115.2 70.8,116.6 72.9,118.8 79.4,119.7 		"/>
		<polygon fill="#FFFFFF" points="78.3,125.9 77.9,125.5 76.9,127 		"/>
		<polygon fill="#FFFFFF" points="67.8,104.8 67.2,101.3 63.7,101.3 62.5,103.3 64.1,107.3 		"/>
		<path fill="#FFFFFF" d="M52,5.4L50.5,3l-1.2-0.4c-0.3,0.1-0.6,0.2-0.9,0.3L52,6.2L52,5.4z"/>
		<polygon fill="#FFFFFF" points="74.4,120.2 77.7,123.5 79.3,121 		"/>
		<polygon fill="#FFFFFF" points="83.4,116.9 82.7,118 82.5,119.8 82.7,120.2 84.4,120.5 		"/>
		<polygon fill="#FFFFFF" points="84,121.7 83.7,121.6 83.8,121.8 		"/>
		<polygon fill="#FFFFFF" points="66.8,13.7 68.6,11.8 68.1,10.2 64,9.9 		"/>
		<polygon fill="#FFFFFF" points="120.8,80.4 117,81.3 116.3,82.4 117,83.4 120.5,83.6 		"/>
		<polygon fill="#FFFFFF" points="67.2,8.9 67.8,8.9 67.8,8.7 		"/>
		<path fill="#FFFFFF" d="M48,3c-0.2,0.1-0.4,0.1-0.6,0.2C47.6,3.1,47.8,3,48,3z"/>
		<polygon fill="#FFFFFF" points="71.3,17.2 77.9,16 76.5,10.8 71.7,10.4 70,12.2 		"/>
		<path fill="#FFFFFF" d="M50,2.4c0.4-0.1,0.9-0.2,1.3-0.4C50.9,2.2,50.5,2.3,50,2.4z"/>
		<path fill="#FFFFFF" d="M52.1,1.9c-0.1,0-0.3,0.1-0.4,0.1L52,2.1L52.1,1.9z"/>
		<polygon fill="#FFFFFF" points="119.6,69.4 119.3,69.6 120.9,72.8 121.3,72.1 121.4,71.1 		"/>
		<polygon fill="#FFFFFF" points="121.1,93.6 122.2,92.7 121.4,91.5 121.2,91.6 		"/>
		<polygon fill="#FFFFFF" points="125.9,64.8 125,65.5 125.5,65.5 		"/>
		<polygon fill="#FFFFFF" points="72.8,7.5 71.6,7.8 72.3,8 		"/>
		<polygon fill="#FFFFFF" points="129.4,59.4 125.8,51.4 125.5,51.6 123.8,54.2 123.1,65.4 127.7,62.1 		"/>
		<polygon fill="#FFFFFF" points="51,122.4 49,125.8 51,126 		"/>
		<path fill="#FFFFFF" d="M33.1,9.6c-0.2,0.1-0.4,0.2-0.6,0.3C32.7,9.9,32.9,9.8,33.1,9.6z"/>
		<path fill="#FFFFFF" d="M31.5,16.1l0.9-2.9l-0.1-1.9l-0.6-0.8c-1.1,0.7-2.2,1.4-3.3,2.2L31.5,16.1z"/>
		<path fill="#FFFFFF" d="M27.7,17.4l2.7-0.7l-3-3.4c-0.4,0.3-0.7,0.6-1.1,0.8L27.7,17.4z"/>
		<path fill="#FFFFFF" d="M33.5,9.7l0.1-0.4c0,0-0.1,0.1-0.1,0.1L33.5,9.7z"/>
		<path fill="#FFFFFF" d="M44.6,7.3l-0.3-3.1c-2.1,0.8-4.1,1.7-6.1,2.6L44.6,7.3z"/>
		<path fill="#FFFFFF" d="M35.7,8.1c-0.1,0-0.1,0.1-0.2,0.1C35.5,8.2,35.6,8.2,35.7,8.1z"/>
		<path fill="#FFFFFF" d="M22.4,17.6c-0.1,0.1-0.3,0.3-0.4,0.4C22.1,17.8,22.2,17.7,22.4,17.6z"/>
		<polygon fill="#FFFFFF" points="29.1,24.2 27.1,19.5 25.7,19.2 21.4,20.3 29,24.4 		"/>
		<path fill="#FFFFFF" d="M17.6,26.8l1.1-0.2l-1.6-3.8c-0.4,0.5-0.9,1-1.3,1.5L17.6,26.8z"/>
		<path fill="#FFFFFF" d="M13.4,27.6l2.9-0.5l-1.2-1.8c-0.6,0.7-1.1,1.4-1.6,2.1L13.4,27.6z"/>
		<path fill="#FFFFFF" d="M44.9,4c-0.1,0-0.2,0.1-0.3,0.1C44.6,4.1,44.7,4.1,44.9,4z"/>
		<path fill="#FFFFFF" d="M25.7,17.9l0.8-0.2L25.4,15c-1,0.8-1.9,1.6-2.8,2.4L25.7,17.9z"/>
		<path fill="#FFFFFF" d="M22.6,18.7l-1.2-0.2c-0.2,0.2-0.5,0.4-0.7,0.7L22.6,18.7z"/>
		<path fill="#FFFFFF" d="M17.9,22c-0.2,0.2-0.4,0.4-0.5,0.6C17.6,22.4,17.7,22.2,17.9,22z"/>
		<polygon fill="#FFFFFF" points="39.1,44.2 38.7,44.6 43.6,56.7 49.9,58.5 48.8,47.9 		"/>
		<polygon fill="#FFFFFF" points="48.6,34.3 48.7,34.9 48.9,35.1 49.3,35 48.7,34.2 		"/>
		<polygon fill="#FFFFFF" points="49,37.8 49.1,39 49.9,38.8 		"/>
		<polygon fill="#FFFFFF" points="50.5,47.2 49.8,45.3 50,47 		"/>
		<polygon fill="#FFFFFF" points="45.6,61.6 47.1,65.2 48.5,66.5 48.5,66.5 50.5,64.6 50.1,60.7 		"/>
		<polygon fill="#FFFFFF" points="50.4,67.7 50.2,67.9 50.7,68.4 50.9,68.3 50.8,67.7 		"/>
		<polygon fill="#FFFFFF" points="44.1,27.8 46.1,32.6 47.2,33.9 47.3,33.8 47.1,32 		"/>
		<polygon fill="#FFFFFF" points="39.4,15.8 41.2,20.5 46,21.2 45.3,14.3 		"/>
		<polygon fill="#FFFFFF" points="42.7,23.6 46.9,29.4 46.2,23 		"/>
		<polygon fill="#FFFFFF" points="47.9,40.6 41.1,42.1 40,43.2 48.6,46.5 48.1,41.1 		"/>
		<polygon fill="#FFFFFF" points="46.2,36.8 42.7,40.4 47.4,39.4 46.4,36.8 		"/>
		<path fill="#FFFFFF" d="M47,3.3c-0.5,0.2-1,0.3-1.5,0.5l0.4,3.6l6.1,0.4L47,3.3z"/>
		<polygon fill="#FFFFFF" points="50.3,97.8 49.8,97.9 50,98.4 50.6,98.1 		"/>
		<polygon fill="#FFFFFF" points="49.1,100 49.3,100 49.3,100 		"/>
		<polygon fill="#FFFFFF" points="48.5,114.3 48.4,114.5 49.7,114.1 49.2,113.6 		"/>
		<polygon fill="#FFFFFF" points="48,93.6 48,93.7 49.5,95.2 50.6,94.1 		"/>
		<polygon fill="#FFFFFF" points="50.6,103.2 49.6,103.9 51.1,104.3 		"/>
		<polygon fill="#FFFFFF" points="45.7,98.9 41.3,100 44.6,100 		"/>
		<polygon fill="#FFFFFF" points="40.4,101.4 41,101.6 41.9,101.3 40.3,101.3 		"/>
		<polygon fill="#FFFFFF" points="46.6,104.4 43,103.4 42.5,103.9 44.3,106 		"/>
		<polygon fill="#FFFFFF" points="39.4,112.9 41.7,114.1 46.4,114.8 47.6,113.5 48.3,112.5 44.1,107.6 39,111.2 39,111.7 		"/>
		<polygon fill="#FFFFFF" points="47.2,116.3 46.9,116.8 49.2,118 50.9,116.8 47.3,116.2 		"/>
		<path fill="#FFFFFF" d="M15.7,24.5c-0.2,0.2-0.3,0.4-0.5,0.6C15.4,24.9,15.6,24.7,15.7,24.5z"/>
		<polygon fill="#FFFFFF" points="38.9,102.3 38.5,102.2 38.5,102.5 		"/>
		<polygon fill="#FFFFFF" points="48.8,98.8 48.5,98.2 48.1,98.4 47,99.4 		"/>
		<polygon fill="#FFFFFF" points="40.8,103.8 40.3,103.2 38.6,103.8 38.7,106 		"/>
		<polygon fill="#FFFFFF" points="43.3,106.7 41.7,104.8 38.8,107.7 38.9,109.7 		"/>
		<polygon fill="#FFFFFF" points="21.5,103.7 24.1,103 23.4,101.7 21.1,102 21.3,103.6 		"/>
		<polygon fill="#FFFFFF" points="25.5,107.1 21.5,105.1 21.9,108.4 		"/>
		<polygon fill="#FFFFFF" points="24.7,89.4 19.8,88.5 19.3,88.9 19.6,90.9 20.7,93.3 		"/>
		<polygon fill="#FFFFFF" points="28.6,112.2 26.6,108.1 22.1,109.7 22.3,111.3 		"/>
		<polygon fill="#FFFFFF" points="19.8,102.2 19,102.4 19.9,102.9 		"/>
		<polygon fill="#FFFFFF" points="16.8,102.7 12.7,103.3 12.7,105.8 19.6,104.1 		"/>
		<polygon fill="#FFFFFF" points="45.6,101.3 44.9,101.5 44,102.4 48,103.5 50.1,102 49.8,101.3 		"/>
		<polygon fill="#FFFFFF" points="35.2,118.9 32.9,115.4 31.9,116.1 33.5,119.5 		"/>
		<polygon fill="#FFFFFF" points="29.9,114.8 29.3,113.6 26.9,117.8 		"/>
		<polygon fill="#FFFFFF" points="47.9,96.7 47,94.4 45.7,93.2 41.2,92.4 38.2,97.6 38.3,98.2 47.9,96.8 		"/>
		<polygon fill="#FFFFFF" points="33.4,111.3 31.2,110.1 31,110.4 32.3,112.4 		"/>
		<polygon fill="#FFFFFF" points="32.2,114.4 32.1,114.3 32,114.5 		"/>
		<polygon fill="#FFFFFF" points="62,92.6 58.6,87.8 56.9,89.5 58.8,94.3 59,94.4 61.1,93.8 		"/>
		<polygon fill="#FFFFFF" points="68.7,82.9 69.8,81.2 65.9,80.9 68.1,82.5 		"/>
		<polygon fill="#FFFFFF" points="69.1,97.5 69.6,98 69.7,97.6 		"/>
		<polygon fill="#FFFFFF" points="68.2,93.8 69,93.6 68.8,93.2 68.5,93.3 		"/>
		<polygon fill="#FFFFFF" points="70.7,87.2 68.5,85.3 67.6,86.7 68.6,89.3 70.1,88.3 		"/>
		<polygon fill="#FFFFFF" points="74.4,100 76.2,98.7 72.1,98 72.9,100 		"/>
		<polygon fill="#FFFFFF" points="69.4,107.5 71.8,106.7 70.3,104.5 69.4,105.1 69.2,106.1 		"/>
		<polygon fill="#FFFFFF" points="77.4,100 77.9,99.1 77.9,99.1 76.6,100 		"/>
		<polygon fill="#FFFFFF" points="67.5,84.5 66.3,83.4 67,85.3 		"/>
		<polygon fill="#FFFFFF" points="51.3,71.8 51.3,71.7 49.4,70.4 49.2,70.5 49.4,71 51.1,72 		"/>
		<polygon fill="#FFFFFF" points="59.8,61.4 61.3,61.8 61.1,60.5 		"/>
		<polygon fill="#FFFFFF" points="61.8,52.9 61.2,52.7 61.4,53.7 		"/>
		<polygon fill="#FFFFFF" points="56.7,102.5 57.3,103 58.9,101.3 57.5,101.3 		"/>
		<polygon fill="#FFFFFF" points="59.3,98.7 58.4,100 59.8,100 		"/>
		<polygon fill="#FFFFFF" points="104.3,84.4 103.3,86 104.8,88.3 111.8,87.3 113.6,84.4 106.6,83.9 		"/>
		<polygon fill="#FFFFFF" points="98.2,84.7 100.7,84.1 100.3,83.4 99.9,83.4 98.2,84.6 		"/>
		<polygon fill="#FFFFFF" points="114.8,82.4 114.4,81.9 114.4,81.9 114.7,82.5 		"/>
		<polygon fill="#FFFFFF" points="64.5,56.7 64.7,56.5 63.1,54.3 61.8,55.5 61.7,55.7 61.9,57.2 		"/>
		<polygon fill="#FFFFFF" points="113.4,87 114.7,86.8 114.2,85.7 		"/>
		<polygon fill="#FFFFFF" points="90.9,15 94.7,22.2 95.2,21.7 96,16.1 91.6,14.8 		"/>
		<polygon fill="#FFFFFF" points="77.1,93.7 71.6,94.5 71.3,96 71.5,96.6 77.6,97.7 78.1,97.4 		"/>
		<polygon fill="#FFFFFF" points="96.3,14 94.3,14.3 96.1,14.9 		"/>
		<polygon fill="#FFFFFF" points="99.1,82.1 99.5,82.1 99.4,82 		"/>
		<polygon fill="#FFFFFF" points="82.2,91.2 83,89.7 80.6,90.3 		"/>
		<polygon fill="#FFFFFF" points="81.6,94.9 82.2,94.5 82,94.3 		"/>
		<polygon fill="#FFFFFF" points="83.3,93.7 83.5,93.5 82.7,93 82.6,93.2 		"/>
		<polygon fill="#FFFFFF" points="86.4,83.5 86.5,82.4 84.7,82.3 86,84.1 		"/>
		<polygon fill="#FFFFFF" points="85.9,87.1 85.5,87.8 85.8,87.7 		"/>
		<polygon fill="#FFFFFF" points="87,27.9 88.2,28.1 88.7,28 89.5,27.1 86.7,20.5 85.7,25.4 		"/>
		<polygon fill="#FFFFFF" points="106.7,48.6 106.9,48.6 106.8,48.4 		"/>
		<polygon fill="#FFFFFF" points="105.8,55.1 111.1,60 112.4,59.1 107.8,50.3 106,52.3 		"/>
		<polygon fill="#FFFFFF" points="92.7,64.8 92.7,64.8 92.7,64.8 		"/>
		<polygon fill="#FFFFFF" points="111.5,44.5 110.4,41.8 107.6,47.1 108.1,48.1 		"/>
		<polygon fill="#FFFFFF" points="106.2,50.3 106.5,49.9 106.2,50 		"/>
		<polygon fill="#FFFFFF" points="106.6,45.2 106.9,45.7 108.9,42 106.8,43 		"/>
		<polygon fill="#FFFFFF" points="95.7,61.6 91.1,59.2 92.3,63.3 93.6,63.8 		"/>
		<polygon fill="#FFFFFF" points="94.8,85.5 96.7,84.1 96.4,83.2 96.2,83.1 92,84.7 93.1,85.9 		"/>
		<polygon fill="#FFFFFF" points="88.3,82.6 88.2,82.7 88.7,84.5 89.8,84.1 88.5,82.6 		"/>
		<polygon fill="#FFFFFF" points="63.6,24.1 61.6,20.9 59.3,23.3 59.3,23.4 		"/>
		<polygon fill="#FFFFFF" points="89.3,86.9 91.7,86.3 90.7,85.1 89,85.7 		"/>
		<polygon fill="#FFFFFF" points="89.9,89 92,87.5 89.6,88.1 		"/>
		<polygon fill="#FFFFFF" points="91.1,83.6 93.1,82.9 90.2,82.7 		"/>
		<polygon fill="#FFFFFF" points="78.8,76.1 76.2,80.4 78.1,80.6 80.3,78.2 		"/>
		<polygon fill="#FFFFFF" points="66.5,44.5 71.1,36.3 70.6,35.5 63,37.2 64.8,43.6 		"/>
		<polygon fill="#FFFFFF" points="82.3,27.1 84,27.4 84.4,25.6 81.6,20.1 80.8,21.6 		"/>
		<polygon fill="#FFFFFF" points="82.2,16.5 81.3,16.7 81.7,17.5 		"/>
		<polygon fill="#FFFFFF" points="106,30.9 106,30.9 106,30.9 		"/>
		<polygon fill="#FFFFFF" points="68.2,31.6 64.5,25.5 59.6,24.7 61.8,32.8 		"/>
		<polygon fill="#FFFFFF" points="58.9,21.9 60.2,20.5 58.6,20.8 		"/>
		<polygon fill="#FFFFFF" points="69.9,34.3 69,32.8 62.2,34 62.7,36 		"/>
		<polygon fill="#FFFFFF" points="106.6,27.4 106,27.5 106.2,28 		"/>
		<polygon fill="#FFFFFF" points="84.5,31.1 85.7,30.8 86.6,29.9 86.5,29.6 84.8,29.9 		"/>
		<polygon fill="#FFFFFF" points="86.1,15.8 86.3,16.3 86.4,15.8 		"/>
		<polygon fill="#FFFFFF" points="85.2,27.6 85.4,27.6 85.3,27.3 		"/>
		<polygon fill="#FFFFFF" points="88,14.2 88.9,14.1 88.1,13.8 		"/>
		<polygon fill="#FFFFFF" points="52.3,117.9 52.5,117.5 52.4,117.3 52.3,117.3 		"/>
		<polygon fill="#FFFFFF" points="119.1,74.9 113.6,76.9 117.6,78 119.5,75.1 		"/>
		<polygon fill="#FFFFFF" points="129.9,42.4 125,38 124.5,45.2 128.6,44.4 		"/>
		<polygon fill="#FFFFFF" points="124.1,51.1 124.6,50.7 125.1,49.9 124.3,48 		"/>
		<polygon fill="#FFFFFF" points="111.8,39.2 118.9,35.9 118.1,34.2 114.8,33.6 		"/>
		<polygon fill="#FFFFFF" points="79.3,81.9 78.6,81.9 77.3,83.3 		"/>
		<polygon fill="#FFFFFF" points="123.3,33.7 124,33.4 124.1,32.8 123.2,33.7 		"/>
		<polygon fill="#FFFFFF" points="114,47.2 123.1,45.5 119.6,37.6 113,44.7 		"/>
		<polygon fill="#FFFFFF" points="123.9,35.4 123.9,35.1 123.5,35 123.5,35 		"/>
		<polygon fill="#FFFFFF" points="107.8,31.2 112.5,32 115.2,29.3 111.7,26.3 111.6,26.3 108,28.7 		"/>
		<polygon fill="#FFFFFF" points="122.7,72.3 122.8,72.3 122.7,72.3 		"/>
		<polygon fill="#FFFFFF" points="114.5,48.4 117.4,55.6 122.7,52 123.1,46.7 		"/>
		<polygon fill="#FFFFFF" points="120,35.3 120,35.3 120.7,34.6 119.6,34.4 		"/>
		<polygon fill="#FFFFFF" points="87.1,18.3 90.5,26.2 93.7,23.1 89.6,15.2 87.7,15.5 		"/>
		<polygon fill="#FFFFFF" points="127.7,45.9 124.9,46.4 125.9,48.6 		"/>
		<polygon fill="#FFFFFF" points="77.2,8.7 77.6,9.5 78,9.6 82.2,9.9 80.4,5.6 76.6,6.5 		"/>
		<polygon fill="#FFFFFF" points="76.7,5.2 79.9,4.4 79.2,2.6 		"/>
		<polygon fill="#FFFFFF" points="53.4,9.2 53.2,9.2 53.2,11.1 53.7,10.9 53.5,9.2 		"/>
		<polygon fill="#FFFFFF" points="97.5,13.8 97.3,15.2 100,16 99.9,15.8 97.6,13.8 		"/>
		<polygon fill="#FFFFFF" points="53.1,20.5 55.1,20.1 53.9,12.2 53.2,12.4 		"/>
		<polygon fill="#FFFFFF" points="54.5,114.2 54.7,113.7 52.3,114.6 52.3,115.3 52.6,115.6 		"/>
		<polygon fill="#FFFFFF" points="108.6,21.8 109.5,22.6 110.8,20.4 108.7,19.8 		"/>
		<polygon fill="#FFFFFF" points="98.4,12.3 97.8,12.2 97.8,12.2 98,12.4 98.5,12.3 		"/>
		<polygon fill="#FFFFFF" points="108.3,24.4 108.4,24.4 108.8,23.7 108.4,23.4 		"/>
		<polygon fill="#FFFFFF" points="109.2,14.3 108.8,18.6 111.4,19.3 		"/>
		<polygon fill="#FFFFFF" points="96.6,20.3 99.8,17.2 97.2,16.5 		"/>
		<polygon fill="#FFFFFF" points="96,24.8 96.9,26.5 103.7,25.3 100.8,18 96.3,22.3 		"/>
		<polygon fill="#FFFFFF" points="120.7,36.4 120.5,36.6 123.4,42.9 123.8,37 122.3,35.6 		"/>
		<polygon fill="#FFFFFF" points="53.5,93.3 53.5,92.9 53.1,93.3 		"/>
		<polygon fill="#FFFFFF" points="60.5,79.3 52.8,74.6 53.1,77.8 53.9,78.8 		"/>
		<polygon fill="#FFFFFF" points="55,107.4 54.1,108.3 55.4,111.4 		"/>
		<polygon fill="#FFFFFF" points="53.6,107 53.6,107.1 54.2,106.4 54,106.4 		"/>
		<polygon fill="#FFFFFF" points="69.3,115 68.6,110.3 68.4,110.2 67.7,113.5 69.3,115.1 		"/>
		<polygon fill="#FFFFFF" points="67.4,115.3 68.1,117.2 68.6,116.2 67.4,115 		"/>
		<polygon fill="#FFFFFF" points="84.2,98.9 81.5,96.5 80.3,97.4 79.9,98.1 84.2,98.9 		"/>
		<polygon fill="#FFFFFF" points="82.4,18.8 84.8,23.6 85.8,18.4 84.8,16.1 83.8,16.2 		"/>
		<polygon fill="#FFFFFF" points="85.1,11.3 84.2,11.3 84.2,11.4 85,11.6 		"/>
		<polygon fill="#FFFFFF" points="75,31.9 75.4,33.1 78.7,32.4 78.3,31.8 77.6,31.2 75.2,31.6 		"/>
		<polygon fill="#FFFFFF" points="79.4,15.8 78.9,14.7 79.2,15.8 		"/>
		<polygon fill="#FFFFFF" points="76,30.2 76.5,30.1 76.2,29.9 		"/>
		<polygon fill="#FFFFFF" points="83,15.1 83.8,13.6 83.3,12.5 78.4,11 80.7,15.5 		"/>
		<polygon fill="#FFFFFF" points="93,99.7 93.2,99.5 92.5,99.1 92.6,99.8 		"/>
		<polygon fill="#FFFFFF" points="101.7,88.5 101.5,88.8 101.7,88.8 		"/>
		<polygon fill="#FFFFFF" points="101.4,85.2 98.5,85.9 99.4,89.1 99.9,89 101.9,86 		"/>
		<polygon fill="#FFFFFF" points="95.8,90.9 91.4,91.6 95,96.6 97.5,92.8 		"/>
		<polygon fill="#FFFFFF" points="107.1,94.5 104.1,89.7 102.8,89.9 102.3,96.4 102.5,96.5 106.8,95.1 		"/>
		<polygon fill="#FFFFFF" points="95.1,99 95.1,98.9 94.9,99 		"/>
		<polygon fill="#FFFFFF" points="105.7,96.8 103.3,97.6 104.4,98.8 		"/>
		<polygon fill="#FFFFFF" points="80.1,100 83.2,100 80,99.4 		"/>
		<polygon fill="#FFFFFF" points="83.8,101.3 80.5,101.3 81.1,103.6 83.6,102.8 		"/>
		<polygon fill="#FFFFFF" points="83.4,104.2 81.5,104.8 82.7,109.4 		"/>
		<polygon fill="#FFFFFF" points="118.6,79.6 118.1,79.5 118,79.8 		"/>
		<polygon fill="#FFFFFF" points="94.3,97.8 90.9,93.1 92,97.3 93.8,98.4 		"/>
		<polygon fill="#FFFFFF" points="91.9,103.8 92.5,104.4 92.2,103.2 		"/>
		<polygon fill="#FFFFFF" points="115.5,32.5 117.5,32.8 116.5,30.6 		"/>
		<polygon fill="#FFFFFF" points="12.8,95.3 12.7,99.1 13.9,99.8 17.3,96.5 		"/>
		<polygon fill="#FFFFFF" points="14.9,101.7 14.2,101.3 13.5,101.9 		"/>
		<polygon fill="#FFFFFF" points="32,19 32.4,19 32.1,18.6 		"/>
		<polygon fill="#FFFFFF" points="30.4,24.1 30.5,24.5 33,24.1 32.8,20.4 31.6,20.2 		"/>
		<polygon fill="#FFFFFF" points="19.1,97 18.7,96.9 15.5,100 19.5,100 		"/>
		<polygon fill="#FFFFFF" points="17.8,101.3 16.8,101.3 17.1,101.4 		"/>
		<polygon fill="#FFFFFF" points="29.6,22.3 30.3,20 28.6,19.7 		"/>
		<polygon fill="#FFFFFF" points="28.4,38.7 33.8,37.8 33.6,35.5 29.9,26.3 29.7,26.2 26.2,37.9 		"/>
		<polygon fill="#FFFFFF" points="29.6,110.5 28.3,108.6 28.2,108.5 29.3,110.9 		"/>
		<polygon fill="#FFFFFF" points="38.7,24.3 43.6,29.8 41.2,23.9 		"/>
		<polygon fill="#FFFFFF" points="30.7,18.8 31,17.9 28.8,18.5 		"/>
		<polygon fill="#FFFFFF" points="33.2,28.1 31.6,27.2 33.4,31.6 		"/>
		<polygon fill="#FFFFFF" points="41.8,21.8 42,22.5 43.8,22.1 		"/>
		<polygon fill="#FFFFFF" points="31.4,25.6 33.1,26.6 33.1,25.3 		"/>
		<polygon fill="#FFFFFF" points="3.7,68.3 3.7,68.3 2.7,68.3 2.9,68.5 		"/>
		<polygon fill="#FFFFFF" points="3.8,69.6 3.6,69.6 3.8,70 		"/>
		<path fill="#FFFFFF" d="M1.5,53.9c-0.1,0.6-0.2,1.2-0.3,1.8C1.2,55.1,1.3,54.5,1.5,53.9z"/>
		<polygon fill="#FFFFFF" points="34.4,101.9 34.4,101.7 26.5,103.7 28.2,106.2 32.9,104.5 		"/>
		<path fill="#FFFFFF" d="M3,57l-0.4-6.3l-0.4,0.1c-0.3,1-0.5,2-0.7,3.1L3,57z"/>
		<path fill="#FFFFFF" d="M2.6,49.3c0.3-0.9,0.5-1.8,0.8-2.7C3.2,47.5,2.9,48.4,2.6,49.3z"/>
		<polygon fill="#FFFFFF" points="3.6,46.5 3.7,49.2 8.9,48 		"/>
		<polygon fill="#FFFFFF" points="12.1,35.2 12,34.8 12,35.1 		"/>
		<path fill="#FFFFFF" d="M12.2,29.2c-0.2,0.2-0.3,0.5-0.5,0.7l0.5,1.4L12.2,29.2z"/>
		<path fill="#FFFFFF" d="M20,26.4l7.6-1.4l-8-4.3L19,20.9c-0.3,0.3-0.6,0.6-0.9,0.9L20,26.4z"/>
		<path fill="#FFFFFF" d="M3.9,45.3l2.8,0.8l-2.6-1.6C4.1,44.8,4,45,3.9,45.3z"/>
		<polygon fill="#FFFFFF" points="12,44.3 11.8,43 5.8,44.1 11.2,47.4 11.4,47.4 12,47.3 		"/>
		<polygon fill="#FFFFFF" points="12,49.3 11.1,48.8 4.7,50.2 11.9,57.4 		"/>
		<polygon fill="#FFFFFF" points="33.6,79.2 34.4,80.1 35.8,78.8 34.3,78.6 		"/>
		<polygon fill="#FFFFFF" points="37,99.8 37.1,99.8 37.1,99.7 37.1,99.7 		"/>
		<polygon fill="#FFFFFF" points="36.2,55.9 36.7,56.3 36.4,55.9 		"/>
		<polygon fill="#FFFFFF" points="36.7,69.9 37,74.9 38.5,74.2 		"/>
		<polygon fill="#FFFFFF" points="36.2,59.1 39.4,61.5 40.2,61.4 39.5,60.4 36.1,57.4 		"/>
		<polygon fill="#FFFFFF" points="16.8,40.8 14.7,39.1 15.4,41.1 		"/>
		<polygon fill="#FFFFFF" points="13.7,42.6 14.9,43.5 14.5,42.5 		"/>
		<polygon fill="#FFFFFF" points="18.2,45.9 21.3,45.2 19.4,43.1 18,41.9 15.8,42.3 16.6,44.8 		"/>
		<polygon fill="#FFFFFF" points="35.3,81 36.1,81.8 36.1,80.2 		"/>
		<polygon fill="#FFFFFF" points="36.5,64.5 36.5,66.2 36.8,66.7 40,66.6 		"/>
		<polygon fill="#FFFFFF" points="24.4,68.1 25.4,71 31.6,77.2 32.2,77.2 35.8,75.5 35.4,67.9 		"/>
		<path fill="#FFFFFF" d="M7,38c-0.1,0.3-0.3,0.5-0.4,0.8C6.7,38.5,6.8,38.3,7,38z"/>
		<polygon fill="#FFFFFF" points="36.9,63.3 37.6,63.7 37.2,63.2 		"/>
		<polygon fill="#FFFFFF" points="44.9,70 45,69.9 45.1,69.8 44.2,69.2 		"/>
		<polygon fill="#FFFFFF" points="37.6,61.8 37.7,61.8 37.4,61.6 		"/>
		<polygon fill="#FFFFFF" points="35.9,113.3 37.9,113.6 37.9,113.5 36.5,112.9 		"/>
		<polygon fill="#FFFFFF" points="37.7,112.1 37.8,112.1 37.8,112 		"/>
		<polygon fill="#FFFFFF" points="37,109.5 35.5,110.9 36.5,111.4 37.4,110.8 		"/>
		<polygon fill="#FFFFFF" points="36.6,104.5 37.5,107.2 37.5,107.2 37.4,104.2 		"/>
		<polygon fill="#FFFFFF" points="27.4,88.6 27.9,88.7 27.6,88.4 		"/>
		<polygon fill="#FFFFFF" points="44.3,67.8 45,68.3 44.7,67.8 		"/>
		<polygon fill="#FFFFFF" points="46,66 43.3,63.7 44.3,65.1 46.2,66.5 		"/>
		<polygon fill="#FFFFFF" points="28.1,82.9 25.8,84.4 27.7,86.6 28.9,85.4 		"/>
		<polygon fill="#FFFFFF" points="36,101.5 35.8,102 36.2,103.3 37.3,102.9 37.2,101.9 		"/>
		<polygon fill="#FFFFFF" points="35,103.7 34.9,103.5 34.7,103.8 		"/>
		<polygon fill="#FFFFFF" points="36.3,98.5 33.5,95.3 34.7,98.8 36.3,98.5 		"/>
		<polygon fill="#FFFFFF" points="35.2,100 35.4,100 35.5,99.9 35.1,100 35.1,100 		"/>
		<path fill="#FFFFFF" d="M0.1,64.4c0,0.7,0,1.3-0.1,2C0.1,65.8,0.1,65.1,0.1,64.4z"/>
		<polygon fill="#FFFFFF" points="50.8,120.2 49.3,119.4 43.1,123.9 43.5,125.2 47.6,125.7 		"/>
		<polygon fill="#FFFFFF" points="37.8,125.9 37.3,126.4 38.1,125.9 		"/>
		<polygon fill="#FFFFFF" points="46.9,126.8 44,126.5 45.1,129.8 		"/>
		<polygon fill="#FFFFFF" points="51.2,101.3 51.2,101.3 51.2,101.3 		"/>
		<polygon fill="#FFFFFF" points="73.4,129.7 73.2,129.6 73.2,129.8 		"/>
		<polygon fill="#FFFFFF" points="51.2,99.3 50.4,99.5 50.6,100 51.2,100 		"/>
		<polygon fill="#FFFFFF" points="28.9,107.3 29.1,107.6 30.7,108.4 32,106.1 		"/>
		<polygon fill="#FFFFFF" points="77,124.6 72.3,119.9 71.3,119.8 72.5,128 72.6,128.3 74.5,128.5 		"/>
		<polygon fill="#FFFFFF" points="30.9,113.8 30.7,113.8 30.8,113.9 		"/>
		<polygon fill="#FFFFFF" points="20.8,97.4 20.4,97.3 20.8,100 22.5,100 		"/>
		<polygon fill="#FFFFFF" points="30.3,111.7 30,112.3 30.1,112.4 30.9,112.5 		"/>
		<polygon fill="#FFFFFF" points="35.9,120 34.1,120.6 35.9,124.4 37.3,124.6 38.3,123.5 		"/>
		<polygon fill="#FFFFFF" points="37.9,127.5 37.6,127.8 37.6,127.9 		"/>
		<polygon fill="#FFFFFF" points="87,129.8 86.8,129.1 86.3,129.8 		"/>
		<polygon fill="#FFFFFF" points="119.3,101.3 113,101.3 112.8,101.4 114.8,104.5 119,105.3 		"/>
		<polygon fill="#FFFFFF" points="118.9,106.5 115.6,105.9 118.6,110.8 		"/>
		<polygon fill="#FFFFFF" points="100.4,104 100.1,103.8 100.4,104.2 		"/>
		<polygon fill="#FFFFFF" points="100.6,101.3 98.4,101.3 99,101.6 100.6,101.9 		"/>
		<polygon fill="#FFFFFF" points="120,92 119.6,92.1 119.9,92.7 		"/>
		<polygon fill="#FFFFFF" points="120.1,89.8 118.5,87.5 117.3,87.7 119,91 120,90.7 		"/>
		<polygon fill="#FFFFFF" points="89.5,122.5 86.1,122 87.2,126 		"/>
		<polygon fill="#FFFFFF" points="99.7,112.2 99.2,111.7 96.4,113.8 96.3,114 97,116.7 99.3,117.3 		"/>
		<polygon fill="#FFFFFF" points="80.7,123.2 80.2,121.9 78.6,124.4 79.3,125.2 80.6,124.2 		"/>
		<polygon fill="#FFFFFF" points="21,111.1 20.9,110.1 19.1,110.8 		"/>
		<polygon fill="#FFFFFF" points="50.2,72.9 50.4,73.4 50.5,73.1 		"/>
		<polygon fill="#FFFFFF" points="98.8,122.6 99.2,118.5 97.4,118.1 98.5,122.5 		"/>
		<path fill="#FFFFFF" d="M10.6,33.9l-0.1-0.7l-0.8-0.3c0,0-0.1,0.1-0.1,0.2L10.6,33.9z"/>
		<polygon fill="#FFFFFF" points="11.7,77.6 11.4,77 8.4,76.8 11.5,81.4 11.6,80.9 		"/>
		<polygon fill="#FFFFFF" points="11.6,88.5 10.5,89 9.2,93 10.4,93.4 11.5,92.6 		"/>
		<polygon fill="#FFFFFF" points="11.8,69.9 10.4,68.3 8.7,68.7 10.4,72.1 11.7,70.7 		"/>
		<polygon fill="#FFFFFF" points="11.6,87 11.1,86.9 11,87.4 11.6,87.1 		"/>
		<polygon fill="#FFFFFF" points="11.9,59.2 3.9,51.1 4.4,59.4 10.9,67 11.8,66.8 		"/>
		<polygon fill="#FFFFFF" points="11.6,85.3 11.5,85.7 11.6,85.7 		"/>
		<polygon fill="#FFFFFF" points="11.7,72.6 11,73.3 11.7,74.8 		"/>
		<path fill="#FFFFFF" d="M10,32.5c-0.1,0.1-0.1,0.2-0.2,0.3C9.9,32.7,9.9,32.6,10,32.5z"/>
		<path fill="#FFFFFF" d="M11.6,41.1l-0.7-5.3L9,34.2c-0.7,1.2-1.3,2.4-1.9,3.6L11.6,41.1z"/>
		<path fill="#FFFFFF" d="M10.6,41.9l-4.1-3c-0.6,1.3-1.2,2.7-1.7,4.1L10.6,41.9z"/>
		<path fill="#FFFFFF" d="M0.4,67.1L0,66.6c0,0.2,0,0.4,0,0.6L0.4,67.1z"/>
		<path fill="#FFFFFF" d="M3.6,67.1l-0.4-6.8l-0.4-0.8l-1.9-2.3c-0.4,2.4-0.6,4.8-0.8,7.2l1.8,2.7L3.6,67.1z"/>
		<polygon fill="#FFFFFF" points="29.9,78.3 27.8,78.2 28.1,79.2 		"/>
		<polygon fill="#FFFFFF" points="10.1,74.3 8.9,75.5 10.7,75.7 		"/>
		<polygon fill="#FFFFFF" points="4.6,91.8 5.2,92 5.2,91.5 		"/>
		<polygon fill="#FFFFFF" points="4.9,67.1 6.5,67 4.7,63.2 		"/>
		<polygon fill="#FFFFFF" points="9.3,67 6,63.2 7.9,67 		"/>
		<polygon fill="#FFFFFF" points="9.5,73.1 7.4,68.9 5,69.4 5.2,72 7.4,75.3 		"/>
		<polygon fill="#FFFFFF" points="8.9,89.7 6.4,90.9 6.5,92.3 8,92.7 		"/>
		<polygon fill="#FFFFFF" points="7.1,95.6 7.7,93.9 6.6,93.6 6.8,95.8 		"/>
		<polygon fill="#FFFFFF" points="11.5,94.9 10.7,94.7 8.2,96.4 8.1,96.7 11.5,98.5 		"/>
		<polygon fill="#FFFFFF" points="9.4,88.1 9.9,86.7 6.1,86 6.3,89.6 		"/>
		<polygon fill="#FFFFFF" points="8.8,94.5 9.1,94.3 8.9,94.2 		"/>
		<polygon fill="#FFFFFF" points="10.2,85.5 11,82.9 7.2,77.2 5.7,78.9 6,84.7 		"/>
		<polygon fill="#FFFFFF" points="5.9,75.3 5.4,74.5 5.4,75.3 		"/>
		<polygon fill="#FFFFFF" points="6.1,76.6 5.5,76.6 5.5,77.2 		"/>
		<polygon fill="#FFFFFF" points="80.3,126 80.2,126.1 80.3,126.2 		"/>
		<polygon fill="#FFFFFF" points="44.7,8.6 36.3,8 38.9,14.6 45.2,13.1 		"/>
		<polygon fill="#FFFFFF" points="34.2,11.7 36.7,15.2 37.7,14.9 35.2,8.6 		"/>
		<polygon fill="#FFFFFF" points="34.3,25.1 34.4,27.3 44.4,32.6 37.3,24.6 		"/>
		<polygon fill="#FFFFFF" points="33.7,13.3 33.8,15.9 35.4,15.5 33.7,13.2 		"/>
		<polygon fill="#FFFFFF" points="35.7,20.8 37.8,23.2 40.5,22.7 39.6,21.5 		"/>
		<polygon fill="#FFFFFF" points="36.9,97.3 37,97.3 36.7,91.6 32,90.7 32.5,92.1 		"/>
		<polygon fill="#FFFFFF" points="24,35.9 25,37.4 28.4,26.2 20.5,27.6 		"/>
		<polygon fill="#FFFFFF" points="13.3,44.3 13.6,46.9 15.9,46.4 15.6,45.6 13.3,43.9 		"/>
		<polygon fill="#FFFFFF" points="18.4,28 20.6,31.1 19.2,27.8 		"/>
		<polygon fill="#FFFFFF" points="13.1,58.7 14.1,59.6 13.2,53 		"/>
		<polygon fill="#FFFFFF" points="13.3,41.5 14.1,41.3 13.3,38.8 		"/>
		<polygon fill="#FFFFFF" points="13.4,34.4 18.7,40.5 24.1,39.5 23.6,38.2 13.4,34.3 		"/>
		<polygon fill="#FFFFFF" points="13.4,28.9 13.4,33 22.9,36.6 22.9,36.5 17.1,28.2 		"/>
		<polygon fill="#FFFFFF" points="49.2,59.6 44.2,58.2 45.1,60.4 		"/>
		<polygon fill="#FFFFFF" points="45.8,35.4 45.5,34.7 34.5,28.7 34.9,35.2 35.8,37.4 45.6,35.7 		"/>
		<polygon fill="#FFFFFF" points="40.8,62.5 41.2,62.8 41,62.5 		"/>
		<polygon fill="#FFFFFF" points="41.3,67.9 37.3,67.9 39.6,73.6 43.8,70.7 		"/>
		<polygon fill="#FFFFFF" points="43.4,66 39.1,62.8 38.6,62.9 41.3,66 42.3,66.6 43.8,66.6 		"/>
		<polygon fill="#FFFFFF" points="39.6,76.8 38.7,77.7 40,77.8 		"/>
		<polygon fill="#FFFFFF" points="39.1,75.5 37.1,76.8 37.2,77.5 39.1,75.6 		"/>
		<polygon fill="#FFFFFF" points="45,63.5 44.3,61.8 43.3,62 		"/>
		<polygon fill="#FFFFFF" points="44.1,37.2 36.3,38.6 37.5,41.6 40.5,40.9 		"/>
		<polygon fill="#FFFFFF" points="13,66.6 15,66.2 14.3,61.7 13.1,60.4 		"/>
		<polygon fill="#FFFFFF" points="38.9,42.6 38.6,42.6 38.8,42.7 		"/>
		<polygon fill="#FFFFFF" points="38.3,56.5 40.5,59.6 42.1,61 43.8,60.7 42.7,57.7 		"/>
		<polygon fill="#FFFFFF" points="35.6,47.9 35.8,52.9 37.2,54.9 42.1,56.3 37.7,45.6 		"/>
		<polygon fill="#FFFFFF" points="37.5,16.3 39.2,18.7 38.2,16.1 		"/>
		<polygon fill="#FFFFFF" points="41.6,89 37.6,85 37.9,90.5 40.5,91 		"/>
		<polygon fill="#FFFFFF" points="13,69.4 13,69.4 14.2,68.2 13,68.2 		"/>
		<polygon fill="#FFFFFF" points="43.4,85.8 40.6,79.1 37.5,78.9 37.2,79.1 37.5,83.1 42.2,87.9 		"/>
		<polygon fill="#FFFFFF" points="38.1,118 37.9,114.8 34.4,114.3 33.9,114.7 36.5,118.5 		"/>
		<polygon fill="#FFFFFF" points="42.5,90 41.8,91.2 44.2,91.7 		"/>
		<polygon fill="#FFFFFF" points="38.2,119.3 37.2,119.6 38.3,121.2 		"/>
		<polygon fill="#FFFFFF" points="46.5,68.3 46.6,68.4 46.6,68.4 		"/>
		<polygon fill="#FFFFFF" points="35.3,112.2 34.6,111.9 33.5,112.9 34.1,113 		"/>
		<polygon fill="#FFFFFF" points="44,87.3 43.1,88.8 45.7,91.4 		"/>
		<polygon fill="#FFFFFF" points="49.6,77.3 48.9,78.5 50.8,78.6 		"/>
		<polygon fill="#FFFFFF" points="49.6,74.8 47.2,71.5 46.5,71.8 49.4,75.1 		"/>
		<polygon fill="#FFFFFF" points="42,79.2 44.2,84.4 46.9,79.6 		"/>
		<polygon fill="#FFFFFF" points="27.4,76.9 29.7,77.1 26.3,73.7 		"/>
		<polygon fill="#FFFFFF" points="37.9,91.8 38.1,95.2 39.9,92.1 		"/>
		<polygon fill="#FFFFFF" points="12.8,91.7 15.7,89.8 14.1,87.4 13.8,87.4 12.8,87.9 		"/>
		<polygon fill="#FFFFFF" points="12.9,86 13.1,86 12.9,85.6 		"/>
		<polygon fill="#FFFFFF" points="34.4,110.3 36.5,108.2 35.4,104.9 33.8,105.5 31.8,109 		"/>
		<polygon fill="#FFFFFF" points="12.8,94 18.4,95.5 18.9,95 18.8,94.4 16.4,90.8 12.8,93.3 		"/>
		<polygon fill="#FFFFFF" points="12.9,75.8 13.2,75.9 14.2,72.7 13,71.3 		"/>
		<polygon fill="#FFFFFF" points="12.9,83.4 14.4,85.7 15.4,85.2 13.1,80.5 12.9,81.1 		"/>
		<polygon fill="#FFFFFF" points="24,84.2 23,83 18.8,85 19,87.1 19.5,87.2 		"/>
		<polygon fill="#FFFFFF" points="23.1,104.5 25.4,105.7 24.6,104.2 		"/>
		<polygon fill="#FFFFFF" points="31.1,101.3 26.3,101.3 25,101.5 25.8,102.6 		"/>
		<polygon fill="#FFFFFF" points="22.3,96.6 32,99.2 33.4,98.9 31.3,92.7 29.2,90.2 26.3,89.7 21.3,94.4 		"/>
		<polygon fill="#FFFFFF" points="24,100 26.2,100 28.9,99.6 23.1,98 24,100 		"/>
		<polygon fill="#FFFFFF" points="26.8,87.4 24.8,85.1 21.3,87.5 25.9,88.3 		"/>
		<polygon fill="#FFFFFF" points="48.7,76.3 45.3,72.4 43.2,73.4 40.6,75.9 41.4,77.9 47.6,78.4 		"/>
		<polygon fill="#FFFFFF" points="17.5,47.4 18.2,49.4 21.1,50.2 21.2,49.7 17.9,47.3 		"/>
		<polygon fill="#FFFFFF" points="20.2,53 20.7,51.4 18.6,50.8 19.1,52.3 		"/>
		<polygon fill="#FFFFFF" points="19.8,54.2 19.8,54.1 19.8,54.3 		"/>
		<polygon fill="#FFFFFF" points="19.5,46.9 21.6,48.4 22.3,46.3 22.2,46.3 		"/>
		<polygon fill="#FFFFFF" points="29.4,52.5 29.5,52.4 29.1,51.4 26.3,49.1 		"/>
		<polygon fill="#FFFFFF" points="28.7,44.9 27.8,45.1 30.1,50.6 30.7,51.1 32,49.7 		"/>
		<polygon fill="#FFFFFF" points="18.3,63.9 20.8,61.3 19.9,58.4 18.2,63.8 		"/>
		<polygon fill="#FFFFFF" points="32.8,50.7 31.6,52 33.9,53.9 34.6,54.1 34.6,53.4 		"/>
		<polygon fill="#FFFFFF" points="33.3,55 31.7,54.6 32.2,55.7 33.5,57.2 34.9,58.2 34.8,56.3 		"/>
		<polygon fill="#FFFFFF" points="23.7,65.8 24,66.8 35.3,66.7 35.3,66.4 34.2,63.8 		"/>
		<polygon fill="#FFFFFF" points="19.5,66.9 19.3,66.6 17.9,66.9 		"/>
		<polygon fill="#FFFFFF" points="35.2,41.4 36.2,41.7 35.1,39 		"/>
		<polygon fill="#FFFFFF" points="36.8,43.3 36.4,43.1 35.3,43.4 35.5,46.2 37.2,44.3 		"/>
		<polygon fill="#FFFFFF" points="33.7,59.2 34.8,62 35.1,62.1 35,60.7 		"/>
		<polygon fill="#FFFFFF" points="22.3,50.6 22.5,50.6 22.3,50.5 		"/>
		<polygon fill="#FFFFFF" points="36.6,90.3 36.2,83.7 34.4,81.8 30.3,85.8 31.5,89.4 		"/>
		<polygon fill="#FFFFFF" points="21.3,53.6 25.7,56.3 27.6,54.4 25.4,52.8 21.9,51.8 		"/>
		<polygon fill="#FFFFFF" points="18.9,76.3 26,76.8 24.3,71.7 20.8,68.1 16.9,68.2 16.6,69 17.3,74.5 		"/>
		<polygon fill="#FFFFFF" points="16.2,66 16.8,64.1 15.8,63.1 16.2,66 		"/>
		<polygon fill="#FFFFFF" points="31.6,79 31.5,78.9 28.5,80.4 28.7,80.9 		"/>
		<polygon fill="#FFFFFF" points="23.1,68.1 22.5,68.1 23.4,69 		"/>
		<polygon fill="#FFFFFF" points="25.9,57.9 22.3,61.6 23.3,64.6 33.5,62.6 		"/>
		<polygon fill="#FFFFFF" points="28.6,55.1 26.7,57 33,60.8 31.5,57.2 		"/>
		<polygon fill="#FFFFFF" points="22.7,66.8 22.4,66 20.8,66.4 21.3,66.9 		"/>
		<polygon fill="#FFFFFF" points="19.7,65.3 22,64.8 21.3,62.7 19.2,64.8 		"/>
		<polygon fill="#FFFFFF" points="20.9,54.9 20.5,56.3 21.8,60.3 24.8,57.2 		"/>
		<polygon fill="#FFFFFF" points="15.6,72.4 15.8,72.7 15.7,71.9 		"/>
		<polygon fill="#FFFFFF" points="16,86.4 15.7,86.5 16,86.5 		"/>
		<polygon fill="#FFFFFF" points="13.6,78.7 16.5,84.7 17.4,84.3 16.5,77.3 14.1,77.2 		"/>
		<polygon fill="#FFFFFF" points="17.1,88.8 16.7,87.9 15.8,87.8 16.7,89.1 		"/>
		<polygon fill="#FFFFFF" points="17.2,62.8 19.2,56.4 18.1,53.1 14.1,50.7 15.5,61.1 		"/>
		<polygon fill="#FFFFFF" points="14.6,71.3 15.3,68.9 15.3,68.8 13.8,70.4 		"/>
		<polygon fill="#FFFFFF" points="16.1,75 15.1,73.8 14.5,76 16.3,76.1 		"/>
		<polygon fill="#FFFFFF" points="17.7,86.8 17.6,85.6 17.1,85.8 17.6,86.8 		"/>
		<polygon fill="#FFFFFF" points="18.3,91.2 17.7,89.9 17.4,90.1 18.4,91.6 		"/>
		<polygon fill="#FFFFFF" points="27.6,81.7 27.4,80.9 24.2,82.5 25,83.5 		"/>
		<polygon fill="#FFFFFF" points="32.5,79.9 29.1,82.2 29.9,84.4 33.5,80.9 		"/>
		<polygon fill="#FFFFFF" points="30.1,89.1 29.3,86.7 28.5,87.5 29.8,89 		"/>
		<polygon fill="#FFFFFF" points="22.2,82 18.3,77.5 17.7,77.4 18.6,83.7 		"/>
		<polygon fill="#FFFFFF" points="27,79.7 26.4,78.1 20,77.6 23.3,81.5 		"/>
		<polygon fill="#FFFFFF" points="33.7,49.8 34.5,51 34.4,49.1 		"/>
		<polygon fill="#FFFFFF" points="36.1,16.6 33.9,17.2 34,18.9 34.4,19.4 38.6,20 		"/>
		<polygon fill="#FFFFFF" points="30.7,39.6 33.9,40.9 33.8,39 		"/>
		<polygon fill="#FFFFFF" points="27,40.3 29.2,43.5 34,42.4 34,42.2 28.3,40 		"/>
		<polygon fill="#FFFFFF" points="30,44.6 32.9,48.8 34.3,47.4 34.1,43.6 		"/>
		<polygon fill="#FFFFFF" points="16.7,49 16.3,47.6 13.9,48.2 		"/>
		<polygon fill="#FFFFFF" points="27.3,43.9 27.9,43.7 26.2,41.3 		"/>
		<polygon fill="#FFFFFF" points="34.1,20.9 34.3,23.9 36.3,23.5 		"/>
		<polygon fill="#FFFFFF" points="17.5,51.3 17.2,50.4 15.1,49.8 		"/>
		<polygon fill="#FFFFFF" points="20.2,42.2 22.8,44.4 23.9,40.8 19.7,41.6 		"/>
		<polygon fill="#FFFFFF" points="24.1,44.6 26,44.2 25,41.7 		"/>
		<polygon fill="#FFFFFF" points="28,48.8 26.5,45.3 24.5,45.8 		"/>
		<polygon fill="#FFFFFF" points="22.7,49.2 26,51.6 27.3,52 23.2,47.4 		"/>
		<polygon fill="#FFFFFF" points="70.3,32.5 71.2,34.1 72.6,33.8 73.6,31.9 		"/>
		<polygon fill="#FFFFFF" points="52.8,58.9 55,58.5 52.8,53.1 		"/>
		<polygon fill="#FFFFFF" points="52.9,48.2 59.7,50.8 59.5,49.8 52.9,42.3 		"/>
		<polygon fill="#FFFFFF" points="53,34.3 57.1,33.6 56.1,26.6 53.1,29.7 		"/>
		<polygon fill="#FFFFFF" points="66.1,53.2 65.7,51.8 64.7,52.7 		"/>
		<polygon fill="#FFFFFF" points="53,40.4 54.3,41.9 53,40.1 		"/>
		<polygon fill="#FFFFFF" points="53,37.3 54.1,37.9 57.6,37.1 57.3,34.8 53,35.6 		"/>
		<polygon fill="#FFFFFF" points="55.2,60.1 55.5,59.8 55.5,59.7 54.6,59.9 		"/>
		<polygon fill="#FFFFFF" points="52.7,73 54.7,74.2 52.7,72.8 		"/>
		<polygon fill="#FFFFFF" points="52.8,62.5 54.2,61.1 52.8,60.7 		"/>
		<polygon fill="#FFFFFF" points="52.7,69.2 53,68.7 52.7,68.8 		"/>
		<polygon fill="#FFFFFF" points="52.5,92.1 53.3,91.3 52.6,84.3 		"/>
		<polygon fill="#FFFFFF" points="52.7,64.7 56.5,62.1 56.3,61.7 55.6,61.5 52.7,64.2 		"/>
		<polygon fill="#FFFFFF" points="52.7,66.5 54.2,66.4 55.4,64.4 52.7,66.2 		"/>
		<polygon fill="#FFFFFF" points="52.5,96 53.7,95.7 53.6,94.6 52.5,94.4 		"/>
		<polygon fill="#FFFFFF" points="85.4,4.3 87.1,7.7 88.4,5.6 86.6,4 		"/>
		<polygon fill="#FFFFFF" points="81.6,5.3 83.6,10 85.8,10.1 86.4,9 84.1,4.6 		"/>
		<polygon fill="#FFFFFF" points="72.3,21.4 75.7,26 76.8,26.2 79.4,21.5 78.3,17.2 71.6,18.4 		"/>
		<polygon fill="#FFFFFF" points="53.1,27.9 55.8,25 55.7,24.1 53.1,23.7 		"/>
		<polygon fill="#FFFFFF" points="89.2,11.6 89.9,13.1 91.6,13.6 96.4,12.7 95.7,12.1 		"/>
		<polygon fill="#FFFFFF" points="88.8,10.3 94.2,10.7 89.5,6.6 		"/>
		<polygon fill="#FFFFFF" points="88.7,4.2 88.9,3.5 88.1,3.7 		"/>
		<polygon fill="#FFFFFF" points="54,4 55.1,7.9 55.1,8 61.5,8.5 59.3,5.5 		"/>
		<polygon fill="#FFFFFF" points="53.1,22.4 55.5,22.8 55.3,21.4 53.1,21.7 		"/>
		<polygon fill="#FFFFFF" points="61.3,6.1 63.1,8.6 63.1,8.6 66.8,7.7 		"/>
		<polygon fill="#FFFFFF" points="57.6,11.3 63.7,16.9 65.9,14.6 62.6,10 		"/>
		<polygon fill="#FFFFFF" points="69,18.9 66.5,19.4 71.8,24.2 71.2,22 		"/>
		<polygon fill="#FFFFFF" points="64.6,17.7 65.3,18.3 68.2,17.8 66.6,15.6 		"/>
		<polygon fill="#FFFFFF" points="80.3,105.2 77,106.3 82.2,112.2 		"/>
		<polygon fill="#FFFFFF" points="88.5,102.5 84.8,103.7 83.5,112.4 83.7,113.1 84.3,113.2 90.2,104 		"/>
		<polygon fill="#FFFFFF" points="85.4,124 85,122.5 84.5,122.8 		"/>
		<polygon fill="#FFFFFF" points="52.5,97.5 53,97.3 52.5,97.4 		"/>
		<polygon fill="#FFFFFF" points="86.9,119.4 84.8,117 85.7,120.4 		"/>
		<polygon fill="#FFFFFF" points="103.9,12.6 100.2,13.3 100.9,15 101.5,15.6 104.6,12.7 		"/>
		<polygon fill="#FFFFFF" points="65.1,126.2 68.3,127.9 71.2,128.2 68,120.1 65.4,124.8 		"/>
		<polygon fill="#FFFFFF" points="75.7,106.8 75.6,106.8 77.4,111.4 80.5,112.2 		"/>
		<polygon fill="#FFFFFF" points="100.8,99 100.7,98.5 97.1,99.6 97.4,100 100.7,100 		"/>
		<polygon fill="#FFFFFF" points="94.9,113.4 93.1,106.5 91.2,104.9 85.6,113.6 92.3,115.4 		"/>
		<polygon fill="#FFFFFF" points="102.7,101.3 102.8,101.4 102.9,101.3 		"/>
		<polygon fill="#FFFFFF" points="103.1,107.2 102.5,105.3 102,105 101.5,105.7 102.7,107.5 		"/>
		<polygon fill="#FFFFFF" points="100,105.8 97.8,102.7 94.8,102.1 99.9,105.9 		"/>
		<polygon fill="#FFFFFF" points="99.3,107 93.4,102.6 94.2,105.8 98,109 		"/>
		<polygon fill="#FFFFFF" points="82.1,123.1 82.8,122.5 82.2,121.6 82,123 		"/>
		<polygon fill="#FFFFFF" points="53.4,118.5 52.6,119.7 56,121.5 		"/>
		<polygon fill="#FFFFFF" points="66.6,119.1 66.3,120.6 67.1,119.1 		"/>
		<polygon fill="#FFFFFF" points="55.4,89.2 54,85.6 54.4,90.2 		"/>
		<polygon fill="#FFFFFF" points="58.5,107.6 56.2,107 56.6,110.7 		"/>
		<polygon fill="#FFFFFF" points="52.4,100 52.5,100 52.4,99.9 		"/>
		<polygon fill="#FFFFFF" points="52.4,104.2 52.6,104.7 53.5,104.9 54.6,103.4 54.4,101.9 53.8,101.3 53.4,101.3 52.4,101.9 		"/>
		<polygon fill="#FFFFFF" points="52.3,113.2 54.5,112.5 53.2,109.3 52.3,110.2 		"/>
		<polygon fill="#FFFFFF" points="66.7,112.5 67.2,109.9 66.6,109.8 65.3,110.2 65.9,111.7 		"/>
		<polygon fill="#FFFFFF" points="67,117.9 66.9,117.5 66.8,117.9 		"/>
		<polygon fill="#FFFFFF" points="67.5,108.2 67.9,106.2 65.2,108.1 66.6,108.5 		"/>
		<polygon fill="#FFFFFF" points="61.7,104.6 60.6,106.4 61.3,107 62.8,107.5 		"/>
		<polygon fill="#FFFFFF" points="61.6,109.1 60.6,108.2 59.7,107.9 57.6,111.5 59,111 		"/>
		<polygon fill="#FFFFFF" points="74.6,107.8 74.4,108.2 75.3,109.6 		"/>
		<polygon fill="#FFFFFF" points="67.4,92.1 68.1,91.4 68,91.2 67.1,91.8 67.2,92.2 		"/>
		<polygon fill="#FFFFFF" points="67.8,95.9 69.9,96.3 70,96.2 69.5,94.8 67.6,95.1 67.7,95.8 		"/>
		<polygon fill="#FFFFFF" points="68.7,102.5 68.7,102.3 68.6,102.2 		"/>
		<polygon fill="#FFFFFF" points="102.1,17.9 105,25 107.1,24.7 107.3,22.3 102.3,18 		"/>
		<polygon fill="#FFFFFF" points="66.6,97 66.6,97.1 66.6,97 		"/>
		<polygon fill="#FFFFFF" points="66.7,87.9 66.6,88.2 66.9,90.4 67.5,90 		"/>
		<polygon fill="#FFFFFF" points="68.7,100 69.2,100 69.3,99.5 68,98.1 68.2,99.4 		"/>
		<polygon fill="#FFFFFF" points="73.9,106 73,103.7 72.4,103 71.3,103.8 73.1,106.3 		"/>
		<polygon fill="#FFFFFF" points="72.9,108.3 72.6,107.8 69.6,108.8 69.7,109.3 72,109.9 		"/>
		<polygon fill="#FFFFFF" points="73.7,109.5 73.3,110.3 74.5,110.6 		"/>
		<polygon fill="#FFFFFF" points="69.6,117.2 69.6,117.1 69,118.2 69.8,118.3 		"/>
		<polygon fill="#FFFFFF" points="103.7,99.9 102.2,98.1 102.1,98.9 102.4,100 103.7,100 		"/>
		<polygon fill="#FFFFFF" points="70,119.6 69,119.4 70.5,123.1 		"/>
		<polygon fill="#FFFFFF" points="69.9,110.7 70.3,113.2 71.4,111.1 		"/>
		<polygon fill="#FFFFFF" points="55.8,115.8 55.5,115 55.4,115.1 54.8,116.1 55.9,116.2 		"/>
		<polygon fill="#FFFFFF" points="56,101.3 55.6,101.3 55.6,101.3 55.8,101.6 		"/>
		<polygon fill="#FFFFFF" points="55,95.4 56.1,95.1 54.9,94.9 		"/>
		<polygon fill="#FFFFFF" points="57.2,97.1 55.2,97.8 55.3,98.4 		"/>
		<polygon fill="#FFFFFF" points="57.4,94.1 55.9,90.5 54.6,91.8 54.8,93.6 		"/>
		<polygon fill="#FFFFFF" points="56.4,104 56,103.5 55.8,103.7 55.9,104.5 		"/>
		<polygon fill="#FFFFFF" points="61.9,101.8 62.2,101.3 61.7,101.3 		"/>
		<polygon fill="#FFFFFF" points="61.3,96 61.1,96.1 60.1,97.5 60.8,99.2 63.4,96.4 		"/>
		<polygon fill="#FFFFFF" points="64.9,96.8 64.8,96.7 61.8,100 63,100 		"/>
		<polygon fill="#FFFFFF" points="61.1,103.2 60.4,101.5 58.2,103.9 59.7,105.5 		"/>
		<polygon fill="#FFFFFF" points="58.4,97.8 55.4,99.8 55.5,100 56.9,100 		"/>
		<polygon fill="#FFFFFF" points="57.3,104.8 56.5,105.8 58.9,106.4 		"/>
		<polygon fill="#FFFFFF" points="67,99.9 65.7,97.9 64.4,100 67.1,100 		"/>
		<polygon fill="#FFFFFF" points="102.3,81.7 101.5,82.3 102.2,82.3 		"/>
		<polygon fill="#FFFFFF" points="116.9,65 117.2,65.5 117.3,65.6 120.1,65.6 118.7,62.1 		"/>
		<polygon fill="#FFFFFF" points="118.3,70.3 116.7,71.5 119.7,73.1 		"/>
		<polygon fill="#FFFFFF" points="116.9,79.1 113.2,78.1 115,80.5 116.2,80.2 		"/>
		<polygon fill="#FFFFFF" points="102.8,75.1 95.2,72.9 99.9,80.5 102.5,79.6 		"/>
		<polygon fill="#FFFFFF" points="110.9,88.7 105.5,89.5 107.9,93.4 		"/>
		<polygon fill="#FFFFFF" points="115.2,88 112.5,88.4 108.7,94.5 116.7,91.8 		"/>
		<polygon fill="#FFFFFF" points="107.3,37.2 108.2,36.3 107.5,34.5 		"/>
		<polygon fill="#FFFFFF" points="114,32.2 114.2,32.3 114.4,31.8 		"/>
		<polygon fill="#FFFFFF" points="107.4,20.8 107.5,19.5 105.1,18.8 		"/>
		<polygon fill="#FFFFFF" points="119,33 119.4,33.1 118.7,32.4 		"/>
		<polygon fill="#FFFFFF" points="122.6,53.6 117.9,56.8 119,59.4 122.6,53.8 		"/>
		<polygon fill="#FFFFFF" points="120.7,67.1 120.6,66.9 118.7,66.9 119.7,67.8 		"/>
		<polygon fill="#FFFFFF" points="85.6,89.1 84.7,89.3 83.5,91.5 85.3,91.2 		"/>
		<polygon fill="#FFFFFF" points="84.4,92.6 84.6,92.8 84.9,92.5 		"/>
		<polygon fill="#FFFFFF" points="74.8,101.3 73.7,102.1 74.1,103 75.1,104.2 76.7,101.3 		"/>
		<polygon fill="#FFFFFF" points="102.1,83.7 102.1,83.6 101.8,83.5 101.9,83.7 		"/>
		<polygon fill="#FFFFFF" points="84.8,94.4 84.7,94.2 84.4,94.5 84.8,94.8 		"/>
		<polygon fill="#FFFFFF" points="79.9,104 79.2,101.3 78.2,101.3 76,105.2 76.1,105.3 		"/>
		<polygon fill="#FFFFFF" points="84.6,96.2 83.3,95.2 82.5,95.8 84.4,97.4 		"/>
		<polygon fill="#FFFFFF" points="87,101.3 85.1,101.3 85,102.4 87.3,101.6 		"/>
		<polygon fill="#FFFFFF" points="100.3,97.2 99.8,95.5 98.3,93.8 95.8,97.7 96.4,98.6 		"/>
		<polygon fill="#FFFFFF" points="99,92.7 99.1,92.7 99.1,92.6 		"/>
		<polygon fill="#FFFFFF" points="85.7,97 85.5,98.4 86.7,99.4 89.7,99.9 		"/>
		<polygon fill="#FFFFFF" points="91.8,101.6 91.5,101.5 89.8,102.1 90.9,103 		"/>
		<polygon fill="#FFFFFF" points="90.9,98.1 86,95.1 85.9,95.6 91.3,99.6 		"/>
		<polygon fill="#FFFFFF" points="56,117.5 54.1,117.2 54.1,117.3 56.3,119.9 		"/>
		<polygon fill="#FFFFFF" points="81.7,125.5 81.4,127.3 83,128.9 		"/>
		<polygon fill="#FFFFFF" points="84.9,129.6 86.3,127.5 83.5,123.5 82.5,124.3 84.6,129.6 		"/>
		<polygon fill="#FFFFFF" points="93,116.9 92.5,116.7 88.7,119.6 90.2,121.3 		"/>
		<polygon fill="#FFFFFF" points="81.2,128.8 81.1,129.2 81.6,129.3 		"/>
		<polygon fill="#FFFFFF" points="80.1,127.7 79.2,126.8 76.7,128.7 79.9,129.1 		"/>
		<polygon fill="#FFFFFF" points="81.5,117.5 82,113.9 82,113.9 78,112.8 78.4,114 81.2,118 		"/>
		<polygon fill="#FFFFFF" points="80.5,119.1 80.5,119.2 80.5,119.2 		"/>
		<polygon fill="#FFFFFF" points="102.6,109.4 102.4,109.3 101.1,110.2 101,111.7 105.3,115.4 104.3,111.8 		"/>
		<polygon fill="#FFFFFF" points="104.1,106.3 104.1,106.4 104.2,106.3 		"/>
		<polygon fill="#FFFFFF" points="106.9,104.3 103.4,103.7 103.6,104.5 105.3,105.5 		"/>
		<polygon fill="#FFFFFF" points="96,117.7 94.3,117.2 91.5,121.5 97.2,122.3 		"/>
		<polygon fill="#FFFFFF" points="100.1,108.1 98.9,109.9 99.2,110.1 99.9,109.6 		"/>
		<polygon fill="#FFFFFF" points="105.9,117.5 100.9,113.2 100.5,117.6 106.4,119.2 		"/>
		<polygon fill="#FFFFFF" points="62.7,127.3 63,126.5 61.3,125.7 61.4,125.9 62.6,127.2 		"/>
		<polygon fill="#FFFFFF" points="57.5,119.8 57.7,121.6 58.8,122.8 		"/>
		<polygon fill="#FFFFFF" points="63.1,129.8 63,129.6 63.1,130 		"/>
		<polygon fill="#FFFFFF" points="79.7,130.3 75.2,129.8 75,130 74.4,131 79.3,133.5 		"/>
		<polygon fill="#FFFFFF" points="61.5,129.4 61.1,128.3 58.4,128.1 59,134 		"/>
		<polygon fill="#FFFFFF" points="57.5,116.5 65.6,117.7 66.1,115.4 64.8,112.4 63.3,110.9 59.5,112.1 56.9,114 57.1,115.5 		"/>
		<polygon fill="#FFFFFF" points="60.5,127 60.3,126.6 58.1,124 57.9,123.9 58.2,126.8 		"/>
		<polygon fill="#FFFFFF" points="108.2,104.9 106.4,106.2 112.8,110.2 		"/>
		<polygon fill="#FFFFFF" points="71.9,132.5 71.9,132.4 68.9,134.6 69.8,135.7 		"/>
		<polygon fill="#FFFFFF" points="64.2,124.3 65.3,118.9 58,117.8 60.6,123.9 63.6,125.5 		"/>
		<polygon fill="#FFFFFF" points="71.4,129.4 71.5,129.5 71.5,129.4 		"/>
		<polygon fill="#FFFFFF" points="67.1,134.4 64.2,131 63.9,132 65.5,135.6 		"/>
		<polygon fill="#FFFFFF" points="71.6,131 67.9,129.1 64.6,128.7 64.5,129.5 68.1,133.7 		"/>
		<polygon fill="#FFFFFF" points="119.5,98.3 118.9,96.8 114.7,100 119.4,100 		"/>
		<path fill="#FFFFFF" d="M68.6,6.9l0.6,0.2l5.1-1.3l-2.9-5.7C70.3,0,69.2,0,68,0c-0.4,0-0.8,0-1.2,0L68.6,6.9z"/>
		<path fill="#FFFFFF" d="M20,19.8c-0.1,0.1-0.3,0.3-0.4,0.4C19.8,20.1,19.9,19.9,20,19.8z"/>
		<path fill="#FFFFFF" d="M113.6,19.9l3.5,1c-0.8-0.8-1.6-1.7-2.5-2.5L113.6,19.9z"/>
		<path fill="#FFFFFF" d="M135.3,58.2c-0.1-0.4-0.1-0.8-0.2-1.3C135.2,57.3,135.2,57.7,135.3,58.2z"/>
		<polygon fill="#FFFFFF" points="106.6,101.3 108.3,103.2 110.9,101.3 		"/>
		<path fill="#FFFFFF" d="M135.9,65.4c-0.1-2.4-0.3-4.8-0.6-7.2l-3.8,2.7l2,4.5L135.9,65.4z"/>
		<path fill="#FFFFFF" d="M136,68.9l-0.8,0.3l0.8,1.7c0,0.9-0.1,1.8-0.2,2.7l-1.8-4l-8.8,3.2l4.5,4.1l5.9-1.5c0,0.4-0.1,0.9-0.2,1.3
			l-4.7,1.2l0.3,0.3l3.9,1.5c-0.1,0.4-0.1,0.8-0.2,1.3l-1.1-0.4l0.2,0.2l0.9,0.5c-0.1,0.4-0.2,0.9-0.3,1.3c0,0.1-0.1,0.3-0.1,0.4
			l-1.2-1.1l-5.6-3l-0.7,0.2l0.8,2.1l6.7,1.9c-0.1,0.4-0.2,0.7-0.2,1.1c-0.1,0.2-0.1,0.5-0.2,0.7c-0.1,0.4-0.2,0.8-0.3,1.2l-0.2,0
			l-0.9,0.7l1-0.3c-0.1,0.5-0.3,1-0.4,1.5l-2.4,0.8l1.2,2.9c-0.2,0.5-0.4,1-0.6,1.4c-0.2,0.5-0.4,1-0.6,1.5l-2.4-4.6L124,93l4.5,6.2
			c-0.1,0.3-0.3,0.6-0.4,0.9c-0.2,0.4-0.5,0.8-0.7,1.2h-3l1.4,2.8c-0.3,0.4-0.5,0.8-0.8,1.2l-2-4h-0.7l2.1,4.9l0.1,0
			c-0.3,0.4-0.5,0.8-0.8,1.1c0,0-0.1,0.1-0.1,0.1l-0.1-0.1l-3.1-0.6l-0.4,5.3c-0.4,0.5-0.9,1.1-1.4,1.6l0-0.7l-4.5-7.3l-4.2-0.8
			l6.7,7.6l1.9,1.2c-0.1,0.2-0.3,0.3-0.5,0.5c-0.3,0.3-0.6,0.6-0.9,0.9l-1.4-1.6l-10.3-6.4l-0.9,0.7l0.5,2l10,7.4
			c-0.3,0.3-0.6,0.6-0.9,0.9l-8.3-6.1l5.9,8.2c-0.2,0.1-0.3,0.3-0.5,0.4c-0.3,0.3-0.7,0.5-1,0.8c-0.1,0.1-0.2,0.1-0.2,0.2l-1.8-0.5
			l0.4,1.6c-0.4,0.3-0.7,0.5-1.1,0.8l-0.8-2.7l-6.3-1.7l-0.3,3.9l6.8,1c-0.5,0.4-1,0.7-1.5,1L100,124l-0.3,3.1l0.2,0.9
			c-0.4,0.2-0.8,0.4-1.1,0.6c-0.2,0.1-0.3,0.2-0.5,0.3l0.1-1.6l-0.9-3.6l-6-0.9l5.8,6.6c-0.4,0.2-0.8,0.4-1.2,0.5l-5.8-6.5l-2.6,4.1
			l1.9,2.7l4.8,0.5c-0.8,0.3-1.7,0.7-2.5,1l-1.4-0.1L91,132c-0.4,0.1-0.8,0.3-1.2,0.4l-0.8-1.1l-0.3,0l0.4,1.4
			c-0.4,0.1-0.8,0.3-1.2,0.4l-0.5-1.9l-1.7-0.2l-0.2,0.3l1.9,1.9c-0.4,0.1-0.7,0.2-1.1,0.3c-0.4,0.1-0.8,0.2-1.2,0.3l-0.5-1.2
			l-1,1.5c-0.6,0.1-1.2,0.3-1.7,0.4l2-3.2l-0.8-0.8l-2.1-0.2l-0.5,3.7l1,0.5c-0.7,0.1-1.3,0.2-2,0.4c-0.1,0-0.2,0-0.4,0.1l0-0.2
			l-4.8-2.5l1.3,3.2c-0.4,0-0.9,0.1-1.3,0.1l-1-2.4l0.4,2.4c-0.4,0-0.8,0.1-1.2,0.1l-0.2-1.5l-1,1.6c-0.5,0-1,0-1.5,0
			c-0.4,0-0.9,0-1.3,0l-0.5-0.6l-0.8,0.6c-0.5,0-1,0-1.5,0c-0.5,0-0.9,0-1.4,0l-0.7-1.7l-0.3,1.6c-0.4,0-0.8-0.1-1.3-0.1l0.7-3.6
			l-0.5-1.3l-2.5,4.6c-0.2,0-0.3,0-0.5-0.1c-0.4-0.1-0.9-0.1-1.3-0.2l-0.8-7.3l-4.9-0.5l-0.1,6.7c-0.4-0.1-0.8-0.2-1.2-0.3l0.1-6.5
			l-2.7-0.3l-2.7,4.4l0.3,0.9c-0.1,0-0.2-0.1-0.2-0.1c-0.1-0.1-0.3-0.1-0.4-0.1c-0.4-0.1-0.8-0.3-1.2-0.4c-0.1,0-0.2-0.1-0.4-0.1
			l-3.4-5.1l-0.4,0.6l0.2,3c-0.4-0.2-0.9-0.4-1.3-0.6l0-0.7l-0.4,0.5c0,0-0.1,0-0.1,0c-0.6-0.3-1.2-0.6-1.9-1
			c-0.1-0.1-0.3-0.2-0.5-0.2c-0.4-0.2-0.8-0.4-1.1-0.6l0.8-0.8l-0.4-0.9l-3.9-0.4c-0.8-0.5-1.5-1-2.2-1.5l5.4,0.6l-1.6-3.2l-5.2,1.7
			c-0.4-0.3-0.8-0.6-1.2-0.9l5.8-1.9l-1.5-3.1l-3.6,2.5l-1.7,1.7c-0.1-0.1-0.2-0.2-0.4-0.3c-0.3-0.3-0.7-0.6-1-0.8l0.3-0.2l3.6-6.3
			l-5.5-0.8l0.9,6.7c-0.5-0.4-1-0.8-1.4-1.3l-0.8-5.7l-4.6-0.7l-0.5,0.2c-0.3-0.3-0.6-0.7-0.9-1c-0.2-0.2-0.4-0.5-0.6-0.7l1.8,0.3
			l4.3-1.5l-0.5-3.6l-7.6,1.9l0,0.3c-0.1-0.1-0.1-0.2-0.2-0.3c-0.3-0.4-0.5-0.7-0.8-1.1c-0.1-0.1-0.2-0.3-0.3-0.4l0-1.8l-0.7,0.7
			c-0.2-0.3-0.4-0.6-0.6-0.9c-0.2-0.4-0.5-0.8-0.7-1.2l1.9-0.3l0.1-0.1l0-0.9H8.7c-0.2-0.4-0.5-0.8-0.7-1.2h3.4l0-0.1L7.7,98
			l-0.3,0.9c-0.2-0.4-0.4-0.7-0.6-1.1c-0.1-0.1-0.1-0.2-0.2-0.4c-0.3-0.6-0.6-1.2-0.8-1.8c-0.1-0.3-0.3-0.7-0.4-1l-0.1-1.3l-0.5-0.1
			c-0.2-0.4-0.3-0.8-0.5-1.2c-0.1-0.4-0.3-0.8-0.4-1.2l1.2-0.6l-0.3-4.4l-2.6-0.5C2.1,84.9,2,84.4,1.9,84l2.9,0.5l-0.3-4.4L1.7,83
			c-0.1-0.5-0.2-1-0.3-1.5l3-3.1l-0.1-1.9l-3.7-0.3c-0.1-0.4-0.1-0.8-0.2-1.3l3.8,0.3L4,72.4l-1.7-2.6l-2.2,0.4c0-0.4,0-0.8,0-1.3
			l1.5-0.3l-0.3-0.4l-1.2,0c0-0.1,0-0.3,0-0.4c0,0,0,0,0,0c0,37.6,30.4,68,68,68s68-30.4,68-68c0,0,0,0,0,0
			C136,68.3,136,68.6,136,68.9z"/>
		<polygon fill="#FFFFFF" points="128.3,82.4 129,84.3 130.9,84.4 133.7,84 		"/>
		<polygon fill="#FFFFFF" points="129.4,88.9 129.3,88.9 130.4,91 129.5,88.8 		"/>
		<polygon fill="#FFFFFF" points="128.7,87.8 128.8,87.8 129,87.6 128.4,86 127.9,86.1 		"/>
		<polygon fill="#FFFFFF" points="106.5,114.8 107,116.9 109.4,118.9 		"/>
		<polygon fill="#FFFFFF" points="108.5,119.7 107.6,119 107.8,119.6 		"/>
		<polygon fill="#FFFFFF" points="131,85.7 129.7,85.9 130.1,86.8 131.5,85.7 		"/>
		<path fill="#FFFFFF" d="M136,67.6c0-0.3,0-0.6,0-0.9l-1.9,0l0.6,1.4L136,67.6z"/>
		<polygon fill="#FFFFFF" points="120.3,87.3 119.9,87.3 120.2,87.8 		"/>
		<polygon fill="#FFFFFF" points="120.8,101.3 120.6,101.3 120.3,105.5 122.7,105.9 		"/>
		<polygon fill="#FFFFFF" points="118.5,92.8 119.4,94.9 119.5,94.8 		"/>
		<polygon fill="#FFFFFF" points="56.6,123.2 52.2,121 52.2,126.2 57,126.7 		"/>
		<polygon fill="#FFFFFF" points="111.8,102.1 109.9,103.6 113.1,104.2 		"/>
		<polygon fill="#FFFFFF" points="120.8,97.3 120.8,98.1 121.6,100 122.2,100 		"/>
		<polygon fill="#FFFFFF" points="126.8,82 125.5,81.6 126.8,84.1 127.6,84.2 		"/>
		<polygon fill="#FFFFFF" points="125,74.3 125.7,76.1 127.9,77 		"/>
		<polygon fill="#FFFFFF" points="132.7,66.7 126.2,66.8 123.6,70.9 123.9,71.7 124.1,71.8 133.5,68.5 		"/>
		<polygon fill="#FFFFFF" points="127.5,100 123,93.7 121.1,95.1 123.6,100 		"/>
		<polygon fill="#FFFFFF" points="122.6,91.1 123.2,92 125.7,90.1 		"/>
		<polygon fill="#FFFFFF" points="126.6,86.3 121.6,87.1 121.4,89.4 121.9,90.1 127.5,88.2 		"/>
		<path fill="#FFFFFF" d="M76,4.1l2.7-2.8l-0.2-0.6c-1.2-0.2-2.3-0.3-3.5-0.4L76,4.1z"/>
		<path fill="#FFFFFF" d="M129.4,45.5l-2.1,3.3l4.9-3.4c-0.1-0.1-0.1-0.3-0.2-0.5L129.4,45.5z"/>
		<path fill="#FFFFFF" d="M126.8,50.7l3.4,7.5l3.9-6.1c-0.4-1.8-0.9-3.6-1.5-5.3L126.8,50.7z"/>
		<polygon fill="#FFFFFF" points="123.2,66.8 123,67 122.8,69 123,69.5 124.7,66.8 		"/>
		<polygon fill="#FFFFFF" points="130.4,61.7 128.6,62.9 127,65.5 132.1,65.5 		"/>
		<path fill="#FFFFFF" d="M132,44.9c-0.1-0.3-0.2-0.6-0.3-0.9C131.8,44.4,131.9,44.6,132,44.9z"/>
		<path fill="#FFFFFF" d="M134.5,53.7l-3.7,5.8l0.1,0.3l4.1-3C134.9,55.8,134.7,54.7,134.5,53.7z"/>
		<path fill="#FFFFFF" d="M117.5,28.7l-0.3,0.5l0.2,0.5l4.3,3.8l2.5-2.7l0.1-0.9c-1.1-1.6-2.2-3.1-3.4-4.5L117.5,28.7z"/>
		<path fill="#FFFFFF" d="M131.3,43c-0.2-0.6-0.4-1.1-0.7-1.7C130.8,41.9,131,42.5,131.3,43z"/>
		<path fill="#FFFFFF" d="M53.8,2.6l4.4,1.3l-2-2.8c-0.8,0.1-1.7,0.3-2.5,0.5L53.8,2.6z"/>
		<path fill="#FFFFFF" d="M126.4,33.2c-0.1-0.2-0.2-0.4-0.3-0.6C126.2,32.8,126.3,33,126.4,33.2z"/>
		<path fill="#FFFFFF" d="M125.3,32.8l0.7-0.3c-0.2-0.3-0.4-0.6-0.6-0.9L125.3,32.8z"/>
		<path fill="#FFFFFF" d="M125.5,34.1l1.6,0.3c-0.2-0.3-0.3-0.5-0.5-0.8L125.5,34.1z"/>
		<path fill="#FFFFFF" d="M125.2,35.3l-0.1,1.1l5.5,4.8c-0.8-1.9-1.7-3.7-2.7-5.5L125.2,35.3z"/>
		<polygon fill="#FFFFFF" points="130.3,44.1 131.6,43.8 130.9,43.2 		"/>
		<polygon fill="#FFFFFF" points="122.4,56.3 119.5,60.9 121.4,65.6 121.8,65.6 		"/>
		<polygon fill="#FFFFFF" points="121.1,75.8 121,75.7 120.7,75.5 118.8,78.4 120.9,79 		"/>
		<polygon fill="#FFFFFF" points="121.5,69.2 121.2,68.2 120.6,68.6 121.5,69.5 		"/>
		<polygon fill="#FFFFFF" points="116.4,84.6 115.8,84.6 116.8,86.5 117.7,86.4 		"/>
		<polygon fill="#FFFFFF" points="108,96 107.6,96.1 105.3,99.8 105.5,100 110.5,100 		"/>
		<polygon fill="#FFFFFF" points="112.6,100 118.4,95.6 117.2,92.9 109.3,95.6 112,100 		"/>
		<polygon fill="#FFFFFF" points="122.2,77.9 122.1,78.7 122.6,78.6 		"/>
		<polygon fill="#FFFFFF" points="125.6,79.2 124.4,79.5 124.7,80.1 126.2,80.5 		"/>
		<polygon fill="#FFFFFF" points="123.9,76.8 122.8,76.4 123.8,78.3 125.1,78 124.8,77.3 		"/>
		<polygon fill="#FFFFFF" points="123.9,81.2 122,80.6 121.8,83.7 125.4,84 		"/>
		<polygon fill="#FFFFFF" points="122.5,73.7 122.4,74.6 124.1,75.5 123.3,73.4 		"/>
		<polygon fill="#FFFFFF" points="121.7,85 121.6,85.8 125.3,85.2 		"/>
		<path fill="#FFFFFF" d="M127.8,35.6c-0.1-0.2-0.2-0.4-0.3-0.6C127.6,35.3,127.7,35.5,127.8,35.6z"/>
		<path fill="#FFFFFF" d="M84.5,2c0.6,0.1,1.1,0.3,1.7,0.5C85.7,2.3,85.1,2.2,84.5,2z"/>
		<path fill="#FFFFFF" d="M80.1,1.6l1,2.5l2.4-0.6l-1-2c-0.6-0.1-1.3-0.3-1.9-0.4L80.1,1.6z"/>
		<path fill="#FFFFFF" d="M84.8,3.2L85.5,3L84.3,2c-0.1,0-0.1,0-0.2,0L84.8,3.2z"/>
		<path fill="#FFFFFF" d="M89.9,5.3l6.3,5.6l0.5,0L97,8.7L95.9,6c-1.7-0.8-3.4-1.5-5.2-2.1L89.9,5.3z"/>
		<polygon fill="#FFFFFF" points="105,101.3 104.4,101.3 103.6,102.5 106.5,103 		"/>
		<path fill="#FFFFFF" d="M88.6,3.2c-0.4-0.1-0.8-0.2-1.2-0.4C87.8,2.9,88.2,3.1,88.6,3.2z"/>
		<polygon fill="#FFFFFF" points="69.6,10.8 70,10.3 69.5,10.3 		"/>
		<polygon fill="#FFFFFF" points="67.5,14.7 69.5,17.5 70,17.4 68.9,13.2 		"/>
		<polygon fill="#FFFFFF" points="69,8.4 69.1,9 71.2,9.1 71.3,9 69.2,8.4 		"/>
		<path fill="#FFFFFF" d="M74.4,3.1l-0.8-2.9c-0.2,0-0.5,0-0.7-0.1L74.4,3.1z"/>
		<path fill="#FFFFFF" d="M57.5,0.8l2.6,3.6l7.1,2.1l-1.7-6.4C62.8,0.2,60.1,0.4,57.5,0.8z"/>
		<path fill="#FFFFFF" d="M98.3,8.5l1,2.5l4.5,0.3l1.4-0.3c-2.2-1.4-4.4-2.7-6.8-3.9L98.3,8.5z"/>
		<polygon fill="#FFFFFF" points="76,9 75,7 73.6,8.4 		"/>
		<path fill="#FFFFFF" d="M120.7,25c-0.1-0.2-0.3-0.3-0.4-0.5C120.4,24.7,120.6,24.9,120.7,25z"/>
		<polygon fill="#FFFFFF" points="114.4,22.9 115.9,21.9 113.7,21.2 		"/>
		<polygon fill="#FFFFFF" points="116.6,27.8 118.2,24.8 115.5,25.4 		"/>
		<path fill="#FFFFFF" d="M106.5,11.9c-0.3-0.2-0.6-0.4-0.9-0.6C105.9,11.5,106.2,11.7,106.5,11.9z"/>
		<path fill="#FFFFFF" d="M117.5,21.4c0.4,0.4,0.8,0.8,1.1,1.2C118.2,22.2,117.9,21.8,117.5,21.4z"/>
		<polygon fill="#FFFFFF" points="119.6,24.8 120,24.4 119.8,24.5 		"/>
		<path fill="#FFFFFF" d="M124.4,30C124.4,30,124.4,30,124.4,30C124.4,30,124.4,30,124.4,30z"/>
		<polygon fill="#FFFFFF" points="118.4,22.6 117.4,22.3 116.4,23 		"/>
		<path fill="#FFFFFF" d="M109,13.7c-0.2-0.2-0.4-0.3-0.6-0.5C108.6,13.4,108.8,13.6,109,13.7z"/>
		<polygon fill="#FFFFFF" points="115.2,27.7 114.3,25.7 113.2,25.9 		"/>
		<path fill="#FFFFFF" d="M106.3,12.8l-3.8,3.6l0.5,0.4l4.7,1.3l0.4-5.1c-0.1,0-0.1-0.1-0.2-0.1L106.3,12.8z"/>
		<polygon fill="#FFFFFF" points="110.9,23.8 111,24 113.3,23.5 112.4,21.6 		"/>
		<path fill="#FFFFFF" d="M112.2,18l0.7-1.1c-0.6-0.5-1.2-1.1-1.9-1.6L112.2,18z"/>
		<polygon fill="#FFFFFF" points="52.9,49.7 56.3,58.3 57.3,58.1 60.4,55.2 59.9,52.2 52.9,49.5 		"/>
		<polygon fill="#FFFFFF" points="79.5,72.5 78.3,71.1 77.5,72.2 78.7,73.9 		"/>
		<polygon fill="#FFFFFF" points="84.9,75 84.2,75.8 85.5,77.4 		"/>
		<polygon fill="#FFFFFF" points="88.4,69.5 88.7,67.3 84.2,67.3 84.5,68.5 88.3,69.6 		"/>
		<polygon fill="#FFFFFF" points="81.6,69 80.1,68.5 79.1,70 80.2,71.3 		"/>
		<polygon fill="#FFFFFF" points="84.6,73.6 83.5,69.5 82.9,69.3 81.1,72.3 83.4,74.9 		"/>
		<polygon fill="#FFFFFF" points="81.1,55.3 82.2,59.4 84.3,60.2 85.2,59 82.5,54.6 		"/>
		<polygon fill="#FFFFFF" points="87.3,70.6 84.9,69.9 85.6,72.5 		"/>
		<polygon fill="#FFFFFF" points="90.3,67.4 90.3,67.2 89.9,67.2 89.9,67.9 		"/>
		<polygon fill="#FFFFFF" points="85.9,40.3 86.8,41.5 88.1,40.7 85.4,38.3 		"/>
		<polygon fill="#FFFFFF" points="89.1,52 90.1,51.8 90.9,50.6 89,51.5 		"/>
		<polygon fill="#FFFFFF" points="90.8,62.7 90.7,62.2 90.6,62.6 		"/>
		<polygon fill="#FFFFFF" points="89.9,54.7 90.6,54 90.7,53.1 89.8,54.4 		"/>
		<polygon fill="#FFFFFF" points="89.8,59.2 89.6,58.3 89.5,58.3 87.9,61 88.4,61.8 89.4,62.2 		"/>
		<polygon fill="#FFFFFF" points="90.4,63.9 90.3,64.9 91,66 91.6,66 91.7,65.9 91.2,64.2 		"/>
		<polygon fill="#FFFFFF" points="75.5,69.1 75.7,68.1 75.1,67.4 74.1,67.4 75.4,69.2 		"/>
		<polygon fill="#FFFFFF" points="75.2,56.7 78,55.4 73.8,56.2 		"/>
		<polygon fill="#FFFFFF" points="76.7,69.7 76.4,70.7 76.8,71.2 77.5,70.1 76.9,69.5 		"/>
		<polygon fill="#FFFFFF" points="77.8,57.7 78,56.8 76.8,57.3 		"/>
		<polygon fill="#FFFFFF" points="77.8,68.6 78.2,69.1 78.8,68.2 78.3,68 		"/>
		<polygon fill="#FFFFFF" points="80.3,66.1 80.2,66.1 80.2,66.1 		"/>
		<polygon fill="#FFFFFF" points="75.1,86.3 74.7,86.6 75.3,87 		"/>
		<polygon fill="#FFFFFF" points="75.2,89.3 74,88.4 75.1,89.4 		"/>
		<polygon fill="#FFFFFF" points="76.8,73.3 75.6,75.1 74.6,79.7 74.8,80.3 74.8,80.3 78,75 		"/>
		<polygon fill="#FFFFFF" points="74.4,83.5 73.6,84.8 73.4,85.6 74.6,84.4 		"/>
		<polygon fill="#FFFFFF" points="73.2,80.2 73.3,79.8 73.1,78.7 72.1,80.1 		"/>
		<polygon fill="#FFFFFF" points="74.4,74.6 75.1,71.3 72.9,73.4 73.6,75.8 		"/>
		<polygon fill="#FFFFFF" points="72.5,90.3 73.7,89.9 72.7,89 		"/>
		<polygon fill="#FFFFFF" points="89,65.2 87.5,62.8 86.9,62.6 84.8,66.1 88.9,66 		"/>
		<polygon fill="#FFFFFF" points="69.7,66.2 69.4,65.5 63.4,63.7 62.9,64 63.3,66.3 		"/>
		<polygon fill="#FFFFFF" points="75.7,91.5 72,92.4 71.9,93.2 76.8,92.5 		"/>
		<polygon fill="#FFFFFF" points="74.5,70.1 72.6,67.5 71.3,67.5 72.5,72.1 		"/>
		<polygon fill="#FFFFFF" points="72,85 72.4,84.4 73,81.5 71.3,81.3 69.7,83.6 		"/>
		<polygon fill="#FFFFFF" points="73.2,65.2 69.6,61.2 72.3,65 		"/>
		<polygon fill="#FFFFFF" points="71.7,66.2 71.6,66.1 70.8,65.9 70.9,66.2 		"/>
		<polygon fill="#FFFFFF" points="70.6,80 72.6,77.2 71.9,74.5 66.6,79.7 		"/>
		<polygon fill="#FFFFFF" points="86.5,81.2 86.2,80 85.5,79.2 83.5,80.5 83.8,81 		"/>
		<polygon fill="#FFFFFF" points="87.4,76.3 88.1,71.7 85.9,73.9 86.7,76.8 		"/>
		<polygon fill="#FFFFFF" points="84.6,78.2 83.3,76.8 81.9,78.3 82.7,79.5 		"/>
		<polygon fill="#FFFFFF" points="80.4,73.4 79.5,75 81.1,77.3 82.5,75.8 		"/>
		<polygon fill="#FFFFFF" points="75.5,81.6 75.2,82 75.6,83.3 77,81.7 		"/>
		<polygon fill="#FFFFFF" points="81.7,80.2 81,79.3 79.7,80.7 80.9,80.8 		"/>
		<polygon fill="#FFFFFF" points="62.7,62.2 63.3,62.4 67.5,60.4 65.6,57.8 65,57.9 62.3,59.7 		"/>
		<polygon fill="#FFFFFF" points="82.8,29 83.7,28.8 83.8,28.6 82.7,28.4 		"/>
		<polygon fill="#FFFFFF" points="81.5,33 82.5,33.9 82.7,33.7 82.8,33.5 82.6,32.8 		"/>
		<polygon fill="#FFFFFF" points="78.8,46.3 79.1,46.8 80.2,46 82,37 81.6,36.5 77.3,40.6 		"/>
		<polygon fill="#FFFFFF" points="83.4,36.5 83.4,36.7 83.8,37.4 83.6,36.7 		"/>
		<polygon fill="#FFFFFF" points="83.2,30.2 83.3,30.8 83.4,30.2 		"/>
		<polygon fill="#FFFFFF" points="83,38.4 81.7,45 85.3,42.6 84.8,40.8 		"/>
		<polygon fill="#FFFFFF" points="66,48 66.4,49.4 68.7,47.1 67,46.2 		"/>
		<polygon fill="#FFFFFF" points="66.3,55.5 66.7,55.2 66.5,54.7 65.1,54.2 		"/>
		<polygon fill="#FFFFFF" points="80.8,49.5 82.9,53 87.5,50.8 85.6,43.9 81.3,46.8 		"/>
		<polygon fill="#FFFFFF" points="66.7,50.8 67.6,53.8 68.3,54.1 74.2,50.1 69.9,47.7 		"/>
		<polygon fill="#FFFFFF" points="69.8,54.6 71.6,55.3 78.6,54 78.9,52.6 75.5,50.8 		"/>
		<polygon fill="#FFFFFF" points="78.7,51.1 78.2,48.9 76.7,50 		"/>
		<polygon fill="#FFFFFF" points="79.8,47.9 79.8,48 79.8,47.8 		"/>
		<polygon fill="#FFFFFF" points="102.3,54.2 102.5,53.8 101.9,53.3 		"/>
		<polygon fill="#FFFFFF" points="111.9,70.3 108.2,68.4 108.8,69.6 111.7,70.7 		"/>
		<polygon fill="#FFFFFF" points="99.4,62.2 100.7,62.9 99.7,61.5 		"/>
		<polygon fill="#FFFFFF" points="97.7,61.3 98.3,61.6 98.9,60.4 98.7,60.1 		"/>
		<polygon fill="#FFFFFF" points="105.5,67 105.2,67 106,68 		"/>
		<polygon fill="#FFFFFF" points="109,77.2 109.6,77 109.2,76.9 		"/>
		<polygon fill="#FFFFFF" points="111,71.8 109.4,71.2 110.2,73 		"/>
		<polygon fill="#FFFFFF" points="103.1,52.7 104.4,50.3 101.2,50.9 		"/>
		<polygon fill="#FFFFFF" points="102.9,55.6 102.9,55.7 104.2,58.8 104.5,55.6 103.6,54.9 		"/>
		<polygon fill="#FFFFFF" points="99.6,51.2 98.9,51.4 101.1,55.7 101.4,55.4 99.7,51.3 		"/>
		<polygon fill="#FFFFFF" points="102,57.4 103.7,60.9 102.1,57.1 		"/>
		<polygon fill="#FFFFFF" points="107.5,76.4 104.1,75.4 103.8,79.1 103.8,79.1 		"/>
		<polygon fill="#FFFFFF" points="104.6,54.1 104.6,53.8 104.5,53.9 		"/>
		<polygon fill="#FFFFFF" points="103.7,64.5 103.8,63.8 101.2,58.7 100.4,60.3 103.2,64.2 		"/>
		<polygon fill="#FFFFFF" points="94.2,28.2 91.9,28.7 93.9,29 94.1,28.9 		"/>
		<polygon fill="#FFFFFF" points="93.4,43.2 93.3,43.8 93.9,44.4 		"/>
		<polygon fill="#FFFFFF" points="93,50.1 93.4,49.4 93.2,49.5 92.9,49.9 		"/>
		<polygon fill="#FFFFFF" points="92.7,48 94,46.1 93.1,45.3 		"/>
		<polygon fill="#FFFFFF" points="104.2,74.2 108.6,75.5 109.2,74.6 105.7,69.8 104.6,69.4 		"/>
		<polygon fill="#FFFFFF" points="65.2,45.3 65.5,46.3 65.9,45.6 		"/>
		<polygon fill="#FFFFFF" points="93.9,30.3 93.9,30.3 92.3,30.6 93.5,33.4 		"/>
		<polygon fill="#FFFFFF" points="98.5,50.2 98.1,49.9 98.3,50.2 		"/>
		<polygon fill="#FFFFFF" points="94.5,52.2 98.8,58.2 100.2,56.7 97.6,51.6 		"/>
		<polygon fill="#FFFFFF" points="98.3,48 98.1,48.2 98.5,48.6 		"/>
		<polygon fill="#FFFFFF" points="92.7,39.1 92.7,39.1 92.7,39.1 		"/>
		<polygon fill="#FFFFFF" points="91.8,54.6 91.3,57.8 96.5,60.7 98,59.1 93.5,52.8 91.8,54.5 		"/>
		<polygon fill="#FFFFFF" points="87.4,55.7 88.5,54.2 88.3,53.4 84.4,54.1 		"/>
		<polygon fill="#FFFFFF" points="88,86.9 87.8,86.1 87.6,86.2 		"/>
		<polygon fill="#FFFFFF" points="77.4,66.2 78.4,66.1 81.8,62.8 81.1,60.3 78.8,59.4 		"/>
		<polygon fill="#FFFFFF" points="90.9,49.2 86.9,43.7 88.7,50.3 		"/>
		<polygon fill="#FFFFFF" points="80.7,53.6 80.7,53.5 80.7,53.6 		"/>
		<polygon fill="#FFFFFF" points="80.4,51.3 80.3,51.9 81,52.3 		"/>
		<polygon fill="#FFFFFF" points="84.6,55.6 85.9,57.8 86.7,56.8 		"/>
		<polygon fill="#FFFFFF" points="87.9,52.2 87.9,52.1 87.3,52.3 		"/>
		<polygon fill="#FFFFFF" points="85.7,62.1 84.8,61.7 83.3,63.8 83.7,65.5 		"/>
		<polygon fill="#FFFFFF" points="83.4,61.2 82.6,60.9 82.8,61.8 		"/>
		<polygon fill="#FFFFFF" points="87.1,59.8 88.1,58.2 86.9,59.4 		"/>
		<polygon fill="#FFFFFF" points="86.4,61 86,60.3 85.6,60.7 86.4,61 		"/>
		<polygon fill="#FFFFFF" points="82.4,65.2 81.8,66.1 82.6,66.1 		"/>
		<polygon fill="#FFFFFF" points="80.8,67.4 82.3,67.9 82.6,67.3 80.9,67.4 		"/>
		<polygon fill="#FFFFFF" points="89.6,70 92.5,70.8 91,68.5 		"/>
		<polygon fill="#FFFFFF" points="92.2,51.4 92.3,51.2 92.2,51.1 		"/>
		<polygon fill="#FFFFFF" points="97,50.5 96.6,49.7 95.5,50.7 		"/>
		<polygon fill="#FFFFFF" points="87.6,42.6 91.4,47.9 92,44.3 89,41.6 		"/>
		<polygon fill="#FFFFFF" points="90.1,40.9 92.2,42.8 92.4,41.3 91.6,39.8 		"/>
		<polygon fill="#FFFFFF" points="79,58.2 80.7,58.9 80,55.8 79.4,56.1 		"/>
		<polygon fill="#FFFFFF" points="95.4,48.5 94.4,50.1 96,48.5 95.9,48.2 		"/>
		<polygon fill="#FFFFFF" points="97.2,45.4 96.6,46.5 97.5,46.1 		"/>
		<polygon fill="#FFFFFF" points="73.6,57.5 71.5,56.6 68.5,57.2 68.8,58.4 69.7,59.4 		"/>
		<polygon fill="#FFFFFF" points="76.1,66.1 77.6,59 75.2,58.1 70.5,60.3 75.4,65.9 		"/>
		<polygon fill="#FFFFFF" points="68.5,55.5 68.1,55.8 68.2,56 69.3,55.8 		"/>
		<polygon fill="#FFFFFF" points="91.9,67.5 92.3,68.2 92.1,67.3 		"/>
		<polygon fill="#FFFFFF" points="69.1,64.1 68.4,61.7 68.2,61.4 65.1,62.9 		"/>
		<polygon fill="#FFFFFF" points="60.9,34.2 58.5,34.6 58.9,36.8 61.5,36.2 		"/>
		<polygon fill="#FFFFFF" points="111.4,40.8 112.5,43.5 117.7,37.8 		"/>
		<polygon fill="#FFFFFF" points="86.2,12 87.1,12.3 87.3,11.5 86.5,11.4 		"/>
		<polygon fill="#FFFFFF" points="109.2,35.3 111.4,33.1 108,32.5 		"/>
		<polygon fill="#FFFFFF" points="110,48 112.7,47.5 112,45.8 		"/>
		<polygon fill="#FFFFFF" points="108.8,49.5 113.4,58.4 116.4,56.4 113.2,48.6 		"/>
		<polygon fill="#FFFFFF" points="106.9,41.6 109.8,40.2 108.7,37.5 107.1,39.1 		"/>
		<polygon fill="#FFFFFF" points="105.5,26.4 107,26.1 107,26 105.5,26.2 		"/>
		<polygon fill="#FFFFFF" points="89.3,91.9 87.7,92.1 86.3,93.1 86.2,93.7 90.5,96.4 		"/>
		<polygon fill="#FFFFFF" points="97.5,27.7 97.7,28.1 104.3,26.7 104.2,26.5 		"/>
		<polygon fill="#FFFFFF" points="95.5,28 95.4,28.6 96.5,28.4 96.2,27.9 		"/>
		<polygon fill="#FFFFFF" points="102.3,37 104.1,40.4 105.9,38.6 106.4,32.3 105.2,32.1 		"/>
		<polygon fill="#FFFFFF" points="98.3,29.3 98.6,29.7 103.2,30.5 105.3,29.1 104.8,27.8 		"/>
		<polygon fill="#FFFFFF" points="116.8,57.6 114,59.5 116.2,63.7 118.1,60.7 		"/>
		<polygon fill="#FFFFFF" points="112.9,33.3 109.7,36.6 110.6,38.9 113.5,33.4 		"/>
		<polygon fill="#FFFFFF" points="97.8,83.3 97.8,83.4 97.9,83.3 		"/>
		<polygon fill="#FFFFFF" points="98.6,91 98.5,90.5 97.3,90.7 98.2,91.7 		"/>
		<polygon fill="#FFFFFF" points="97.3,81.4 98.7,80.9 95.8,76.3 		"/>
		<polygon fill="#FFFFFF" points="93,74 89,81.3 89.1,81.4 96,81.9 96.1,81.9 93.8,73.4 		"/>
		<polygon fill="#FFFFFF" points="94.8,89.8 93.3,88.1 90.4,90.2 90.5,90.4 		"/>
		<polygon fill="#FFFFFF" points="98.1,89.3 97.3,86.2 95.3,86.7 94.3,87.4 96.3,89.6 		"/>
		<polygon fill="#FFFFFF" points="103.4,68.9 101.5,68.2 96.1,71.8 102.9,73.8 		"/>
		<polygon fill="#FFFFFF" points="110.5,82.9 113.1,83.1 112.8,82.3 		"/>
		<polygon fill="#FFFFFF" points="114.3,73.1 111.2,75.3 111.9,76.2 117.3,74.3 		"/>
		<polygon fill="#FFFFFF" points="103,87.9 103,88.6 103.4,88.5 		"/>
		<polygon fill="#FFFFFF" points="98.8,67.1 96.7,67.2 94.5,71.2 94.5,71.4 94.5,71.4 100,67.6 		"/>
		<polygon fill="#FFFFFF" points="116.5,66.9 115.6,66.9 113.7,69.9 115.4,70.8 117.7,69.2 		"/>
		<polygon fill="#FFFFFF" points="94.4,35.6 94.7,36.2 99,33.3 97.7,30.9 95.2,30.5 		"/>
		<polygon fill="#FFFFFF" points="53.8,99.5 54.1,99.2 54,98.3 52.9,98.6 		"/>
		<polygon fill="#FFFFFF" points="53.9,39.2 59,46.4 58.3,41.5 54,39.2 		"/>
		<polygon fill="#FFFFFF" points="63.3,42.8 61.8,37.4 59.1,38.1 59.5,40.7 		"/>
		<polygon fill="#FFFFFF" points="62.5,51.2 62.7,51.4 64.7,47.9 63.7,44.4 59.7,42.3 60.6,48.7 		"/>
		<polygon fill="#FFFFFF" points="58.1,40 57.8,38.3 55.8,38.8 		"/>
		<polygon fill="#FFFFFF" points="60.6,33 58.3,24.5 58.1,24.5 57.2,25.4 58.4,33.4 		"/>
		<polygon fill="#FFFFFF" points="58,62.6 58.8,64.6 61.6,63.2 61.6,63.2 58.5,62.3 		"/>
		<polygon fill="#FFFFFF" points="57.6,65.1 57.1,63.8 56,65.9 		"/>
		<polygon fill="#FFFFFF" points="57,60.1 57.2,60.6 57.5,60.7 58.3,59.2 57.9,59.2 		"/>
		<polygon fill="#FFFFFF" points="54.9,67.8 53.3,70.6 61.7,77.9 63.1,78.9 58.6,67.6 55.1,67.7 		"/>
		<polygon fill="#FFFFFF" points="57.7,23.1 57.9,22.9 57.3,21 56.5,21.1 56.8,23 		"/>
		<polygon fill="#FFFFFF" points="85.2,13.7 85.6,14.6 86.6,14.5 86.8,13.5 85.6,13.1 		"/>
		<polygon fill="#FFFFFF" points="59.1,60.4 60.9,59.1 60.9,58.7 59.9,58.8 		"/>
		<polygon fill="#FFFFFF" points="58.2,66.4 58.1,66.3 57.8,66.4 		"/>
		<polygon fill="#FFFFFF" points="74.6,30.1 75.2,29 74,27.9 		"/>
		<polygon fill="#FFFFFF" points="77.2,28.1 78.4,29.8 81.6,29.2 81.3,28.2 77.4,27.6 		"/>
		<polygon fill="#FFFFFF" points="56.3,19.9 57,19.8 55.5,14.2 		"/>
		<polygon fill="#FFFFFF" points="80.9,26.9 79.9,23.2 78.1,26.4 		"/>
		<polygon fill="#FFFFFF" points="73.4,25.7 73.9,25.8 73.2,24.8 		"/>
		<polygon fill="#FFFFFF" points="80.9,18.8 80,16.9 79.5,17 80.3,19.9 		"/>
		<polygon fill="#FFFFFF" points="72.6,36.3 75.4,40.7 75.9,40.2 74.5,34.6 73.4,34.9 		"/>
		<polygon fill="#FFFFFF" points="58.2,19.6 60.5,19.1 56.2,12.2 		"/>
		<polygon fill="#FFFFFF" points="56,9.4 56.5,10.3 59.2,9.6 		"/>
		<polygon fill="#FFFFFF" points="66.1,25.8 69.6,31.4 73.5,30.7 72.4,26.8 		"/>
		<polygon fill="#FFFFFF" points="62.6,20.1 65.2,24.3 71.1,25.3 64.9,19.6 		"/>
		<polygon fill="#FFFFFF" points="61.8,18.8 62.8,17.8 59,14.2 		"/>
		<polygon fill="#FFFFFF" points="84.3,87.4 79,89.3 79.2,89.4 83.8,88.2 		"/>
		<polygon fill="#FFFFFF" points="105.3,61.3 106.1,63.4 110,60.7 105.6,56.7 		"/>
		<polygon fill="#FFFFFF" points="105.2,42.4 105.6,42.2 105.7,40.5 104.7,41.6 		"/>
		<polygon fill="#FFFFFF" points="112,60.9 114.5,63.1 113,60.2 		"/>
		<polygon fill="#FFFFFF" points="115.1,65.4 111,61.6 106.6,64.6 107.1,65.8 114.9,65.7 		"/>
		<polygon fill="#FFFFFF" points="108.4,67 112.6,69.3 114.1,66.9 		"/>
		<polygon fill="#FFFFFF" points="114.3,71.6 113,70.9 112.9,71.2 114.2,71.7 		"/>
		<polygon fill="#FFFFFF" points="100,46.2 99.3,47 100.4,49.8 105,48.9 105.3,45.5 104.6,44.1 		"/>
		<polygon fill="#FFFFFF" points="102.7,43.6 104,43 103.8,42.5 		"/>
		<polygon fill="#FFFFFF" points="85.4,85.4 83.1,82.2 81.3,82.1 76.2,85.5 76.9,88 77.7,88.5 85.2,85.8 		"/>
		<polygon fill="#FFFFFF" points="94.1,38.1 93.7,41.1 95.3,44.3 96.2,43 94.1,38.1 		"/>
		<polygon fill="#FFFFFF" points="100.1,32.6 101.7,31.5 99.3,31.1 		"/>
		<polygon fill="#FFFFFF" points="103.5,31.8 100.6,33.7 101.5,35.3 103.8,31.9 		"/>
		<polygon fill="#FFFFFF" points="98,44.1 98.6,45.5 99.3,45.2 103.2,41.3 101.6,38.2 		"/>
		<polygon fill="#FFFFFF" points="112.3,81.2 110.9,77.9 107.9,79 105.6,82.6 106.4,82.6 		"/>
		<polygon fill="#FFFFFF" points="92.6,72.1 89.4,71.2 88.8,75.3 92,73.1 		"/>
		<polygon fill="#FFFFFF" points="94,65.3 93.3,65.9 95.6,65.9 		"/>
		<polygon fill="#FFFFFF" points="88.6,77 88.1,80.3 88.1,80.3 90.7,75.6 		"/>
		<polygon fill="#FFFFFF" points="87.2,78 87,78.1 87.1,78.4 		"/>
		<polygon fill="#FFFFFF" points="88.6,89.9 87.7,88.6 86.9,88.8 86.6,91 87.2,90.9 		"/>
		<polygon fill="#FFFFFF" points="112.2,72.3 111.2,73.8 113,72.6 		"/>
		<polygon fill="#FFFFFF" points="94,69.5 95.2,67.2 93.3,67.2 		"/>
		<polygon fill="#FFFFFF" points="105.9,79.7 104.4,80.2 103.6,80.8 103.5,82.4 104.1,82.5 		"/>
		<polygon fill="#FFFFFF" points="94.3,24.3 91,27.5 91,27.5 94.4,26.9 94.7,25 		"/>
		<polygon fill="#FFFFFF" points="97.7,62.7 96.8,62.2 94.9,64.3 96.5,64.9 		"/>
		<polygon fill="#FFFFFF" points="102.6,65.8 102.8,65.7 102.4,65.2 98.8,63.3 97.6,65.4 99,65.9 		"/>
		<polygon fill="#FFFFFF" points="103.5,67.1 103,67.1 102.7,67.3 103.5,67.6 		"/>
		<polygon fill="#FFFFFF" points="97,41.7 100.7,36.5 99.6,34.4 95.2,37.4 		"/>
		<polygon fill="#FFFFFF" points="71.3,89.8 69.9,91.2 71.1,90.8 		"/>
		<polygon fill="#FFFFFF" points="66,92.6 65.9,92.6 65.9,92.7 		"/>
		<polygon fill="#FFFFFF" points="71.4,100 71.5,100 70.8,98.3 70.6,99.2 		"/>
		<polygon fill="#FFFFFF" points="92.1,38 92.9,37.4 93.2,35.8 91.1,30.9 88.8,31.4 		"/>
		<polygon fill="#FFFFFF" points="70,67.5 63.5,67.6 65.2,79.4 71.5,73.1 		"/>
		<polygon fill="#FFFFFF" points="70.5,93.4 70.7,92.8 70,92.9 70.3,93.4 		"/>
		<polygon fill="#FFFFFF" points="80.9,93.5 80.5,93.2 79.7,93.3 80.6,94.1 		"/>
		<polygon fill="#FFFFFF" points="80.7,91.8 80.8,91.9 80.8,91.9 		"/>
		<polygon fill="#FFFFFF" points="87.5,84.9 87.5,84.8 87.4,85 		"/>
		<polygon fill="#FFFFFF" points="65.2,87.9 64.4,82 64.4,82 59.7,86.7 63.2,90.8 		"/>
		<polygon fill="#FFFFFF" points="79.3,96.5 80,95.3 78.5,93.9 79.2,96.6 		"/>
		<polygon fill="#FFFFFF" points="70.8,101.3 70.2,101.3 70.1,102 70.6,102.8 71.5,102.1 		"/>
		<polygon fill="#FFFFFF" points="79.1,92.1 77.7,91.2 77.9,91.8 78.4,92.2 		"/>
		<polygon fill="#FFFFFF" points="65.7,91.2 65.5,89.7 64.1,91.8 64.4,92.1 		"/>
		<polygon fill="#FFFFFF" points="70.8,46.8 75.4,49.3 77.8,47.6 77.6,46.8 75.1,42.7 		"/>
		<polygon fill="#FFFFFF" points="77,39.2 80.9,35.4 79.5,33.5 75.7,34.3 		"/>
		<polygon fill="#FFFFFF" points="58.8,85.8 63.5,81.1 62.8,80.7 54.8,80.1 58.5,85.4 		"/>
		<polygon fill="#FFFFFF" points="79.2,31 80.4,32 82.2,31.6 81.9,30.4 79.2,30.9 		"/>
		<polygon fill="#FFFFFF" points="88.9,29.4 88.1,30.2 88.2,30.3 90.6,29.7 90.6,29.7 		"/>
		<polygon fill="#FFFFFF" points="84.7,36 89.1,40 91.1,38.7 87.5,31.7 86.3,32 84.2,34 		"/>
		<polygon fill="#FFFFFF" points="76.3,41.6 76,41.8 76.6,42.7 		"/>
		<polygon fill="#FFFFFF" points="62.2,67.6 60,67.6 63.6,76.6 		"/>
		<polygon fill="#FFFFFF" points="67.6,45.1 69.7,46.2 74.4,41.6 71.9,37.5 		"/>
		<polygon fill="#FFFFFF" points="56.4,88.3 57.9,86.7 57.5,86.2 53.9,82.1 		"/>
		<polygon fill="#FFFFFF" points="65.3,50.4 65.1,49.6 63.9,51.8 		"/>
		<polygon fill="#FFFFFF" points="59.5,66.4 62,66.3 61.7,64.5 59.2,65.7 		"/>
	</g>
</g>
</svg>
